<svg id="Layer_1" data-name="Layer 1" xmlns="http://www.w3.org/2000/svg" viewBox="0 0 763.82 503.25"><defs><style>.cls-1{fill:#231f20;fill-rule:evenodd;}</style></defs><title>captionbox</title><path class="cls-1" d="M761.32,551.11a46.87,46.87,0,0,0-9,.08c-3.17.48-6.4.86-9.66,1.21s-6.57.65-9.9,1q-5.22.87-10.48,1.67t-10.57,1.58c-22.23,3.07-45.07,6-67.75,8.08q-4.86.46-9.72.87C628,565,621,567,615,567c13,2,26,4,38.72,4.93q4.92.35,9.81.57a455.1,455.1,0,0,0,48.74-.47l10.86-.62c3.63-.21,7.25-.39,10.88-.53,3.18,0,6.34,0,9.48.14s6.27.35,9.37.69c3.23-.17,6.37-.3,9.52-.3a104.85,104.85,0,0,1,28.6,3.84c2.35,0,4.69-.19,7-.38,7-.64,14-1.4,21-1.94,3.38-.48,6.74-1.11,10.11-1.69a256.1,256.1,0,0,1,30.79-3.34c3.5-.41,6.93-.9,10.35-1.42,3.85-.58,7.7-1.16,11.55-1.77s7.7-1.24,11.54-1.91C941,551,994,551,1039,532c-1,8-8,12-14,14-41,12-90,33-128.78,14.08a9,9,0,0,1,.21-8.81c1.78-1.51,4.61-2.5,7.94-3.24C928,544,952,539,975,532c-19-1-38,1-57,1,34,0,67,1,101-4,15-3,24-21,40-20-1-3-2-6-1-8,14-12,20-25,18.46-44.34.09-2.2.16-4.44.21-6.7,17.06-107.35-12.35-271.35-49.73-325.18h0c-12-17.27-72.76-32.14-108.33-39.39,3.92.07,7.79.14,11.59.19a4.82,4.82,0,0,0,0-9.63C819.38,74.77,657.82,64,553.14,84c-42.36,8.1-155.53,22.11-182.57,54.4-8.05,9.6-15,27.42-20.56,50.3-.48,1.05-.95,2.05-1.44,3.13-37.36,83.65-38.51,156.33-15.07,242,8,29.26,19.6,51.83,34,69.21a79,79,0,0,0,10.91,14.44c12.19,12.5,29.49,21.88,50.27,28.89,3.46,1.17,7,2.28,10.6,3.32,27.68,8.36,56.37,17.3,85.89,16.81q4.92-.07,9.86-.52c8,0,14-4,21-5.89,3.4-1.45,6.75-3.05,10.08-4.71,16.66-8.29,32.84-17.9,51-15.4,27,4,55,3,82.3,1.2,3.47-.33,6.92-.63,10.37-.86a160.12,160.12,0,0,1,20.66-.23c2.65-.05,5.31-.11,8-.21s5.3-.24,8-.43c3.26-.17,6.51-.23,9.74-.13,12.94.37,25.69,3.11,38.15,10.07M1024.29,259.2a4.81,4.81,0,0,1,4.82-4.81c2.35,1.83,1.55.35,3.82,2.73l-.47,3.06,0,.05-2.55,1.65c.08.93-.07.51.44,1.29l-1.21.84a4.81,4.81,0,0,1-4.82-4.81Zm-5.1-15.52a4.81,4.81,0,0,1,3-6.09c6,.8,3.2-.31,8.2,3.57-3.43,4.51-1.61,2.75-5.16,5.56a4.81,4.81,0,0,1-6.09-3Zm-6.59-16.89a4.81,4.81,0,0,1,4.81-4.81c6.95,2,3.57.43,10,4.81-6.45,4.37-3.07,2.85-10,4.81a4.81,4.81,0,0,1-4.81-4.81Zm-4.35-15.71a4.82,4.82,0,0,1,4.81-4.81c7.05,1.58,3.47.47,10.7,3.47-6.4,5.76-2.8,3.77-10.7,6.15a4.81,4.81,0,0,1-4.81-4.81Zm1.42-18.86c8.12-.42,4.09-.87,12.07,1.46l0,0c-5.59,6.06-2.61,3.69-8.64,7.48a4.81,4.81,0,1,1-3.45-9ZM1005.38,176c8.31-.59,4.08-.86,12.7,1-6.08,6.53-2.55,3.68-10.7,8.38a4.81,4.81,0,1,1-2-9.41ZM992,169.19a4.82,4.82,0,0,1,3.44-5.87c3.74-.27,18.8-2.42,21.25-.72l0,.06c-.35,1.1-.08.66-.71,1.39l.12-.05c-12,7.11-5.91,4.32-18.25,8.63a4.81,4.81,0,0,1-5.88-3.44Zm-3.8-10.78a4.81,4.81,0,1,1-.46-9.61c8.69.52,3.88-.24,14.27,3.11V152c-9.26,5.45-4.62,3.41-13.81,6.45Zm-27.65-19.08a4.81,4.81,0,0,1-6-7.54c9.11-5.84,10.34-8.27,21-8.26h0c-4.85,5.3-10.07,10.61-15.06,15.8Zm-21.88-6.87a4.81,4.81,0,1,1-7.66-5.82c7.37-6.69,9.32-8.77,19.2-8.45-4.79,5.85-7.35,7.66-11.54,14.27Zm-18.42-5.58a4.81,4.81,0,1,1-6.91-6.69c6.29-4.26,7.73-5.81,14.82-4h0c-2.65,4-5.19,6.73-7.91,10.7Zm93.59,380.73C1014,515,1013,529,1004,530c-1-9,6-15,9.87-22.39Zm-13.08,20.15C998,522,1001,518,1004,513c2,3,3,7,4,11,1,5-4,6-7.21,3.76Zm20.45,1.73C1011,534,994,531,993,518c9,4,18,8,28.24,11.49Zm-18.17-4.1C1013,525,1022,522,1031,520c-4,8-14,10-23,10h4c-2-3-6-3-8.93-4.61Zm-21.93,5.11A7.21,7.21,0,0,0,978,530c15-4,30,4,45-2-14,8-32,4-47,2a18.44,18.44,0,0,1,5.14.5Zm-11.06,4.19C956,536,943,537,929,534c17-6,36-6,53-1-4,0-8,1-11.92,1.69Zm-371.63.16C591,539,583,541,575,544c38-23,80-8,120.45-3,2.72.19,5.41.35,8.12.5,8.07.43,16.18.76,24.43,1.51q-5.4.15-10.8.1t-10.8-.27C672,542,639,534,605,535a26.63,26.63,0,0,1,12-3c-7-1-13,1-18.55,2.85Zm-59.62,13.37h0a4.89,4.89,0,0,0-1.7,3.19c-7,.15-14,.21-21,.14,13.77-5.89,7.43-2.92,25.67-13v0c-27.58,3.41-14.52,1-39.3,7.14-3.27,1.06-4.79,3.28-4,5.36a304.62,304.62,0,0,1-42.33-4.73c4.38-1.86,8.44-4.82,9.46-9.76-3.49-1.79-6.8,1.65-13.18,1.23a4.79,4.79,0,0,0-4.3,5.26,4.48,4.48,0,0,0,.52,1.72c-3.23-.73-6.42-1.55-9.57-2.42,5.83-3.76,6.2-3.17,7.83-10.45l0,0c-4.15.73-8.39,1.5-12.53,2.25a4.77,4.77,0,0,0-2.65,6c-21.1-6.86-40.1-17.5-56.14-33.62-15.77-19.91-25.78-55.14-31.11-96.23,7.08,41.57,20.52,77.17,41.36,97.52,16.48,16.08,54.49,23.52,101.43,27.46-2.25,1-5.59,2.49-12.33,5.34a4.81,4.81,0,0,0,5.44,7.94c13.93-9.06,11.26-7,18.15-12.4,26.31,1.86,55,2.8,84,3.66-10.55,2.85-5.61.83-16.82,7.58a4.85,4.85,0,0,0-1.89,3.12q-7.42.33-14.81.58c2.82-3.09,1.92-2.18,6.86-9.85-12,3.07-6.32.74-17.11,7Zm270.74,18.57C813,561,808,553,814.39,546.84m-28.79,5.79a112,112,0,0,0-32.55-13.2q-4.26-1-8.59-1.77c-3.56-1-7.13-1.72-10.7-2.32s-7.16-1-10.77-1.36q-14.4.46-28.82.13c-3.23-.07-6.46-.18-9.77-.31C640,530,597,530,553,532c-33,1-66-2-99-7.43q-5.46-.81-10.6-1.72c-24-4.3-42.44-10.63-52.27-20.29C328.84,441.41,336.46,231.8,383.63,157,420.2,99,855.91,103,931.55,103.29a4.75,4.75,0,0,0,4.66-4.06h0c2.59.63,5.23,1.28,7.89,2L986,120.52a58.73,58.73,0,0,1,15,11.71c-17.73,3.15-9,1.11-26.19,6.12a4.81,4.81,0,0,0,3.05,9.13c16.57-8.9,8.9-3.8,23.16-15.22,29.31,31.2,37.72,96.19,41.72,129.47,7.45,62.14,14.66,124.69,6.13,184.89-.53,3.77-1.13,7.52-1.77,11.24C1045,473,1039,487,1031,500c-1,2,0,4,0,6-5-1-7-6-4-10-5,2-5,7-1,10,3,2,6,4,10,5-6,10-20,11-30,12,9,1,20,1,26-8-20,30-64,10-94.32,22.26m-353.45,2.58h0l16.42.48c-2.74.81-5.4,2.51-9.93,5.44a4.78,4.78,0,0,0-1.48,3.49l-12.85.65c3.24-3.41,2.37-2.55,7.84-10.06Zm423.44-7.3C1004,534,1001,531,997,532h21a68.37,68.37,0,0,0-10.33.54Zm29.51-16.71C1040,516,1043,517,1042,520c-4,9-14,9-21,13,6-4,22-7,16.18-17.17Zm10.21-31.39a49.92,49.92,0,0,1,1.62-6.54,43,43,0,0,0,1.57-7.22c.82-5.34,1.54-11.39,2.16-18,8.67-92.81-3.11-301-66.06-333.46l-41.47-17.74c16.06,4.08,32.81,8.88,46,13.87,11.82,6.18,22.08,13.92,30.23,23.53,7.11,12.53,13.64,28.67,19.42,47.27,9.92,56.1,20.45,177.33,24.07,212.1.73,7.07,1.32,13.8,1.8,20.28a368,368,0,0,1-5.67,44.77q-1,5.14-2.17,10A63.31,63.31,0,0,1,1057,481c-3,13-16,21-25,29,5-9,13-16,15.39-25.56ZM1068,379.34h0c-4.19-32.42-10-63.18-12-86.56-2.58-29.11-4.29-54.58-6.92-76.75,11.8,49.23,18.89,108.86,19,163.31ZM551.24,91.63h0c91.87-17.36,230.43-10.51,337-7.82a4.76,4.76,0,0,0-.26,1.3,4.81,4.81,0,0,0,4.82,4.81c1.48.25,3.64.65,6.31,1.16-2.32-.16-4.69-.31-7.09-.45-34.27-2-72.9-.76-107.49-.17,31.79.53,78.73-1.62,123.82,3.14-119.06-.38-494.81-.21-531.86,59.11-17.08,27.36-29.05,71.46-34.56,119.91,3-39.77,9.05-76,17.23-101.15,33.36-60.8,68-52.58,144.35-62,111.81-13.83,201.94-15.71,311.76-23-111.52,3.12-200.35,6.24-312.19,19.41-22,2.59-40.58,3.82-56.75,5.65,39.67-9.64,83.86-15.9,104.92-19.87ZM373,142.84h0a36.9,36.9,0,0,1,4.78-4.59,103.53,103.53,0,0,0-7.49,8.28,43.58,43.58,0,0,1,2.71-3.69ZM335,431.54h0c-21.69-78.19-22.7-144.84,6.11-220C327.51,288,327.28,400.13,349.13,469A206.84,206.84,0,0,1,335,431.54ZM526.35,557.71C531,558,536,559,541,558c26-5,47-24,73-20,28,3,55,12,83,11-28,1-55-6-83-11-25-4-45,15-69,20-6,1-13,0-18.65-.29Zm492.2-32.08C1011,526,1008,533,1002,536c9-9,26-4,31-16,6-14,23-16,29.49-30.49a89.31,89.31,0,0,0,3.94-11.32q-.43,3.45-1.09,6.72C1066,492,1062,497,1058,500c-12,9-20,20-28,32-1,1-4-5-7.51-6.28A10.21,10.21,0,0,0,1018.55,525.63ZM790.09,556.16a69.32,69.32,0,0,0,8.2-1.12,174.61,174.61,0,0,0,23.88-6.56q3.95-1.41,7.94-2.72a144.32,144.32,0,0,1,24.69-5.93q4.85-.93,9.79-1.51a126.27,126.27,0,0,1,30.64.14c3.09-.08,6.17-.16,9.22-.27C942,534,980,533,1019,530c5,0,12-2,14-11a3.25,3.25,0,0,1-2.72,3.47" transform="translate(-317.82 -72)"/></svg>