<svg id="Layer_1" data-name="Layer 1" xmlns="http://www.w3.org/2000/svg" viewBox="0 0 657.41 604.9"><defs><style>.cls-1{fill:#231f20;fill-rule:evenodd;}</style></defs><title>quote4</title><path class="cls-1" d="M762.37,420.47c8,7.14,16.3,10.76,29,13.51,129.17,28,213.29-70.26,194.33-196.18-11.9-79-52.28-103.35-126.45-90.36a3.89,3.89,0,0,0-.5.25c-6-15.23-16.08-29.1-29.92-41.64C770.23,53,704.1,70.32,637.05,92c-.08,0-.13.11-.2.15-86-29.26-216.66,51.41-206.92,120.36-46.8,13.88-87.13,41.28-91.8,94.86-7.68,88.09,68,122.77,142,107.34a3.93,3.93,0,0,0,.09,1.23c21.81,62.54,225.5,90.22,282.16,4.54ZM717,643.15a4.59,4.59,0,0,0-1.29-1.58,4.49,4.49,0,0,0,.7-3.53,4.56,4.56,0,0,0-5.46-3.42c-78.44,24.58,49.65,66.82,41.08,20.62C750,644,732.45,642.31,717,643.15Zm-23.1,12.58h0a18.81,18.81,0,0,0,2.74,3.93,6.69,6.69,0,0,1-2.74-3.93Zm48.41,10.19h0a16.53,16.53,0,0,0,1.58-3.33c3.34-9.72-14.81-16.1-24.67-15,6.52,1.91,13.42,3.8,18.19,9,21.31,23.35-69.09-5.05-24.52-7a4.51,4.51,0,0,0,4.31-3.29c12.36.75,25.46,2.79,28.86,8.2,3.64,5.8,1.41,9.42-3.75,11.39Zm57.21-79.18c52.12-4.25,90.92,30,30.47,49.13-76.85,24.38-128.92-42.15-41.48-53.24a4.52,4.52,0,0,1,4.24,3c1.88.3,4.16.67,6.77,1.12Zm-3.2.31-3.46-.91a4.08,4.08,0,0,1,.21,1.05v.24c1.1-.15,2.18-.26,3.26-.38Zm-4.28,3h0a217.7,217.7,0,0,1,21.82,1.73c18.43,5.39,39.11,13.26,34.93,22.32a27.42,27.42,0,0,1-10.13,11.72l-.59.32A76.77,76.77,0,0,1,827,630.65c-37.15,8.48-97.46-27-50.55-32.91a4.55,4.55,0,0,0,4.3-4.79.79.79,0,0,0,0-.13c2.45-.4,5-.76,7.84-1.08a4.55,4.55,0,0,0,3.53-1.67ZM752.23,607c-2.22,6.18,2.68,13,11.8,18.24-6.95-5.62-11.34-12.18-11.8-18.24ZM855.39,612c2.14-6.17-4.47-11-14.82-14.52,8.66,3.79,14.83,8.57,14.82,14.52ZM964.64,479.61c119.61,64.13-149.72,139.83-194.58,57.33-26.22-48.23,54.27-68.71,89.64-71a4.55,4.55,0,0,1,4.44,3.59c33.79-2.83,73-4.65,100.5,10.1ZM864.22,471h0c4.63-.16,9.4-.31,14.22-.41,31.75,1.64,92.41,4.84,106.88,39.37,15.1,36-97.12,44.58-110.46,44.72-130.22,1.38-97.19-64.79-33.54-67.63a4.56,4.56,0,1,0,0-9.11c-1.71.1-3.39.24-5.05.42A164.85,164.85,0,0,1,859.7,475a4.55,4.55,0,0,0,4.52-4Zm-84.48,66.27h0c-16-21.21-1.89-36.77,19.69-47.05-43.41,26.61-32.2,85.4,112.44,69.48,6.73-.74,13-1.73,18.87-2.92-52.82,14.67-125.94,13.61-151-19.51ZM635.13,467.42h0c50.76-2.91,100.11-20.34,123-50.8l.14-.18c.82.88,1.65,1.68,2.48,2.47-21.69,33.34-73.1,47.8-125.6,48.51Zm129.32-49.68h0a85.21,85.21,0,0,0,23.9,13.19c-10.55-2.32-17.86-5.61-25.4-11.34.45-.7.9-1.39,1.33-2.09.07.07.09.17.17.24Zm97-262.24h0c1.23-.22,2.42-.41,3.63-.61-.54,5.11,1.08,12.84,1.25,13.84,2.64,15.25.46,22.15-1.92,22.13a93.17,93.17,0,0,0-3-35.35ZM861,183.72h0c-3-24.41-10.24-43.91-20.69-59.17A95.88,95.88,0,0,1,856.21,151a4.16,4.16,0,0,0,.1,1.64,4,4,0,0,0,1.15,1.81,107,107,0,0,1,5.63,35.7c-.93-1.06-1.75-3.21-2.13-6.38ZM634.69,96.36h0a4,4,0,0,0,.26,1.16,4.2,4.2,0,0,0,5.54,2.11c.53-.19,1.08-.37,1.62-.55a94.53,94.53,0,0,1,29.48,19.06c-26.55-20.37-69-25.35-99-21.49-46,5.92-127,56.29-131.81,103.85a4.31,4.31,0,0,0,.71,2.17,4.65,4.65,0,0,0,0,1.82,4.56,4.56,0,0,0,5.43,3.47l1.84-.29q-5.44,1.19-10.82,2.6c-8.46-58.61,112.26-141,196.74-113.91ZM352,359.41h0c34,66.35,154.88,61.8,200.82,10.14l1.65-2.51h0c-4.77,4-23.95,15.24-24.62,15.62-86.23,48.87-210,9.91-170.51-104.8a4.54,4.54,0,0,0-2.23-6,4.41,4.41,0,0,0-1.58-.38c29.83-50.71,111.09-62.57,168-64.06a4.19,4.19,0,0,0,.08-8.37c-4.08.14-8.29.33-12.59.58l12.17-1.13h0c-50.21-3.61-27.69-3.9-73,.16,5.54-41.56,82.34-89.65,123.45-95.81,48.85-7.31,106.47,5,122.28,57.69a61.72,61.72,0,0,0-2.13-11l8.91,19-10.86-28.89C681,119.29,666,105.46,648.49,96.94,693.25,82,737.3,70.41,779.22,83.45c-36.11-9.12-79.28-3.66-119.65,10.76a4.56,4.56,0,0,0,5.45,7.31C748.2,71.78,840.8,80.21,857.07,184c.69,4.32,3.29,8.54,5.95,10.06-.08,3-.23,6-.48,9.08.63-2.91,1.09-5.78,1.47-8.62,4.36,1.35,8.23-5.59,3.12-32.68-.43-2.26-1.12-4.86-.94-7.15,66.22-10.87,101.11,11.85,112.68,84.16,13,81.36-17.61,149.47-76,179.72A114,114,0,0,0,922.26,405c33.45-29.44,37-39.45,51.77-86.69,13.82-44.29,3.56-134.91-50.6-157.59-19.74-8.26-26.86-6.2-44.46-3.08h0c16.89.49,21.13-4.51,43.35,5.61,51.12,23.29,59.72,110.82,46,152.88-15.6,47.73-18,55.07-51.66,84-34.52,29.66-108.08,41.59-145.83,11.07a4.37,4.37,0,0,0-2.55-1.16,85.41,85.41,0,0,0,4.47-11.44l4.76-22c-4,12.59-6.55,22.93-12.06,34a4.62,4.62,0,0,0-1.06.72,4.47,4.47,0,0,0-1.22,3.57c-.18.31-.32.62-.5.93-.47.81-1,1.59-1.47,2.37-.86-.69-1.73-1.39-2.62-2.15,18.05-24.13,7.58-15.19,14.77-26.21-1.22,1-2.49,1.7-3,3.11a75.84,75.84,0,0,1-12.95,22c-.81-.72-1.61-1.4-2.46-2.19h0c.76.89,1.5,1.65,2.24,2.47-56,66.6-225.22,56.84-258.55-4.93a4,4,0,0,0-.28-.43A171.28,171.28,0,0,0,568,367.06c-66.14,55.33-184.18,71.67-216-7.65Zm136.3,54.32h0a3.6,3.6,0,0,0-.42-.83c.68-.17,1.35-.35,2-.54a4.88,4.88,0,0,0,.21,1.25c8.45,15.15,22.6,27,40.1,35.68C508.67,440.2,493.08,428.06,488.28,413.73Z" transform="translate(-337.59 -71)"/></svg>