<svg id="Layer_1" data-name="Layer 1" xmlns="http://www.w3.org/2000/svg" viewBox="0 0 641.24 632.08"><defs><style>.cls-1{fill:#231f20;fill-rule:evenodd;}</style></defs><title>quote7</title><path class="cls-1" d="M995.13,352.75c-3.51-54.31-17.07-100.66-40.09-140.48C925,156.15,876.84,112.66,812,78.14a5.28,5.28,0,0,0-6.29,1.76,259,259,0,0,0-94.11-21.05c-117.33-9.19-239.7,57.22-307,147.85-73.33,98.77-61.07,232.16,6.36,327.44,26.66,54.23,66.68,97.14,128.56,126.78,93.24,44.66,177.63,33,261.87-1,.62,1,.88,1,.65-.26q7.15-2.91,14.32-6a3.35,3.35,0,0,0,1.18.46,2.52,2.52,0,0,0,.53-1.2c2.85-1.24,5.69-2.52,8.54-3.8l1.33,2.34c-.24-.92-.46-1.79-.68-2.63,1.79-.82,3.6-1.64,5.39-2.48a4.07,4.07,0,0,0,.69.77c1.69,1.38,2.26.41,2.11-2.06,5.1-2.4,10.23-4.84,15.35-7.35.85.89,1.55,1.37,2.09,1.35v-.07l0,0c.17-.07,0-.83-.34-2.1q7.34-3.6,14.67-7.35a5.33,5.33,0,0,0,1.9,7.14c11.09,5.33,109.59,50.28,121.7,41.51,5.62-4.09,4.93-18.29,1.1-36.42-3.76-29-20.8-76.49-31.25-104.15-4.36-14-9.25-28-13.71-40.21a23.77,23.77,0,0,0,1.48-1.89c1,1.67,2.34,3.83,4,6.56q-.95,2.06-1.91,4.28A38.36,38.36,0,0,0,953,503c.34.55.63,1.05,1,1.65-.16-.9-.3-1.65-.44-2.46l.74-1.08,0,.06c6.89-10.53,12.78-20.12,17.84-29.27a1.89,1.89,0,0,0,.09.21.73.73,0,0,0-.19.33l-.06.09h0l0-.1.19-.3a2.93,2.93,0,0,0,.55,1c.31-.48.39-.62.2-.83l.05,0c.06-.79.07-1.51.1-2.27a198.17,198.17,0,0,0,14.43-32.73,10.75,10.75,0,0,0,.92-2.87,158.34,158.34,0,0,0,4.79-19.88c2.61,1.92,3.7-1.16,1.66-12.67,1.45-14.37,1.49-30.24.27-49.15ZM770.46,124.89c-15.13-18.52-8.59-8.54-19.57-30a4.73,4.73,0,1,1,8.94-3.08c7.12,21.83,3.57,10.82,10.63,33.06ZM733.69,94c-6.28,2.33-9.26-7.68-11.07-11.73a4.72,4.72,0,1,1,9-2.81A103.92,103.92,0,0,0,733.69,94Zm-36.76-3.29c-4,8.1-12.17-8.67-12.95-10.1a4.73,4.73,0,0,1,8.82-3.43c1.23,6.6.13,10.47,4.13,13.53Zm-25.61,2c-3.28,5.93-7.53-7.59-8-9.85a4.73,4.73,0,0,1,9.45,0c-.84,3.66-2.37,6.69-1.44,9.85ZM637.18,98c-2.66,4.58-9.4-10.28-9.66-10.79a4.72,4.72,0,0,1,8.82-3.39c.43,3.44.32,11.95.84,14.18Zm-21,9.85c-3.41,5.13-10.23-13.41-10.61-14.68a4.72,4.72,0,0,1,9.41-.86c0,3,.27,12.18,1.2,15.54Zm-23,5.9c1.34,7.83-11.63-9.52-14.24-14.68a4.73,4.73,0,1,1,8.8-3.46c.59,2.61,2.88,16.47,5.44,18.14Zm-20.35,11.82c-1.22,5.28-11.55-14.62-11.74-15a4.73,4.73,0,0,1,9-2.76c.26,1.55,2.38,16.77,2.7,17.79ZM546.57,140c-7.3-2.44-9.38-7-14.4-13.08a4.73,4.73,0,1,1,7.81-5.33c2.8,6.15,5.41,11.72,6.59,18.41Zm-21.66,7.88c-10.47-7.22-5.94-2.92-13.63-12.83a4.73,4.73,0,1,1,8.89-3.22c3.66,9.92,2,4.59,4.74,16.05Zm-45.43,41.5a2.16,2.16,0,0,0,.78-.14c1.35.95.57,7.35-18-10.63a4.73,4.73,0,0,1,7-6.31c2.66,4.15,8.12,14.19,10.14,17.08Zm-12.85,17.83c3.78,1.86,7.74,13.48-23.31-12.2a4.73,4.73,0,0,1,5.62-7.6c.84.92,14,15.67,17.69,19.8Zm-.51,2.54h-.05a1.22,1.22,0,0,1,0-.61,2.29,2.29,0,0,1,0,.61Zm-33.44-4.27c14.1,12.55,7.7,6.09,19.35,19.22-16.55-5.77-8.56-2.14-24-11a4.73,4.73,0,0,1,4.63-8.24Zm-10.42,22.37c2.38,2.09,10.63,9.36,12.05,12.6-2.82,3.4-14.18-3.23-16.84-4.46a4.72,4.72,0,1,1,4.79-8.14ZM413.52,247c5.91,2.84,6.23,2.78,9,8.59-6.36,1.6-4.71.42-10.73.7a4.73,4.73,0,0,1,1.76-9.29Zm524.35,18.1c-4.49,4.2-16.81-15.08-18-17a4.73,4.73,0,0,1,8.53-4.1c2.86,7.49,7.42,15.41,9.52,21.09Zm-15.12-1.61a4.73,4.73,0,0,1,6.57,1.26c1.4,2.49,13.42,26.49,13.86,27l.28-.06c.51.15-1,4.22-22-21.65a4.73,4.73,0,0,1,1.27-6.56Zm12.5,31.4c5.53,7.5,11.9,15.43,15.93,23.81l-.1,0c4.63,8-23.07-17.76-23.07-17.76a4.73,4.73,0,0,1,7.24-6.08Zm-.81,24.28a4.73,4.73,0,0,1,6.17,2.57c9.11,17.13,4.55,8.33,13.68,26.42-16.71-13.37-9.22-5.78-22.43-22.83a4.72,4.72,0,0,1,2.58-6.16ZM931.25,338a4.73,4.73,0,0,1,5.9,3.15c1.85,3.54,22.56,31.3,17.79,32.88-10-9.76-19-18.42-26.85-30.14a4.73,4.73,0,0,1,3.16-5.89Zm-7.57,19a4.7,4.7,0,0,1,6.3,2.21c13.22,22.9,7.62,11.43,17.09,34.22-17-18.12-8.39-8.16-25.6-30.12a4.72,4.72,0,0,1,2.21-6.31Zm-2.14,23.58a4.73,4.73,0,0,1,6.53,1.44c14.47,23.22,8.41,11.19,18.34,36-17.32-19.93-8.54-9.62-26.31-30.94a4.74,4.74,0,0,1,1.44-6.53ZM941.81,440c-9.41-16.14-18.19-23.39-29.49-39.22a4.73,4.73,0,0,1,8.43-4.28c5.59,9.82,24.49,33.13,21.06,43.5Zm-14.11,3.61c-10.83-11.91-5.52-5.71-15.89-18.61a4.73,4.73,0,0,1,8.15-4.8c7.16,14.9,4.57,7.11,7.74,23.41ZM815.49,575a4.72,4.72,0,1,1-6.68-6.68c8.38-7.45,9.81-10,16.46-18.65h0c.53,12.66-2.1,15.21-9.79,25.33Zm-29.28,14.47a4.71,4.71,0,0,1,.58-6.66c13-18.13,6.25-8.93,20.43-27.57-6.88,23.87-2.18,12.22-14.35,34.81a4.73,4.73,0,0,1-6.66-.58ZM768.3,600.2a4.73,4.73,0,0,1-3.41-5.74,137.72,137.72,0,0,1,20.67-29.37c-1,12.19-7,19.69-11.5,31.71a4.73,4.73,0,0,1-5.76,3.4Zm-22.18,6.54a4.71,4.71,0,0,1-1.22-6.57c11.56-17.72,5.67-8.76,17.68-26.87-4.11,22.22-.82,11.48-9.89,32.22a4.72,4.72,0,0,1-6.57,1.22Zm-19.35,6.78a4.72,4.72,0,0,1-1.78-6.45c6.9-9.6,14.15-18.9,21.18-28.52-3.17,19-4.43,16.73-13,33.2a4.72,4.72,0,0,1-6.44,1.77ZM700.52,621a4.72,4.72,0,0,1,.59-6.65c17.8-14.29,15.21-12.41,25.35-32.49h0c-1.33,22.67-3.32,23.44-19.3,39.73a4.72,4.72,0,0,1-6.66-.59Zm-20.07-4c7.75-4.58,11.52-15.2,19.75-22-1.19,11.34-6.8,23.27-15.69,30.53a4.73,4.73,0,1,1-4.06-8.54Zm-24.33,5.47a4.73,4.73,0,0,1,4.16-5.24c4.28.11,16.88-14,20.24-17-1.6,10.41-8.12,23.22-19.17,26.36a4.72,4.72,0,0,1-5.23-4.15Zm-8.6,2.35a4.73,4.73,0,0,1-6.24-7.1c14.08-12.24,6.89-6.68,21.5-16.8-8.22,16.27-3.26,8.23-15.26,23.9Zm309.87-133.2h0c-.51-3.36-.91-6-1.24-8.09,1.57-2.51,3.05-4.92,4.51-7.34.8,2.47,1.47,4.45,1.92,5.76-1.66,2.94-3.39,6.14-5.19,9.67ZM955.45,479h0c-.7-4.56-.82-5.64-1.36-10.92l2.65-4.17c.88,2.86,1.76,5.61,2.57,8.14-1.24,2.18-2.53,4.48-3.86,6.95Zm29.36,178.33h0c0,.59-1.33.58-3.49.14-3.4-16.92-8.45-41.39-9.44-46.35a33.87,33.87,0,0,0,.59-6.74,33.21,33.21,0,0,0,.82-9.16c4,15,7.68,30.12,10.27,43.35,1.1,7.56,1.61,14,1.25,18.76ZM894,635.92h0l1,.43-1-.43Zm-10.08-4.33h0l-.06-.13,5.77,2.55,0,.06-5.74-2.48ZM723.82,663h0c1.95-4.23,4-9.6,5.9-14.62-.32,3.38-.68,6.82-1,10.57-.08,1.08-.1,2-.14,2.95-1.59.38-3.19.75-4.78,1.1Zm-239-508.64h0C487.32,156,498,165.67,500,163.62c.29-5.07-7.06-13.92-9.79-17a4.68,4.68,0,0,0-4.81-.26c63.48-51.21,145.85-84.18,226.85-81.29a249.89,249.89,0,0,1,97,27.55,5.25,5.25,0,0,0,2.92,3.24q15.41,8,29.66,17c37,26.92,67.28,63.36,88.65,104.53a544,544,0,0,1,29.65,84.89,280.61,280.61,0,0,1,3.6,84.16s0,.07,0,.12v0c-.6,5.29-1.38,10.55-2.3,15.79l-.18,0a4.73,4.73,0,0,0-2.84,6.06l1.4,2.7c-.33,1.62-.78,3.21-1.16,4.81-.12,0-.23-.06-.35-.06a4.74,4.74,0,0,0-4.43,5c.23.8,1,3,2,6-.78,2.8-1.64,5.59-2.53,8.37a4.64,4.64,0,0,0-2.88,3,32.86,32.86,0,0,0,.53,3.86c-1.05,3-2.09,5.94-3.25,8.88a4.7,4.7,0,0,0-4.36,4.83c.27,1.14.54,2.23.82,3.31-.9,2-1.75,4-2.7,6a6,6,0,0,0-.84-.07,4.68,4.68,0,0,0-4.09,4.54l-2.64-6.85c.85,3.17,1.9,6.95,3.09,11.18-.52,1-1,1.95-1.5,2.91-1-2.66-1.87-4.85-2.44-6.33.57,2.12,1.23,4.54,2,7.16-2.17,3.91-4.44,7.79-6.85,11.63-1.07,1.69-2.12,3.84-3,5.61h0c2.46-3.47,1.27-1.71,3.59-5.28l6.69-10.51c1,3.58,2.12,7.55,3.34,11.82-.86,1.49-1.7,3.13-2.45,4.58h0c2-2.84,1.61-2.22,2.66-3.85,9.54,33.6,24.18,84.86,25.65,110.67-9.73.73-104-39.38-111.58-43.2a5.31,5.31,0,0,0-6.76,8,5.21,5.21,0,0,0-2.06,5.09l-13.72,7.22a4.66,4.66,0,0,0-4.54-3.81,4.73,4.73,0,0,0-4.73,4.73c.17.43.66,1.57,1.4,3.24C808.38,591.28,797,597.33,787,602.25a5,5,0,0,0-1.16-.22,4.71,4.71,0,0,0-4.23,2.85c-34,16.27-52.82,19.17-121.25,26.57-82.72,9-104.58-12.34-177.11-51.61,40.38,26.44,88.61,59.44,138.69,60.36a502.05,502.05,0,0,0,62-2.36c-1.21,1.88-2.57,4-4,6.37a278.73,278.73,0,0,1-44.81,2.14c-31.89-2.4-64.57-10.65-98.49-26.54C388.32,550.39,322,347.73,422,212a356.8,356.8,0,0,1,61.92-64.45c-.09.11-.22.17-.29.28a4.73,4.73,0,0,0,1.21,6.58Zm468,301.21h0a4.58,4.58,0,0,0-1.27-3c.41-.9.81-1.78,1.2-2.68.79,3.05,1.73,6.34,2.71,9.65-.6,1.37-1.16,2.75-1.8,4.12-.22-2.17-.49-4.79-.84-8.12ZM959.5,441h0a4.68,4.68,0,0,0-1.34-4.75c.15-.42.31-.82.46-1.24,1,2.81,2,5.81,3.11,8.89-.6,1.67-1.19,3.33-1.83,5-.28-3.47-.43-6.33-.4-7.89Zm25.9-57.49h0c-.79-2.47-1.58-4.94-2.33-7.39-.52-2.31-1.07-4.49-1.64-6.59.2-6.13.15-12.3-.1-18.49,1.6,8.75,3,17.72,4.31,26.6-.08,2-.13,3.91-.24,5.87Zm-5.6,24.77h0c-.48-1.51-1-3-1.71-5.42.14-.78.29-1.56.43-2.33.47,2.64.9,5.25,1.28,7.75Zm-6.65-21.19h0a4.69,4.69,0,0,0-.63-2.63c.08-3.83.1-7.87.12-12,.26.86.54,1.73.83,2.62.59,2.81,1.21,5.77,1.83,8.79-.24,2.4-.6,4.79-.91,7.19-.38-1.24-.79-2.54-1.24-4ZM976.62,356h0c-1.18-2.17-2.4-3.55-3.59-3.88.34-7.37,1-14.09,2.46-19.22.67,7.69,1.09,15.4,1.14,23.1Zm-2.48-35.37h0c-6.65-25.64-13.85-49.11-22.73-71.48,9.56,21.2,17.3,43,21.76,64.23.37,2.41.66,4.83,1,7.25Zm-70.2-158.42h0c.34.35.7.7,1,1,0,.11-.07.21-.1.32l-.95-1.36Zm-1-1h0l1.7,3.25a4.63,4.63,0,0,0,1,3.33c1.14,1.71,2.3,3.48,3.45,5.24,2.15,4.18,4.21,8.25,6.21,12.25a325.43,325.43,0,0,0-35.13-44.79q12,9.91,22.78,20.72ZM971.1,331.79h0c-.48,3-.94,6.64-1.35,11q-.39-5.86-1-11.73a4.57,4.57,0,0,0,2.37.7Zm-7.81,88.55h0a3.29,3.29,0,0,0-.12-.5c.12-.49.23-1,.36-1.49,1.84,3.6,3,5.94,4,7.68-.46,1.67-1,3.32-1.5,5-.94-3.15-1.86-6.61-2.69-10.66Zm4-15.11h0a4.5,4.5,0,0,0-.69-1.14c.32-1.76.66-3.51.94-5.28.4,1.25.8,2.56,1.2,3.74,0,3.79,0,6.28,0,6.59a10,10,0,0,0,1.33-2.54c.41,1.21.8,2.35,1.2,3.49q-.39,1.86-.81,3.72c-.88-2.33-1.92-5.13-3.19-8.58Zm7.33,14h0c1.74,4.54,3.29,8.16,4.68,11-.54,2.06-1.1,4-1.7,5.87-1.88-7.77-2.19-9.17-3.8-13.51.31-1.11.53-2.25.82-3.37Zm10.86-71.63h0a166.63,166.63,0,0,0-5.3-19.86c-1.78-21.91-8.48-46-17.69-69.78a349.94,349.94,0,0,0-24.3-52.79q-2.24-4.25-4.5-8.36a291.36,291.36,0,0,1,17.48,26.64c20,37.05,31.93,78.65,34.31,124.15ZM965,652.41h0c-.78-10.08-2-25-2.65-33.64a17.88,17.88,0,0,0,2.09,0c3.3,10.08,9.1,25.93,13.56,37.92-3.37-.93-7.82-2.41-13-4.25ZM950.34,647h0c-.45-9.64-1.7-22.07-2.75-30.84,2,.54,4,1,5.8,1.4,1.48,6.32,5.13,21.75,8.21,33.66-3.53-1.28-7.3-2.7-11.26-4.22Zm-14.78-5.79h0c-.06-12.67,0-9.89-.78-28.89,1.1.37,2.19.72,3.26,1.06.86,4.76,3.57,19.43,6.32,31.31-2.88-1.13-5.83-2.29-8.8-3.48Zm-12.52-5h0c-1.21-15.62-.87-11.83-2.68-28.88q2.71,1,5.38,1.94c.92,7.12,2.54,19.2,4.28,29.77l-7-2.83Zm-33.22-13.87h0c-3.47-13.17-2.47-9.38-8.1-30.47l3.27,1.38c1.57,5.82,5.28,18.73,9,30.85l-4.14-1.76Zm-31.49-37.08h0a5.68,5.68,0,0,0-.94.36l-.36.2c-.45-1-.88-2-1.38-3.11a5.25,5.25,0,0,0-6-2.83c.74-.42,1.46-.79,2.21-1.21,1.26.59,2.74,1.26,4.34,2,.47,1,1.2,2.62,2.13,4.61Zm-68.58,57.07h0c-.6-4.29-1.46-8.81-2.3-12.8l1-.4c1.5,4,3.06,8.06,4.58,11.88-1.1.45-2.21.88-3.31,1.32Zm-69.19,13h0c0-1.73-.1-3.46-.16-5.15.75-.17,1.52-.31,2.27-.48-.5,1.31-1,2.66-1.55,4.1l-.56,1.53Zm-25.47-.73h0l3.11-.44c-1.08,2-2.2,4.05-3.4,6.34.12-1.91.22-3.9.29-5.9ZM525,629.54h0a301,301,0,0,0,61.62,20.82A147.58,147.58,0,0,0,600.32,656C570.67,650,550.73,643.13,525,629.54Zm370.3-29.06h0a273.78,273.78,0,0,0,7.05,27.07l-2.91-1.22c-1.41-8.82-3-18.63-4.14-25.85Zm-.51-3.25h0l.18.07a4.2,4.2,0,0,0-.11.45c0-.18-.05-.35-.07-.52Zm-47.87-16h0a5.28,5.28,0,0,0-1.37,4l-.22.1c-.07-.25-.14-.47-.21-.73a4.75,4.75,0,0,0-.72-2l2.52-1.36ZM836.29,587h0c.37.88.72,1.72,1.05,2.53l-2.51,1.27c-.35-.88-.69-1.72-1-2.51.83-.43,1.64-.84,2.47-1.29Zm-8.79,7.48h0c-2.18,1.09-4.36,2.15-6.54,3.22-.07-.21-.13-.36-.14-.42a4.79,4.79,0,0,0-.62-2q3.09-1.54,6.22-3.15l1.08,2.33ZM805.69,604.9h0v0l-3.15,1.44c-.36-.84-.67-1.54-.91-2.13l4.05-1.89a4.61,4.61,0,0,0,0,2.55Zm-12.57,3.21h0c.34.67.68,1.36,1,2l-2.73,1.18c-.13-.78-.26-1.55-.4-2.32l2.1-.9Zm-18.89,10.4h0l-4,1.6c-.59-1.2-1.37-1-2.61,1Q760,624,752.36,626.66c-.1-1-.2-2-.29-2.91,7.45-2.36,14.88-5,22.35-7.89-.07.87-.13,1.72-.19,2.65Zm-27,9.9h0l-.86.28-.26-.59-.1.7q-4.74,1.56-9.48,3a18.13,18.13,0,0,0-.52-3.41q7.35-1.95,14.6-4.2l-3.38,4.21Zm-18,5.56h0q-5.16,1.46-10.32,2.75a7.22,7.22,0,0,0-2.07-3.84c5-1,9.92-2.14,14.79-3.34a47.58,47.58,0,0,0-2.4,4.43Zm-22.1,5.5h0c-4,.88-8.06,1.66-12.1,2.39-.1-1.93-.27-3.71-.5-5.31q9-1.2,17.67-2.8a29.71,29.71,0,0,0-5.07,5.72Zm-16.82,3.22h0c-1.22.2-2.45.36-3.66.55,1.06-1.61,2.13-3.21,3.28-5a33.24,33.24,0,0,1,.38,4.41Zm-18.3,14h0c-2.91,4.65-5.63,9-7.53,12.07a114.62,114.62,0,0,0-4.19-11.64q5.88-.09,11.72-.43Zm64.33-10.47h0c1.9-.5,3.82-1,5.72-1.51-1.31,3.27-3.32,7.68-6.35,13.71.17-3.84.42-8.09.63-12.2Zm23.5-6.89h0c-1.42,3.73-3,8-4.87,13-.4-3.48-.81-7.31-1.2-11.11,2-.63,4.05-1.28,6.07-1.93ZM773,634.88h0v.18l0-.16,0,0Zm7.81,6.2h0c.13.54.26,1.09.38,1.61.06.95.14,1.88.25,2.8l-1.59.6c.34-1.61.66-3.29,1-5Zm128-10.81h0c-1.12-9.15-3.1-20.75-4.24-29.08,2.16.86,4.3,1.71,6.45,2.54,1.47,7.28,4.08,19.85,6.65,30.2l-8.86-3.66ZM394.44,487.08h0q1.43,3.94,2.92,7.82c-.88-1.68-1.68-3.39-2.53-5.08q-2.9-7.21-5.64-14.65c1.67,4,3.4,8,5.25,11.91Zm18.69,34.23h0c.18.28.36.55.53.83-.12-.19-.25-.36-.38-.54l-.15-.29Zm65.56,81.41h0c17.35,13.66,32.05,24.13,45.89,32.41a263.06,263.06,0,0,1-56.86-40.7c3.58,2.86,7.25,5.61,11,8.29Zm176.56,62.34h0c-10.86-1.61-20.62-3.09-29.53-4.55a46.58,46.58,0,0,0,17-3.31c.32-.13.59-.21.89-.32q6.84.3,13.64.27c3,3,3.11,8.64,3,13.18h-.39a3.23,3.23,0,0,0,.11-.54,4.72,4.72,0,0,0-4.72-4.73Zm22.65-8.77h0c3.85-.29,7.68-.65,11.52-1.09-.56,5.27-.75,9.87,1.78,13.3-7.67.87-15.38,1.46-23.14,1.71,2.45-3.24,5.64-7.74,9.84-13.92Zm29.37-3.7h0c2.37-.4,4.72-.83,7.08-1.29a104.68,104.68,0,0,0,.89,13.52q-8.84,1.71-17.73,2.91c3-4.89,6.29-10.16,9.76-15.14Zm59.51-10h0c.38,2.75.82,5.47,1.3,7.78L763.3,652c1.25-3.2,2.44-6.43,3.48-9.41ZM747,666.89h0c.14.57.3,1.09.45,1.57q-4.61,1.34-9.23,2.53a23.89,23.89,0,0,0,1.85-2.29c2.31-.58,4.63-1.18,6.93-1.81Zm11.17-3.21h0q7.05-2.16,14.09-4.57c1.3.9,2.49.32,3.57-1.21,2.82-1,5.63-2,8.45-3a6.63,6.63,0,0,0,.81.86c-9.29,3.58-18.59,6.87-27.9,9.8.33-.58.65-1.21,1-1.84Zm32.27-11.14h0c2.12-.8,4.25-1.63,6.37-2.47l.35.81c-2.27.94-4.55,1.85-6.83,2.76,0-.36.09-.71.11-1.1Zm8.47-2.39h0c-.07-.28-.13-.55-.19-.83q6.27-2.52,12.53-5.2c.1.19.19.38.3.58q-6.31,2.81-12.64,5.45Zm-2.35-10.68h0c-.86-4.2-1.67-8.45-2.43-12.68,2.31-.93,4.63-1.9,7-2.87,1.89,3.74,3.76,7.48,5.65,11.21q-5.09,2.24-10.17,4.34Zm12-18.76h0l2.87-1.24a102.78,102.78,0,0,0,4.84,11.42c-1.07.47-2.13,1-3.2,1.44-1.42-3.88-3-7.86-4.51-11.62Zm10.11-4.49h0l.28-.12c1.77,3.82,3.55,7.46,5.33,11.09L822,628.25c-.82-3.15-1.51-5.53-3.33-12Zm7.62-3.5h0c2.69-1.26,5.38-2.52,8.08-3.81,1.78,3.66,3.63,7.32,5.43,10.78q-4.81,2.38-9.63,4.68c-1.26-4-2.61-8-3.88-11.65Zm14.55-7h0l2.57-1.25a58.2,58.2,0,0,0,5.5,10.59L845.26,617c-1.42-3.66-2.93-7.47-4.41-11.2Zm9.07-4.5h0l3.91-1.95a96.82,96.82,0,0,0,6.94,9.69c-2.61,1.36-5.21,2.72-7.81,4.06-1.26-5.55-1.57-6.77-3-11.8ZM870.63,614h0a5.33,5.33,0,0,0-.6-4.28,5.23,5.23,0,0,0-4.7-2.38c-1.56-6.22-1.79-7-4-11.84l1.43-.74c2.9,6.1,6.33,13.22,9.7,19.92l-.16-.08a5.27,5.27,0,0,0-1.72-.6Zm-3.1-28.32h0l3.71,1.63a4.2,4.2,0,0,0-.11.71s6.14,16.85,12.09,31.44l-5.07-2.21c-3.76-10.4-7.81-22.82-10.62-31.57Zm57.1,63.07h0c2.59,1,5.19,2,7.78,3,0,0,0,.09,0,.14l-7.8-3.16v0Zm11.7,4.53h0c3.89,1.47,7.74,2.87,11.47,4.18l.23.65c-3.81-1.48-7.72-3-11.68-4.61a.78.78,0,0,0,0-.22Zm14.72,5.32h0v0c4.45,1.51,8.7,2.87,12.66,4-.05.16-.1.3-.18.53a1.27,1.27,0,0,1,.43-.46l.86.25c.2.66.39,1.24.56,1.73-4.41-1.59-9.29-3.42-14.44-5.4,0-.22.08-.39.11-.64Zm15.3,4.74h0a81.93,81.93,0,0,0,15.26,3c.58,1.56,1.09,2.9,1.49,4A155.9,155.9,0,0,1,966.49,665c0-.46-.07-1-.14-1.71Zm-26-173.65h0l.73-1.16c1.17,4.1,2.39,8.43,3.64,12.9-1.54-4.2-3-8.15-4.37-11.74Zm-.31-.8h0c-1.51-4-2.88-7.56-4-10.54l1.51-2.37c1,3.59,2.12,7.49,3.29,11.6-.27.43-.5.87-.77,1.31Zm-.55-11.46h0c1.39,3.27,2.33,5.52,3,7.2l-.2.34c-1-2.67-2-5.21-2.85-7.54Zm6.39-8.07h0a4.66,4.66,0,0,0-2-3.29l1.49-2.34c1.06,3.95,2.11,7.4,3.11,10.42-.27.5-.51,1-.78,1.52-.5-1.77-1.09-3.8-1.78-6.31Zm3.18,6.64h0c1.23,3.54,2.38,6.43,3.44,8.75-.51,1-1,2-1.54,3.09-.55-2.68-1.07-4.43-2.8-10.42l.9-1.42Zm11.62-18.23h0v0c1.19-2.42,2.24-4.9,3.31-7.37,1.06,3,2.09,5.84,3.07,8.53-1.68,2.89-3.47,5.86-5.36,9.07-.34-3.3-.7-6.81-1-10.2Zm7.85-18.7h0c.83-2.3,1.66-4.61,2.41-6.94,1.14,1.85,2.71,4.31,5.2,8.26a99.67,99.67,0,0,1-4.41,10,109.55,109.55,0,0,0-3.2-11.34Zm9.39,4.15h0l2.33,3.71c-.55-2.19-1-4.05-1.44-5.77.94-2.27,1.8-4.55,2.62-6.83a18.16,18.16,0,0,0,2.42,3.27,101,101,0,0,1-10.67,26.18,71.6,71.6,0,0,0-.69-8.87c2-3.94,3.78-7.82,5.43-11.69Zm10.33-33.68h0c.06-.33.14-.65.2-1a.83.83,0,0,0,.08.12c-.07.62-.12,1.28-.18,1.88,0-.34-.06-.69-.1-1ZM410.79,211.37h0c19.59-26.61,44.06-51.11,71.76-72.22a364.49,364.49,0,0,0-66.78,68.15C359,283.79,353.51,381,385.24,465.26c1,3.72,2.09,7.43,3.21,11.08-37.59-84.76-35.71-186.13,22.34-265ZM542.52,654.56h0c-51.9-24-87.23-56.83-113.61-97.46.48.56,1,1.11,1.47,1.67,25.61,37.6,60.26,68.25,107.84,91,67.28,32.23,130,35.09,191.31,21.42a6.73,6.73,0,0,0,.86,1.7c-60,14.25-121.48,12.34-187.87-18.36Zm273.94-12h0c-.05-.19-.11-.37-.17-.57,1.67-.71,3.34-1.46,5-2.2.09.15.16.29.25.43-1.7.79-3.39,1.58-5.08,2.34Zm8.11-4.24h0l4.15-1.87c.06.11.11.22.16.33l-4.19,2-.12-.46Zm8.69-3.63h0a1.81,1.81,0,0,0-.09-.31c3.88-1.81,7.76-3.64,11.63-5.52l.08.13q-5.82,2.89-11.62,5.7ZM849,626.78h0c1.78-.87,3.57-1.77,5.36-2.66h0l-5.33,2.7,0-.05Zm22.11,0h0a6.9,6.9,0,0,0,.43-.86c2.41,1.11,5.48,2.51,9.1,4.14l.1.16c-3.08-1.36-5.27-2.35-6.18-2.81a5.21,5.21,0,0,0-3.45-.63ZM987,670.19h0c0,.55-1.2.57-3.18.19-.21-1.13-.47-2.47-.77-4a12.85,12.85,0,0,0,4-.45c0,1.54,0,3-.1,4.29ZM946.75,496.83h0c-1.41-3.85-2.76-7.5-4-10.91l.25-.38a60.39,60.39,0,0,0,4.86,8.91l-1.07,2.38Zm6.43,3.39h0c-.82-4.54-1.3-7.42-1.68-9.5.76-1.16,1.48-2.31,2.22-3.45a32.65,32.65,0,0,0,2.81,4.71,2.76,2.76,0,0,0-.45,1,1.63,1.63,0,0,1,.57-.3l.16.08q-1.77,3.51-3.63,7.5ZM963.1,481h0c-.19-1.81-.47-4.44-.81-7.55,2.21-3.7,4.23-7.29,6.16-10.83.78,2.12,1.51,4.06,2.12,5.65C968.27,472.16,965.78,476.27,963.1,481Z" transform="translate(-354.76 -58)"/></svg>