<svg id="Layer_1" data-name="Layer 1" xmlns="http://www.w3.org/2000/svg" viewBox="0 0 510.65 603.16"><defs><style>.cls-1{fill:#231f20;fill-rule:evenodd;}</style></defs><title>quote2</title><path class="cls-1" d="M482.13,361.21c-34.29-1.68-40.53-21.34-29.34-53.61a4,4,0,1,0-7.57-2.84c-15.51,53.36,25.08,66.83,36.1,57.4l-.09.06c.68-.57.38-.23.9-1ZM625.41,477.86c3-2.35,3.63-6.81,4.29-10.23l0,0c-1,1.3-4.76,6.91-6.11,7.65-21.13,11.69-29.13,12.9-50.11,3.25a4,4,0,0,0-3.22,7.42c22,8.43,35.77,7.17,55.19-8.07ZM533,429.43a12.08,12.08,0,0,0-.62-1.84c-2.46-1-1.22-1-3.68,0C525.23,436,520.15,440.08,515,441a36.24,36.24,0,0,1-12.84-4.23,23.21,23.21,0,0,1-6.57-10.84,4,4,0,1,0-8,.87c7.26,24.09,29.29,24.61,39.87,14.87,4.27-2.46,6.92-6.52,5.75-11.75a3.59,3.59,0,0,0,0-.47Zm380-44.5a4,4,0,1,0-6.89,4.21c5.94,5.34,2.7,3.3,9.62,6.32-.87-7.28,0-3.76-2.73-10.53Zm-11.18,5.87a4.05,4.05,0,0,1,5.65.85c.75,1.53,6.1,12.22,6,13.58-.24.1-.62.15-.56.51.17.06.49-.13.62-.17,1.35.52.61,5.88-12.52-9.11a4,4,0,0,1,.85-5.66Zm-4.59,8.3a4,4,0,0,0-1.16,5.6c7.65,8.45,3.27,4.76,13.21,11-3.82-10.63-1.66-5.49-6.46-15.42a4,4,0,0,0-5.59-1.16Zm-6.15,7.44a4,4,0,0,0-.21,5.71c8.55,7.88,4,4.3,13.61,10.74l0,0c-3.74-11.08-1.24-5.63-7.73-16.22a4,4,0,0,0-5.71-.2Zm-3.81,14.15a4,4,0,1,1,6.38-5c.48.8,5.8,11.19,5.8,11.19,1.08.27-.53,3.75-12.18-6.22Zm-76.78,90.38a4,4,0,0,0,5.63-1c2.31-11.9,2-6.06,1.2-17.5-6.2,8.56-3.69,4.23-7.79,12.82a4,4,0,0,0,1,5.64Zm-9.2-5.47h0c2.12-2.82,4.8-10,7.26-9.74.22-.53.31-.41.76-.29.26.35.12.25.34.37a.36.36,0,0,0,.12-.08c.75,2-.71,13.41-4.24,16.62a4,4,0,0,1-5.56-1.32,4,4,0,0,1,.75-5c0-.15.08-.07.56-.52Zm-.56.52s0,.07,0,.15a5.83,5.83,0,0,0,.58-.67,4,4,0,0,0-.56.52ZM789.22,505a4,4,0,1,0,6.6,4.67c5.66-11.42,3.42-5.58,6.81-17.49-9.66,7.71-5.19,3.44-13.41,12.82Zm-10.83,1.71a4.05,4.05,0,0,1-1-5.64c9.74-8.62,4.82-5,14.53-11.14-3.86,10.87-1.29,5.57-7.93,15.82a4.05,4.05,0,0,1-5.64,1ZM912.46,354.94c19.19,16.07,38.13,69.5-8.79,95.44,18.61,42.68-28.76,89.51-77,77.12C807,540,785.87,537.29,764.06,523c-11.27,7.65-27.72,17.05-38.93,25.34,42.29,14,60.34,15.84,55.77,22.11a14.24,14.24,0,0,1,1.17,1.54,14,14,0,0,0,1.19-1.48,3.41,3.41,0,0,1-.34,3.22,10,10,0,0,1,.45,2C746.1,604.33,713.52,620,674.44,644.94c-45.3,28.93-33.38,41.42-57.83,32.27a4,4,0,0,1,.09-7.54c3.38-8.22,22.26-34.23,52.21-83.89a25.11,25.11,0,0,0,.77-2.71c-1.45.15-2.9.23-4.34.34-19.05,2.76-76.15,7.32-84.09-8.65a4,4,0,0,1,2.36-5.21,3.84,3.84,0,0,1,1-.17c2.18-10.51,31.28-42.37,47.35-64.82-9.5,6.82-21.36,13.28-26,14.37-35.44,8.39-49.64-5.57-55.65-22.6A51.39,51.39,0,0,1,546,486.26a3.94,3.94,0,0,1,.71-3.16,87.53,87.53,0,0,1-4.83-18.49c-.08-1-.15-1.92-.21-2.85-1.7,1.88-3.35,3.63-5,5.2-1.63,3.68-3.17,5.52-4,3.32-5.66,4.05-12.41,6-23.34,4.32l-.56-.11c-9.31,1.78-19.81-1.59-28.08-11-9.23-7.3-13.27-17.15-14.55-27.81-5.76-17.23-1.91-35.21,4.83-54-64.38-7.48-58.3-80.69-19.54-102.27a4,4,0,0,1,3.05,7.49c-.56.31-1.1.66-1.65,1a4.37,4.37,0,0,1,.77.59,4,4,0,0,1-.39,5.71c-29,30.73-23.32,66.13,19.37,75.47l4.31.8a3.94,3.94,0,0,1,2.56,0,4,4,0,0,1,2.41,5.18c-2,4.7-3.94,9.28-5.63,13.77-1.21,6.66-3.16,15.07-4.23,24a4,4,0,0,1,6.89,2.86c.49,20.74,11.4,46.65,38.82,37.3,8.77-3,17.38-14.06,23.88-20.37,2.18-8.45,8.12,12.31,5.91,20.05.77,2.86,1.38,8.71,2.18,19a4,4,0,0,1,3.87-2.78,4,4,0,0,1,4,4.13c1.71,32.81,47.09,37.37,76.88,9.83a4,4,0,0,1,7.33-3.2c2.51,8.43,2.8,8.64,3.19,11.3.13-.21.28-.39.4-.61a7,7,0,0,1-.35,1l0,.26a4,4,0,0,1,1.48,4.87c-.23.4-.45.76-.67,1.15.06.43.11.84.18,1.32-.21-.23-.39-.42-.58-.64-18.89,32.54-30.61,41.24-52.3,69,22.15,5.4,92.68-2.78,89.46,7.72-3.87,12.64-36.57,56-53.34,82.73,33.86-23.88,118.34-70.95,144.49-85.36a17.1,17.1,0,0,0,3.63-2.32c-8.53-11.79-44.34-14.07-57.36-20a4,4,0,0,1-2-1.07c-3.93-2.45-4.07-5.54,2.5-10s13.66-9.72,20.74-14.81a174,174,0,0,1,20.2-13.81c1.32-.83,2.62-1.6,3.92-2.36-.37-.39-.75-.73-1.12-1.13a4,4,0,0,1,6.44-4.88c19.07,22.58,50.19,17.31,68.57-4.14a4,4,0,0,1-3.38-.42,3.78,3.78,0,0,1-.4-.4c-.25.79-.59,1.84-1,3.43a4,4,0,0,1-5.6,1.17,4,4,0,0,1-1.74-3.09c-.65,1.35-1.75,3.34-3.69,7.54a4,4,0,1,1-3-7.53c3.36-6.85,1-3.19,7.79-10.41-.21,4.33-.17,6.26-.29,7.58,4.18-4.58,1.88-2.56,7.59-6.46,0,.59.1,1.09.15,1.55,2-2.05,1-1.09,5.33-3.66,1.54,5.26,1.51,3.33.72,7.51.51-.68,1.05-1.32,1.53-2,2,4.15-7,16.08-20.85,23.7,1.06.09,2.12.18,3.19.23l3.76-1.62h0c-.65.59-1.26,1.1-1.89,1.66,16.16.43,33.19-3.54,46.14-11.36,8.48-7.5,13.88-20,20.65-42.75a55.85,55.85,0,0,0-5.42-14.29c-1.45-.41-1.69-1.31-1.24-2.31l-.28-.38c-2-1.75-4-3.47-6.13-5.16-1.87,2.38-3.49,2.73-3.42-3.34,0-2.12,1.08-2.41,2.68-1.58l-.4-.61a4,4,0,0,1,2-5.1,6.49,6.49,0,0,1,1.17-2.43c3.82-3.69,10.69,3,15.5,10q2.12-1.56,4-3.09c14.2-16.27,31.64-32.28,16.89-55.91-5.45-8.15-13.22-14.82-18.79-19.95a4,4,0,0,1-4.49-2.28c-34.8-30.86-1.92-36.8,6.78-16.07,19-21.41,18.16-49.36,2.22-72.9-10.23-9.9-24.16-21-36.23-24a41.55,41.55,0,0,1-14,12.31c-6.49,5.09-12.08,7.37-9.82-2.63l0-.21c-3.28,2.09-5.53,1.73-5.24-3.53.16-2.91,4.33-6.56,8.15-10,.37-.82.77-1.61,1.19-2.39-.19,0-.38,0-.64.05h0c.46-.44.89-.87,1.35-1.3,2-3.41,4.34-6.11,6.56-7,9.67-11.57,13.65-23.52,13.17-40.42-.5-17.8-48-51.13-62.77-39.17a4,4,0,0,1-4,2.63,4,4,0,0,1-3.41-2.44v.12a.86.86,0,0,1,0,.42l-.55.1c-.51-.87-1-4.5-1-5C790.58,87.7,706.5,89,702.55,97.69a4,4,0,0,1-2.89,2.47c4.74,6.37-1.22,2.64-6.3-1,1.69,1.91,2.45,3.26,8.19,11.19l-3-1.63a2.67,2.67,0,0,1,0,2.05c-1.08.29-1,.49-1.66.2-2.69-1.14-4.94-2-6.89-2.82a32.26,32.26,0,0,1,7.29,10.62q1.59,1.9,3.13,3.93a22.69,22.69,0,0,1-2.1-1c.2.66.43,1.31.58,2-.38-.85-.82-1.65-1.26-2.46-.19-.14-.37-.28-.61-.48-39.46-33.18-77.38-38.35-107.15,8a4,4,0,0,1-7-4c-3.09-2-8.75-8.7-29.82-8.29-10.77.21-19.21,1.6-25.89,3.78a4,4,0,0,1,.51.64,4,4,0,0,1,.34,2.29c14.5-7.57,33.64-7,51.08,6.84l-4.08-1.23c-38.43-14.15-70.36,6.59-61.77,40.78a4,4,0,0,1-7.55,2.89,49.07,49.07,0,0,1-1-8.1c-3.09-7.58-2.34-22,6-34-16.61,18.89.79,50.23-14,49.6a20.84,20.84,0,0,1,2.13,1.16c-6.29-1.75-13.45-1.59-20.66.06a4,4,0,0,1-2.93,6.79c-18.1,1.5-30.25,13.38-35.76,27.76-1,14.49,4.82,31.08,17.44,45.51a4,4,0,0,1,0,5.71,4,4,0,0,1-2,1,36.84,36.84,0,0,0,10.75,3.56,22.59,22.59,0,0,1-8.14.14,4,4,0,0,1-5.94,4.88c-28.64-25.07-29.36-49.79-18.53-68.28,5-23.84,26.93-40.8,63.48-34.9a4.09,4.09,0,0,0,.65.08c1-6.39-16.52-61.91,55.82-62.21,38.91-.16,23.17,21.55,36.73-2,5.62-9.76,19.44-15.67,35.44-17.61,14.55-4.17,29.7-2.59,43.87,4.37a67.72,67.72,0,0,1,10.45,4.61,18.49,18.49,0,0,1-.54-4.22c-.74.27-1.48.53-2.21.81a4,4,0,1,1-2.93-7.54c41.92-15.32,96.31-23.58,127.53,17,7.94,10.33,11.93,19.68,9.51,30.66C846,125.87,886,178.16,880.29,203.47c-3.08,13.64-13.22,24.8-16,32.2,1,.15,2,.38,3,.57,24.5-10.43,90.65,63.55,45.09,118.7ZM444.74,258.41a82.19,82.19,0,0,1-7.14-13.05,41.78,41.78,0,0,0,2,5.77,61,61,0,0,0,5.15,7.28ZM888,335.34a4.32,4.32,0,0,1,1.26.24c-.21-.2-.42-.37-.61-.52a3.53,3.53,0,0,0-.65.28ZM633.83,486.83a4.1,4.1,0,0,1,1.91-.81l-.66-1.11c-1,1.17-1.94,2.3-3,3.37.58-.49,1.16-1,1.7-1.45Zm-27.9,18.37h0c-9.66,4.3-19.86,6.5-29,3.84h0c-.17.39-.1.61.26.94.12.12.29.19.42.3a33.16,33.16,0,0,1-20.78-18.08c10.33,13.27,29.83,19.06,49.15,13Zm-54.79-23.55a36.93,36.93,0,0,1-1-3.85q.13,1.77.27,3.69a4,4,0,0,1,.78.16Zm-10.31-41.09a35.7,35.7,0,0,1,.71-7.22,65.76,65.76,0,0,1-6,10.25c1-1.19,1.51-1.95,1.52-1.95a7.17,7.17,0,0,1,1,.5,13.23,13.23,0,0,1,1.12-1.13l.41.38h.75c.17-.29.35-.56.53-.83Zm-30.39,28.76a23.93,23.93,0,0,0,3.42-1.44,30.89,30.89,0,0,1-9.65.16c1.88.47,3.88.9,6,1.25l.25,0Zm8.92-11.54c-6.4,2.69-12.16,3.53-17.29,3,6.76,2.27,13.63-.23,19.47-4.1-.73.39-1.44.82-2.18,1.13Zm-38.08-10.14h0a4,4,0,0,0-.19,3.49,36,36,0,0,0,13.15,13.49,46.49,46.49,0,0,1-5.49-2.92,34.83,34.83,0,0,1-3.7-3.63c-1.31-1.5-2.49-3-3.61-4.47-.36-.69-.74-1.32-1.08-2.05A3.19,3.19,0,0,0,478.9,450a57.82,57.82,0,0,1-6.59-13,65.65,65.65,0,0,1-1-15.76c1.31,9.29,4.63,18.92,10,26.37ZM429.94,330.33h0c-.39,23.53,15.92,42.43,45.64,40.83a4,4,0,0,0-1.32,1.72l-.86,2.24c-32.18-3.54-44.13-24-43.46-44.79Zm89.61,139.25a27.39,27.39,0,0,0,12.54-4.72c0-.43,0-.79,0-1.25l-.3.19c.12-.41.23-.82.33-1.22,0-1.06.08-2.22.16-3.51a38,38,0,0,1-7.39,5,27.18,27.18,0,0,1-5.32,5.48Zm20.51-12.66c0,.2-.11.39-.17.58l.27-.32c0-.09-.07-.17-.1-.26Zm5.33,6.24c-.25.61-.53,1-.83,1.07a91.62,91.62,0,0,0,1.65,10.66c-.39-4.4-.58-8.44-.82-11.73Zm82,41.72h0a63.2,63.2,0,0,1-33.58,12.72,63.68,63.68,0,0,0,33.78-15.33c2.47-2.12,5-2.62,6.24-5.63,1.93-1.25,3.7-2.47,5.16-3.59a3.92,3.92,0,0,0,.55-.67,3.59,3.59,0,0,0,.25.33,3.8,3.8,0,0,0-.77,1.11c-1.08,1.91-2.4,4-3.88,6.19a68.77,68.77,0,0,0-7.75,4.87Zm-26.15,71.3c-3.46-.36-6.51-.79-9-1.3a34.32,34.32,0,0,0,8.78,2.58,2,2,0,0,1,0-.34,3.69,3.69,0,0,1,.3-.94Zm57.33,1.69c6,1,10.8,2.1,13,3.47l2.16-3.59-15.15.12ZM622,670.69s0-.05,0-.08,0-.1,0-.15l-.23.13.23.1Zm159.74-94.94c0-.08,0-.14,0-.21l-.34.42.35-.21Zm-.57-2.84c-.25-.57-.56-1.11-.88-1.74-4.17,4.44-18.49,11.16-42.54,25.24-7.73,4.53-15,8.89-22,13.1,24.69-11.63,55.62-27,65.37-36.6ZM832.25,521Zm90.1-146.37a52.49,52.49,0,0,0-11.62-17.74c-.91,1-1.8,2.07-2.79,3.08a120.76,120.76,0,0,1,10,9.52c.45.45.83.84,1.05,1.08,1.24,1.37,2.35,2.72,3.39,4.06Zm-7.84-37.06c.69-1.41,1.3-2.87,1.88-4.33A49.45,49.45,0,0,1,914,337.8l.51-.25ZM865.17,223.3c.09,0,.16.12.25.17l.54-1.15-.79,1ZM696.1,93.2a14.76,14.76,0,0,1,4.56-3.61c-2,.51-4,1-5.94,1.61.47.65.92,1.32,1.38,2ZM593.66,111.36a82.28,82.28,0,0,1,12-10.32c-5.49,2.75-9.73,6.22-12,10.32Zm102.56-1.58a1.57,1.57,0,0,0,.13.44,1.36,1.36,0,0,0-.13-.44Zm1.36-7.86.6-.79a1.15,1.15,0,0,0-.65.71l.05.08Zm101.35,47.94v0h0v0Zm.67-3.72a9.29,9.29,0,0,1,3.1-4.32c1.33-5.75,3.88-16.62-7.07-30.69-18.93-24.3-46.93-29-74.73-25.46,31.61,0,79.61,19.22,78.71,59.42,0,.33,0,.7,0,1Zm70.93,94.75a0,0,0,0,0,0,0c7.67,2.79,16.05,7.73,23.37,13.05-9.42-9.2-17.35-12.31-23.36-13.08ZM829.11,519.07c-1.42-.09-2.53-.19-3.54-.29l-.23.2c.63.23,1.26.46,1.9.67l3.65-.52c-.6,0-1.17,0-1.78-.06Zm-14.45,1.34A45.66,45.66,0,0,1,791.53,523c8.69,3.31,14.06,2.4,23.27-1.32a4,4,0,0,1-.14-1.29Zm-86.29,16.65c.14-.16.24-.32.37-.48l-1.57,1.2,1.2-.72Zm39.63-21c.1.06.2.1.28.16.73-.29,1.47-.59,2.13-.82a3.92,3.92,0,0,1,1.55-1l-.38-.27a3.68,3.68,0,0,1-.73.51c-1,.45-1.9.92-2.85,1.38ZM809.51,529a60.07,60.07,0,0,0,11.77-3.15c-1.1-.38-2.19-.84-3.3-1.29a41.27,41.27,0,0,1-8.47,4.44Zm25.28-7.52a62,62,0,0,0,47.08-11.81,3.72,3.72,0,0,1-.92-.38,4,4,0,0,1-1.46-2c-10.23,10.49-23.93,15.59-44.41,13.93a3.47,3.47,0,0,1-.29.25Zm55.32-19.43a49.16,49.16,0,0,0,12.72-35.76s-.18-1.2-.42-3a2,2,0,0,0-.07.23c1.18,13.62-3.87,23.94-12.23,38.53Zm11.35-46.17c-.16-1.39-.32-2.78-.45-4.09l-.89.47c.33,1.15.65,2.29.9,3.39a4.53,4.53,0,0,1,.44.23Z" transform="translate(-422.35 -77)"/></svg>