<svg id="Layer_1" data-name="Layer 1" xmlns="http://www.w3.org/2000/svg" viewBox="0 0 836.16 638"><defs><style>.cls-1{fill:#231f20;fill-rule:evenodd;}</style></defs><title>quote8</title><path class="cls-1" d="M1076.64,259.73c.64-1.72.54-3.1-.27-4-1.37-18.95-4.06-40.72-9.08-58.09a5.48,5.48,0,0,0,1.45-5.59c-13.26-33.08-40.25-88.2-82.37-94.55A139,139,0,0,0,965.1,87.17C889,57.76,453,81.23,345.77,94.07a5.58,5.58,0,0,0-.56-1.78,5.52,5.52,0,0,0-7.49-2.17c-47.19,23.25-71.09,37.5-82,75.56a5.53,5.53,0,0,0-4.49,4.12c-11.91,63.29-14,128.41-.07,185.42-.18,5.74.43,9.14,2.27,8.52,22,79.55,76.59,141.77,181.28,158.3a.89.89,0,0,0,.66.12c.52.08,1,.19,1.5.26,26.24,4,69.9,5.84,115.23,5.93-.72,3.72.27,5.62,4.16,4.1.18-.06,2.42-1.64,5.76-4.1,23.47-.09,47-.64,68.63-1.63l.18,0c13.84-.63,26.82-1.44,38.42-2.42-.3,1.59.13,1.86,1.76-.16,3.62-.31,7.11-.64,10.42-1-10.86,22.79-17,35.39-18.64,42.23a5.45,5.45,0,0,0-.44,6.55c12.17,13.78,20.76,17.19,33,18.5.7.81,1.16.81,1.46.15,4.86.45,10.31.65,16.77,1-14.24,25.25-39.28,71.21-43.95,90.57a5.45,5.45,0,0,0-4.33.86,5.51,5.51,0,0,0-1.29,7.69c2.06,2.68,12.93,18.7,16.95,20.28,9.5-4.77,44.64-25.73,80.91-48.87l.68-.11c0-.08,0-.22,0-.32,46.75-29.85,95.13-63.18,92.71-70-1-2.75-4.41-7.7-8.45-13-.33-3.56-.7-7.68-1-11.13,2.94,8.5,2.24,14.41,12.24,23.52-10-11.27-11-29-13.68-28.21-.62,2.4-.28,7.43.28,13-1.67-2.14-3.38-4.26-5-6.29-.11-.52-.19-.9-.21-1-.46-2.08-.88-3.78-1.25-5.15l.44-.41c8.54-8.62-20.87-16-42.14-21.08,30-19.61,41.59-27.87,44.74-34,100.13-19.22,191.44-53.61,223.95-143.24,1-.42,1.38-1.1.69-2.06,1.12-3.2,2.17-6.45,3.14-9.79,5.47-1.57,8.09-3.39,1.37-5a225.52,225.52,0,0,0,6.62-40.2,2.29,2.29,0,0,0,.07-1.36c.26-3.69.48-7.42.59-11.25.19-6.48.09-19.68-.9-35.28ZM455.38,102.21a2.8,2.8,0,0,1,3.51,1.84c-.26,2.5.1,1.55-.64,3-.31-.32-.41-.82-1.09-.8.08.68,0,.19.61,1.35-1.74,3.29-2.7-.26-4.23-1.88a2.8,2.8,0,0,1,1.84-3.51Zm-13.18.65a2.8,2.8,0,0,1,2.8,2.8c-1.23,2-.38,1.06-2.8,2.73-2.41-1.67-1.57-.68-2.8-2.73a2.8,2.8,0,0,1,2.8-2.8ZM422.75,104a2.8,2.8,0,0,1,2.8,2.8c-1.72,5.53-1.48,2.3-2.43,3.25.23.44,0,.16.79.64l.07.88c-2.51,2.58-3.77-3.8-4-4.77a2.8,2.8,0,0,1,2.8-2.8Zm-15.57,3.5a2.8,2.8,0,0,1,2.8,2.8c-1.13,4.68-1.34,3.67-2.4,6.23-1.31,1.57-3.17-6.13-3.2-6.23a2.8,2.8,0,0,1,2.8-2.8ZM389,108.71a2.79,2.79,0,0,1,3,2.53c-.11,1-1.34,8-1.35,8.06.22.23.07.09.51.37.28,5.25-4-4.46-4.74-7.92a2.8,2.8,0,0,1,2.54-3ZM376,126l.49-.12c.45,1.48-2.22,7.11-5.46-9.91a2.79,2.79,0,1,1,5.46-1.18c0,.71-.39,10.56-.49,11.21Zm-.65.13h0v0c.16-.19.38-.13.59-.08a3.54,3.54,0,0,1-.58.12Zm-7.78,5.73a10.62,10.62,0,0,0,1.13-.53c.86,2.72-2.84,6.3-8.15-12.87a2.8,2.8,0,0,1,5.4-1.49c.46,4.26,1.71,11.07,2,14.72-.14.05-.19,0-.36.13v0Zm-18.65-11.72c.49,1.39,4.73,16.43,5,16.63,2.07,6.79-9.79-13.7-9.79-13.7a2.81,2.81,0,0,1,4.79-2.93Zm-5.13,27.92.54,1.07c1.46,8.15-13.08-16.23-13.25-16.46a2.8,2.8,0,0,1,4.42-3.45c2.44,4.59,7,13.29,8.17,19l.12-.18Zm-9.38,11.1.44-.59c2.74,4.35-2.16,3.22-13.3-16.85a2.8,2.8,0,1,1,4.8-2.87c.36.85,7.24,18.2,8.06,20.31Zm-6.56,8.36.68.82c1.5,2.59.87,2.57-.91.79a.38.38,0,0,0-.16.11,1.29,1.29,0,0,1-.06.22h0a.29.29,0,0,1,.08-.22l.05-.21c-3.3-3.31-10.3-12.2-15.52-21.56a2.8,2.8,0,1,1,5.26-1.93c.66,1.5,8.48,18.29,10.46,22.54a5.67,5.67,0,0,1,.14-.56Zm-6.18,12.56.34-.49c1.84,2.75,1.33,2.7-.44,1l0,0-.1.21h0a.31.31,0,0,1,.12-.2l0,0c-3.9-3.77-13.79-15.38-18.39-22.68a2.8,2.8,0,1,1,5-2.51c.74,1.45,11.88,21.57,13.5,24.71Zm-7,10.33-.07-1.1c4.31,5,3.49,4.93.34,2.37a.64.64,0,0,0-.2.4v-.58a172.79,172.79,0,0,1-20-20.12,2.8,2.8,0,1,1,4.69-3c4.4,6.6,10.07,15.78,15.24,22.08Zm-25.1-13.7a2.81,2.81,0,0,1,3.78,1.18c.95,1.7,9.29,15.1,9.57,16.47-1.5,2.38-14.12-13.32-14.54-13.88a2.78,2.78,0,0,1,1.19-3.77Zm7.32,32.65v0c1.49,1.86,1.31,2.06.21,1.31l-.85.39a6.39,6.39,0,0,1,.17-.87c-4-3-14.3-12.48-14.3-12.48a2.8,2.8,0,1,1,4.63-3.14c7,9.92,3.87,5.33,10.14,14.81Zm728.41,102.71c-1.11,1.47-5.5-2.89-6.35-3.56a2.8,2.8,0,0,1,4.15-3.77c1.11,2.17,2.48,4.8,2.2,7.33Zm-7.78,22.4c-1.66,1.65-9.09-8.76-10.11-9.87a2.8,2.8,0,0,1,3.88-4c1.76,2.87,6.22,13.69,6.23,13.69v.22Zm-7,16.51c1.68,2,.74,9.6-13.4-11.95a2.8,2.8,0,0,1,5-2.55c2.26,4.77,6,11.07,7.94,15.23a4.07,4.07,0,0,1,.47-.73Zm-5.91,18.51c3.37,4.8,2.5,9.89-16.78-17.15a2.8,2.8,0,0,1,4.91-2.71c3.26,5.64,8.72,14,11.87,19.86Zm-6.42,15.27c-5.44-5.59-18.26-20.74-18.28-20.76a2.8,2.8,0,1,1,4.4-3.47c2.18,3.51,12.42,19.19,14.71,23.67l.46.45c1.95,3,1.16,2.57-1,.43a1.14,1.14,0,0,0-.23.44c-.07-.51-.08-.55-.1-.76Zm-9.07,9.42c2.41,2.38-3.84,2.41-17.8-20.43a2.8,2.8,0,0,1,5.25-1.95c2.61,5.35,8.61,17.95,12.22,22.66-.09.08-.14.06-.17.18h0a6.14,6.14,0,0,1,.46-.47Zm-7,17.11c6.47,17.81-22.08-25.37-23.26-27.45a2.8,2.8,0,1,1,5.27-1.9c1.62,3.35,15,26.65,17.55,31l.44-1.68Zm-16-1.16c6.48,9.4-13.2-10.83-16.4-15.27a2.8,2.8,0,0,1,4.78-2.93c3.12,5.68,7.13,13.52,11.14,18.62,0,.1-.13.07-.15.2s0,0,0,0c.32-.32.12-.12.6-.64Zm-9.34,8.56c5.57,11.39-17.62-18.83-20.79-24a2.8,2.8,0,0,1,5-2.53c4,8,9.67,20.37,15.18,27.39,0,.06-.08.05-.07.13s.68-1,.68-1Zm-11.09,6.55c2.55,9.67-18.93-26.5-20-28.76a2.81,2.81,0,1,1,5.41-1.5c4.22,10.9,10.49,21.75,13.88,30.33.07,0,.46-.34.53-.39l.2.32ZM937,432.71c3.87,6.09-11.77-9.84-20.14-24.74a2.8,2.8,0,0,1,5.27-1.9c.89,1.95,14.43,26.44,14.28,27v0c.07.09.51-.36.6-.43Zm-13.22,3.89c-11.89-7.14-14.07-10.68-18.72-23.66a2.8,2.8,0,1,1,5.52-.93c3.15,12.64,5.45,14.41,13.2,24.59Zm-14.5,5.63h0l0,0v0Zm0,0-.1.12,0,0a.25.25,0,0,1,.11-.12,144.58,144.58,0,0,1-15.05-24.73,2.8,2.8,0,1,1,5.4-1.49c2.86,8.23,6,18.18,9.8,26.07l.34-.42c1.27,2.34.87,2.24-.48.59Zm-10,4.46c-8.92-10.28-4.77-4.69-12.34-16.88a2.8,2.8,0,0,1,5.22-2c5.28,12.61,2.92,6.3,7.12,18.92ZM891,422.59c-2.46-2.18-1.6-.95-2.8-3.5a2.8,2.8,0,0,1,5.6,0c-1.19,2.55-.33,1.32-2.8,3.5Zm-10,2.66c2.85,11.87,7,17.29,10,27.69-8.12-8.05-12.18-16.93-15.64-27.56a2.8,2.8,0,1,1,5.6-.13Zm2.06,32.85,0,0h0c-1.67-.4-9.41-4.34-17.36-24.77a2.8,2.8,0,1,1,5.59-.43c4.2,14.23,7.85,15.73,11.88,25.05,0,.08-.11.06-.11.15h0l.18-.09c.19.09.12.15-.18.09Zm-19.64-7.88c-6.16-3.35-7.08-5.44-9.75-11.87a2.8,2.8,0,1,1,5.48-1.17c1.08,5.73,2.46,7.69,4.27,13ZM851,447.1c-2.22,2.85-5.65-3.87-6.45-5.08a2.8,2.8,0,0,1,5.12-2.28c.41,2.16.53,5.61,1.33,7.36ZM1069.9,323h0c-1.61,0-5.82.62-13.82,1.91.07-.46.13-.95.21-1.41a135.09,135.09,0,0,0,15.07-9.79c-.42,3.17-.93,6.23-1.46,9.29Zm-7.17,29h0c-6.46.9-10.76,1.54-13.51,2.05.5-1.58,1-3.17,1.47-4.79,4,0,8.75,0,12.84.39-.24.8-.54,1.56-.8,2.35ZM972.66,455h0a83.39,83.39,0,0,1-.28-8.61c0-.62,0-1.16,0-1.72,1.53-.78,3-1.63,4.49-2.44q.23,3.25.54,5.66c-.64,1.89-1.34,3.89-2,5.57-.91.51-1.78,1-2.71,1.54Zm-10.11,5.18h0a97.8,97.8,0,0,1-.77-10.46c1.59-.7,3.11-1.47,4.67-2.21-1.1,4.65-2.18,9.4-3,12.23-.29.14-.56.3-.86.44ZM833.16,478.36h0a5,5,0,0,0-.51-1.68c2.48-.17,5-.36,7.4-.55.17,5.36.82,17.08,3.85,20.09-1.38.26-2.73.53-4.11.78a64.93,64.93,0,0,1-6.63-18.64ZM823.77,485h0l-1,1.11c-.2-.57-.42-1.16-.65-1.8l1.08-1.1c.19.63.37,1.2.55,1.79Zm.91,26.44h0c-3.83-13.06-2.36-8.16-5.53-18.54l.66-.94c3.71,7.44,2.09,4.52,10.06,15.28-1.32,1-3,2.36-5.19,4.2Zm-12,11.26h0s-.06.06-.08.09l.07-.09-.06,0a.17.17,0,0,0,0,.17c-1.43,1.44-2.92,3-4.52,4.68-2-4.77-3.71-8.36-5.17-12.82.87-1.07,1.74-2.16,2.6-3.24,3.64,7.46,6,10.35,7.14,11.21a.42.42,0,0,1,.14-.09l-.08.13Zm-15.46-9.46h0c.16.42.33.83.51,1.26-.73.83-1.45,1.64-2.16,2.46-.18-.37-.37-.74-.55-1.12l2.2-2.6ZM791.46,520h0l.63.93c-.28.31-.55.63-.82.94l-.6-.93.79-.94Zm-11.25,13h0c.47-.53.87-1,1.34-1.54.24.22.49.45.75.67-1,1.13-1.84,2.14-2.61,3l-1.63-.94a5.5,5.5,0,0,0,2.15-1.24Zm4.83-5.56h0l2.18-2.5c.23.27.47.53.68.76l-2.2,2.53-.66-.79Zm5.56,1.26h0c1.59,1.69,2.2,1.9,8.61,6.93h0c-4.25-7.81-4.07-7.73-5.6-10.12.31-.35.67-.7,1-1,2.92,3.89,6.35,7.62,8.95,7.87-2.06,2.23-4.24,4.7-6.56,7.32-3.28-3.25-5.75-5.37-8.69-8.5.8-.81,1.52-1.63,2.3-2.44Zm7-7.75h0c.67-.79,1.36-1.56,2-2.35,2.08,4,4.76,7.76,8,9.27-1.18,1.24-2.42,2.59-3.7,4-2.54-4.17-4.41-7.29-6.34-10.9Zm4-10.84h0c-.12-.47-.24-.91-.36-1.4a1.16,1.16,0,0,0,0-.18c.65-.78,1.27-1.51,1.9-2.25.22.48.42.94.63,1.41l-2.13,2.42Zm5.23-8.28h0l1.82-2.16c.24.5.5,1,.78,1.56l-2.06,2.32c-.2-.65-.38-1.22-.54-1.72Zm5.45-6.48h0l1.67-2,.89,1.69L813,497.22c-.3-.81-.53-1.45-.69-1.87Zm61.49-26.86h0c-.19.55-.38,1.15-.58,1.76-2,.33-4,.67-6,1v-1.56c2.06-.36,4.27-.75,6.59-1.18Zm14-2.81h0c-.33.68-.67,1.39-1,2.14-2.24.43-4.47.87-6.75,1.27-.08-.62-.16-1.19-.24-1.75,2.51-.5,5.2-1.06,8-1.66ZM911,460.21h0c-.27.77-.56,1.62-.86,2.52-1,.26-2.06.53-3.11.77.06-.83.08-1.61.1-2.34l3.87-1Zm130.47-274.95h0l-.44.33-.5-1.09c.08-.52.16-1,.25-1.55l.69,2.31Zm12.13,152.62h0c3.39-.38,9-1.75,11.8-1.1-1.88,1.37-6.94,3.11-7.59,3.35-2,.73-3.67,1.39-5.24,2,.36-1.42.7-2.83,1-4.27Zm2.23-11.18h0c4.47-.91,9.14-2,10.92-2.18-2,2.37-5.18,4.22-7.63,5.87-2,1.34-3.47,2.42-4.68,3.35.47-2.33,1-4.63,1.39-7Zm-10.43-40.23h0c-.06-4.88-.23-9.89-.47-15a85.08,85.08,0,0,0,8.42-4.12c.06,1.68.16,3.4.2,5.05-10.8,5.32-9,11.42.06,7.87v1.27c-3,1.74-5.85,3.41-8.21,4.92Zm17.86-55.57h0c0,.9,0,1.68,0,2.53-.18.21-.37.43-.57.64,0-1.11,0-2.1,0-3l.52-.15Zm.49,13.91h0c-.28,0-.59.11-.92.19,0-1,0-2,0-3.08,0-2.47-.07-4.5-.08-6.25l.56-.54c0,3.67.2,6.87.47,9.68ZM1044,255.27h0l.45-.1a7.4,7.4,0,0,0,1.4,3.11c1.79,1.56,3,.54,3.78-2.12l.41,0-.15-1c.15-.69.29-1.47.4-2.32l2.25-1.06.3,4.27c.07,1,.08,2,.14,3-.57.55-1.09,1.06-1.49,1.43-3,2.95-5.19,5.2-6.71,6.93q-.32-6-.78-12.17Zm6.71-22.86h0c.47,4.12.9,8.26,1.26,12.41l-1.16,1.1c.13-4.16.07-8.86-.11-13.52Zm1.64,16.77h0l-1.76.86c.06-.82.12-1.65.16-2.53.44-.49.88-1,1.33-1.46.09,1,.19,2.09.27,3.13Zm6.29.34h0c0-.22,0-.43,0-.65l.5-.24c0,.86,0,1.68,0,2.42-.14-.46-.29-1-.43-1.53Zm-5.51,12.68h0l.06,1.36c-1,.62-2.07,1.26-3.09,1.86,1-1,2-2.1,3-3.22Zm6-2.88h0c.1.14.19.25.29.37l-.27.16c0-.18,0-.35,0-.53Zm-.75-12.83h0c-.15-2.1-.33-4.18-.52-6.26l1.39-1.31c-.08,2.56-.12,5-.14,7.28l-.73.29Zm.91-8.81h0c-.5.51-1,1-1.52,1.53-.2-2.2-.41-4.39-.65-6.57l2.41-.68c-.11,1.91-.18,3.82-.24,5.72ZM1043.87,253h0l-.08.1-.06-.76c0,.23.09.43.14.66Zm21.5,19.7h0a26.16,26.16,0,0,1,3.2-.48,102,102,0,0,1-9,5.87v-1a55.53,55.53,0,0,0,5.79-4.38Zm-4.4,14.42h0c-.52.77-1,1.53-1.55,2.29,0-.54.06-1.05.08-1.6l1.47-.69Zm-7.79,11.84h0a7.06,7.06,0,0,1-1,0c-.37,0,.18-.87,1.08-2,0,.66,0,1.34-.07,2Zm5.68,2.27h0a66,66,0,0,0,8.27-5.35c2,.72-3.35,5.4-8.69,9.76.13-1.48.31-2.9.42-4.41Zm-.48,5.08h0c9.29-8.46,11.25-11.2,9.79-11.47a2.8,2.8,0,0,0-4.12-3.63l-.74.56c7.24-11.14,12.9-15.59-.65-10.45,3-2.18,5.86-4.38,8.12-6.38.58,2.65,1.14,5.59,1.63,9.06a6.87,6.87,0,0,1-1.22-3c-.57,2.12,4.51,11.61.16-5.63-.06-.27-.11-.5-.18-.75.9-.81,1.7-1.58,2.36-2.3a288.53,288.53,0,0,1-1.16,31.9c-4.23-.4-9.46,2-14.19,4.24.06-.7.14-1.41.2-2.13Zm12.46-38.82h0c.79-.81,1.58-1.67,2.4-2.58,0,.85.08,1.69.1,2.52a13.64,13.64,0,0,0-2.5.06Zm2.12-9.16h0c-.25,1.29-1.85,3.21-4.15,5.37-.25-1.41-.48-2.78-.68-4.09,2.26-1,4-1.65,4.82-1.53a2,2,0,0,0,0,.25Zm-5,6.16h0c-1.76,1.57-3.82,3.22-6,4.81-.89.25-1.65.52-2.46.78,0-1.93-.15-3.95-.22-5.93,2.62-1.42,5.18-2.78,7.38-3.86q.61,2.08,1.26,4.2Zm-6-6.2h0a36.2,36.2,0,0,0,.76-6.58c.61-.75,1.16-1.45,1.63-2.11.38,2.54.85,4.78,1.37,6.87-1.17.49-2.43,1.11-3.76,1.82Zm.83-27.73h0a35.89,35.89,0,0,1,.65-5.77c-.07,2-.11,3.84-.14,5.6l-.51.17Zm-3.21,1.14h0l-2.42.93c-.38-3.49-.79-7-1.26-10.43,1.56-1,3.23-2,5.05-3.19a99.26,99.26,0,0,0-1.37,12.69Zm-8-33.88h0c2-1.74,4-3.48,5.84-4.79.18.54.37,1.06.56,1.62-1.61,2.29-3.47,4.57-4.19,5.45-.5.6-.9,1.1-1.38,1.67-.26-1.31-.54-2.63-.83-4Zm4.18-9.49h0A26.65,26.65,0,0,0,1052,191c1-2.13,1.91-4.09,2.66-5.87.38,1,.74,2.08,1.12,3.15Zm-5.87-.63h0c-.19.35-.34.65-.53,1-.4-1.54-.8-3.08-1.23-4.6a12.4,12.4,0,0,1,4.6-2.65,31,31,0,0,1-2.84,6.28Zm-7.27,1.6h0a.78.78,0,0,1,0-.14h0a.83.83,0,0,1,0,.15Zm-4.78-15.19h0c-.09,1.45-.18,2.91-.33,4.36-1-1.89-2-3.77-3-5.61.41-.82,1-2,1.7-3.25.58,1.48,1.13,3,1.68,4.5Zm-3.62-5.6h0c-.74-2.47-2-6.62-3.49-11.27q2.34,4.83,4.4,9.85c-.3.47-.58.87-.91,1.42Zm-8.74-21.06h0c2.67,8.62,4.33,14.83,5.41,19.08-5.34-9.51-9.92-18.33-10.29-26.77q2.56,3.75,4.88,7.69Zm11.67,34.13h0c-.12.93-.26,1.86-.39,2.77-1.48,10.15,1,9.13,4.84,5.71,1.06,2.15,2,4.28,2.86,6.38.1.43.21.85.31,1.29l-.57,1.25-.37.41.22-.08c-2.44,5.73-1.06,5.61,1.83,3.39.25,1.19.51,2.38.75,3.57a2.44,2.44,0,0,0-.46-.07,2.81,2.81,0,0,0-2.66,2.94l.15,3.51c-1.55,2-2.77,3.61-3.69,4.91-7-45.46-24.14-89.06-58-113.94a118.27,118.27,0,0,1,36,32.37c-1.09,12.33,10.14,29.15,19.24,45.59Zm5.59,38.45h0a66,66,0,0,0-.68,7.21c-.47.93-.47,1.48-.06,1.68,0,1.3,0,2.61,0,3.94-.41-3.88-.89-7.77-1.44-11.64.65-.33,1.39-.74,2.22-1.19Zm2.68,73.61h0c2.45-.8,5.28-1.93,8.09-3.13,0,1.83-.12,3.63-.2,5.42-2.25,2.39-3,3.92-.13,3.5-.22,3.85-.53,7.59-.89,11.28-.37.31-.72.61-1,.89l-.75.26a.54.54,0,0,1,.37.09c-1.66,1.54-1.84,2.15.91,1l.32-.13c-.42,4-.93,7.85-1.52,11.64-7.2,3.66-5.18,4-.48,3.33-1,5.92-2.26,11.52-3.66,17-7.38,3.36-6,4.23-1.14,4.46-.6,2.09-1.26,4.1-1.91,6.13-2-1-3.72-1.87-4.69-2.45,4.56-17.63,6.58-37.34,6.71-59.24Zm-6.71,59.28h0c.11.12.19.24.34.44v0c-.15-.12-.26-.19-.39-.28a1.17,1.17,0,0,1,.06-.2Zm-1.09,3.85h0a23,23,0,0,0,4.27,3.13h0c-.32.91-.65,1.81-1,2.7a11.1,11.1,0,0,0-4.32-2.27c.37-1.17.68-2.38,1-3.57Zm8.17,7.22h0a44.17,44.17,0,0,1,4.68,6,46.77,46.77,0,0,1-5.47-4.09c.27-.66.55-1.29.79-1.94Zm-10.09,26h0c-.42-.79-.84-1.6-1.25-2.41.22-.39.45-.78.68-1.17.18,1.24.38,2.45.57,3.58Zm-6.2,16.14h0c-.7-2.24-1.33-5-2-7.89.82-1.14,1.59-2.33,2.39-3.51a99.43,99.43,0,0,1-.44,11.4Zm5.65-41.49h0c.09.3.16.59.27.88a1,1,0,0,0-.57,0l.3-.9Zm-1.1,13.6h0c-.71,1.39-1.41,2.77-2.15,4.12a41,41,0,0,1-1.94-4.77c1.31-2.84,2.55-5.73,3.68-8.7a56.23,56.23,0,0,0,.41,9.35Zm-6.29,4h0c.21.52.44,1.06.67,1.63a32.5,32.5,0,0,1,.67,3.32c-.95,1.6-1.94,3.17-2.95,4.7-.37-1.63-.77-3.18-1.17-4.58,1-1.67,1.9-3.35,2.78-5.07Zm-7.6,12.88h0c.12,1.46.28,3,.46,4.59-.76,1-1.55,2-2.35,2.94-.14-.39-.3-.82-.44-1.17,0-.79.05-1.47.08-2l-.9.07,0,0c1.07-1.44,2.16-2.89,3.17-4.37ZM1013,408.69h0c-.19.22-.4.44-.6.66-.19-1.23-.39-2.4-.58-3.49.42-.49.84-1,1.25-1.5,0,1.38-.05,2.82-.07,4.33Zm-15.67,14.68h0c-1.53,1.23-3.06,2.45-4.64,3.62-.15-.62-.3-1.22-.44-1.76l0-.1,0,.06c-.07-.28-.14-.48-.2-.74,2.19-1.66,4.3-3.38,6.34-5.13-.36,1.33-.71,2.68-1,4.05Zm-1.59,6.85h0c-.4,1.83-.77,3.6-1.11,5.2-.3-1.37-.58-2.62-.85-3.79.66-.47,1.32-.93,2-1.41Zm-9.87,1.59h0c-1.66,1.11-3.4,2.14-5.12,3.19a2.56,2.56,0,0,0-1.34-.42,2.8,2.8,0,0,0-2.86,2.73c0,.08,0,.15,0,.22-1.45.83-2.94,1.61-4.42,2.4-.07-1-.14-1.86-.24-2.57a164.43,164.43,0,0,0,14.88-9.12c-.28,1.11-.59,2.32-.91,3.57Zm-1.72,6.2h0c-.52,1.72-1.09,3.49-1.73,5.31-.1-1.46-.16-2.88-.2-4.1.65-.39,1.28-.81,1.93-1.21Zm-13.48.05h0c.06.73.1,1.62.14,2.59-.48.26-1,.54-1.44.79.31-1.13.62-2.19.93-3.17l.37-.21Zm-2.93,4.23h0c-2.06,1-4.17,2-6.3,3-.07-.84-.18-1.65-.3-2.47,2.57-1.2,5-2.44,7.47-3.7-.28,1-.58,2-.87,3.17Zm-8.39,4h0l-.74.33c.18-.87.37-1.75.56-2.68.06.83.12,1.58.18,2.35Zm-3.53,1.5h0c-1.72.73-3.44,1.47-5.19,2.17-.08-.91-.16-1.74-.25-2.47,2-.83,4-1.67,5.93-2.52-.17.91-.33,1.85-.49,2.82Zm-.77,4.75h0c-.76,4.52-1.62,8.65-3,10-.61-1-.8-3.95-.85-4.76-.06-1.29-.14-2.47-.21-3.58,1.38-.52,2.72-1.08,4.09-1.63Zm-6.54-4.32h0l0,0c.12.84.22,1.67.34,2.48-.42.17-.87.32-1.3.48.07-.21.13-.41.21-.62,0,0,.29-1.09.71-2.32Zm-3.69,4h0c-1.63.6-3.25,1.23-4.91,1.81,0-.95-.06-1.77-.1-2.5q2.94-1,5.79-2.13c-.25.9-.5,1.84-.78,2.82Zm-5.15,14.45h0c.14-3.35.21-6.14.24-8.54,1.22-.4,2.43-.83,3.63-1.24a93.09,93.09,0,0,1-3.93,11.89c0-.62,0-1.28.06-2.11Zm-5.34-10.78h0q-4.56,1.48-9.27,2.87c-.09-.85-.17-1.63-.26-2.35q5.41-1.61,10.55-3.33c-.33.87-.67,1.81-1,2.81Zm-11.54,3.52h0l-.19.05.14-.44c0,.12,0,.26,0,.39Zm-3.44,1h0c-1.2.34-2.39.67-3.61,1,0-.85-.09-1.64-.13-2.38,1.5-.4,3-.8,4.5-1.22-.24.83-.49,1.7-.76,2.61Zm-1.19,4h0c-.57,1.85-1.2,3.77-1.89,5.69-.14-1.87-.24-3.56-.33-5.18.74-.17,1.49-.33,2.22-.51Zm-11.37,2.61h0c.7-.14,1.38-.3,2.08-.46l-2.42,7.32c0-2.16.18-4.54.34-6.86Zm-8.39-1.49h0l-3,.65c-.08-.76-.18-1.45-.29-2.06l4.21-1c-.32.78-.64,1.58-1,2.4Zm-31.27,8h0l5.22-.67c-1.45,4.46-3.18,9.8-5.33,15.58-.3-4.89,0-10.22.11-14.91Zm30-4.59h0c-.47,1.33-.92,2.66-1.35,4,0-1.36-.06-2.56-.13-3.68l1.48-.3Zm-11.75,2h0c-1.46,3.61-2.88,7.67-4.11,11.61-.37-4.34-.71-7.86-1-10.81,1.73-.26,3.44-.52,5.15-.8Zm-27.76,1.81h0l-2.83.41c0-.57,0-1.05,0-1.45l3.52-.53c-.23.51-.47,1-.7,1.57Zm-.84,1.95h0c-.69,1.63-1.35,3.29-2,4.88,0-1.67,0-3.29,0-4.69l2-.19ZM849,472.48h0c0,.45,0,.92,0,1.36l-3.47.46c0-.25.06-.5.08-.74a2.57,2.57,0,0,0-.12-.55c1.09-.18,2.26-.35,3.5-.53ZM840,474h0c0,.26,0,.58,0,1l-5.77.68A38.15,38.15,0,0,1,840,474Zm-24,23.29h0c2.69,5,6.37,11.81,8.15,14.53,0,.07-.07.1-.11.16-1.3,1.12-2.75,2.42-4.37,3.92-1-3.17-3.75-10.69-5.66-15.84.67-.92,1.33-1.84,2-2.77Zm2.54-6.39h0c-.09-.27-.15-.49-.24-.78a2.7,2.7,0,0,0-.53-1.12l.35-.4c.33.64.61,1.21.89,1.76l-.47.54Zm26.83-15.21h0l3.64-.34c.26,11.49,1,17.51,2.28,19.48-1.88.38-3.8.72-5.7,1.08-2-6.17-.91-13.69-.22-20.22ZM861.52,478h0a145.46,145.46,0,0,0,1.23,14.54c-2.85.6-5.71,1.21-8.61,1.78,2-2.55,4.43-8.59,7.38-16.32Zm14,.87h0a94.47,94.47,0,0,0,1.08,10.58l-5,1.15c1.18-3.52,2.56-7.71,3.89-11.73Zm15.79-5.52h0c.35,5,.58,9,.79,12,0,.12,0,.16-.08.27-1.94.51-3.93,1-5.89,1.49,1.62-4.28,3.52-9.35,5.18-13.78Zm11.07-5.48h0l.79-.16c.23,5.71.32,11.46.88,14.59-2.5.73-5,1.42-7.56,2.11,1.38-4.05,3.26-9.62,5.89-16.54Zm11-2.38h0l0,0c.26,5.87.12,11.43.54,13.8-2,.65-4.07,1.28-6.14,1.9a145.69,145.69,0,0,0,5.56-15.68Zm8-1.93h0l1.79-.49c.29,4.4.31,9.22.49,13-2.53.86-5.08,1.73-7.66,2.56,1.13-2.33,2.83-7.06,5.38-15.1Zm4.93,9.83h0c-.3-4.33-.57-7.93-.83-10.94,2.48-.67,4.94-1.36,7.36-2.09-1.68,4.89-3.53,10.24-5.39,14.45l-1.07.36c-.06-1-.07-1.78-.07-1.78Zm8-9.2h0l1.92-4.88,1.47-.46c0,4.39-.25,9-.3,12.28-2.2.84-4.41,1.69-6.66,2.5,1-2.55,2.21-5.64,3.57-9.44ZM946,456h0c1.15-.41,2.3-.82,3.45-1.25.62,4.73,1.19,8.72,1.93,10.64q-5,2.19-10.21,4.26c1.21-3.11,2.79-7.56,4.83-13.65Zm11.56-4.47h0c.72-.3,1.45-.59,2.16-.9a98.28,98.28,0,0,0,1.33,10.31c-2.28,1.09-4.6,2.15-6.92,3.2a96.12,96.12,0,0,0,3.43-12.61ZM968,446.79h0c1-.48,2-.93,3-1.41a96.05,96.05,0,0,0,.78,10.09c-2.16,1.16-4.38,2.28-6.6,3.39.9-3.37,1.85-7.8,2.85-12.07Zm9.48,2.16h0c.18,1.15.37,2.15.58,3l-1.79,1c.37-1.14.78-2.48,1.21-4Zm12.34-14.5h0l.22-.16c.71,3.35,1.35,6.5,2,9.08-2.05,1.38-4.18,2.67-6.29,4,1.51-4,2.94-8.8,4.08-12.92Zm12.42-6.07h0a58.22,58.22,0,0,0,1.11,6.8c-1.06.81-2.09,1.64-3.17,2.43.63-2.6,1.31-5.64,2.06-9.23Zm7.46-6.59h0a37.3,37.3,0,0,0,2.15,6.44c-.72.63-1.42,1.3-2.15,1.92.06-2.53,0-5.4,0-8.36Zm11.65-15.64h0c.3,2.55.57,5.08.69,7.45-.71-2.2-1.36-4.1-2-5.85.44-.52.84-1.09,1.27-1.6Zm5,3.3h0a29,29,0,0,0,1.77,2.8c-.51.58-1,1.16-1.51,1.72-.06-1.45-.15-3-.26-4.52Zm8.13-12.84h0a17.39,17.39,0,0,0,3,4.2c-.83,1.11-1.69,2.19-2.55,3.27-.06-2.14-.21-4.6-.49-7.47Zm4.07-16.51h0c.32-.63.62-1.28.93-1.91,2.36,3.69,5.06,7.5,7.06,9.17q-3.06,5.08-6.43,9.89c.11-3.29-.33-8.76-1.56-17.15Zm4.79-10.21h0c.15-.35.29-.72.44-1.08,5,3.14,8.25,4.73,10,5.14-1.49,3.07-3.06,6.08-4.7,9-.85-3.7-3.32-8.65-5.78-13.06Zm5.26-7.06h0a47.51,47.51,0,0,0,9.26,2.09c-.9,2.18-1.79,4.36-2.77,6.47a50.42,50.42,0,0,0-6.49-8.56Zm10.61-1.1h0a90.89,90.89,0,0,1-11.16-4.24l.24-.74c3,.9,7.59,2.25,11.09,4.57-.05.14-.12.27-.17.41Zm-7.86-15.06h0c.13-.49.25-1,.39-1.47,5.6-2.48,12.58-5.84,15.29-8.24-.81,3.34-1.72,6.59-2.68,9.79-5.35-.69-8.63-.3-13-.08Zm16.21-12.17h0c-.94-.44-2.94-.59-6.37-.34a25.81,25.81,0,0,0-5.52.87c5.71-5.48,11.67-8.92,14-10.66-.62,3.45-1.35,6.81-2.11,10.13Zm-11-13.08h0c.53-3.58,1-7.23,1.4-11,6.61-2.49,11.3-3.74,14.14-4-.2,2-.36,4-.6,5.9a94.26,94.26,0,0,1-14.94,9.06Zm16.12-66.77h0a17.44,17.44,0,0,0-5.1,1c-1-8.72-.91-15.75-1-24,1.11-1.35,1.3-2.12,0-2.07,0-4.45-.18-9.3-.58-15l.26-.93-.32.08c0-.61-.1-1.23-.15-1.87a2,2,0,0,0-2.36.5,2.71,2.71,0,0,0-2.76.13l-.34.21c4-4.81,6-8.76.44-7.45-1.31.31-4,1.84-7,3.68-.1-.53-.2-1.07-.31-1.6,2.4-3,4.82-6.17,6.81-9.14a5.51,5.51,0,0,0,4.12,1c4.5,17.27,6.49,35.57,7.18,42.08.47,4.58.82,9,1.13,13.45Zm-20.64-76.57h0a45.91,45.91,0,0,0-4.85,3c-1.45-4.87-3-9.65-4.84-14.31,0-3.52-.63-5.71-2.16-5.35-6.64-15.77-15.44-30.16-27.09-42.49,19.11,14.67,25.53,22.68,38.94,59.16Zm-800.52,93h0c1.69,10.93,4,22.12,6.88,33.39-.63,3.32-1.28,6.82-1.91,10.38-.06-5.43-.1-9.31-.11-9.7,0-1.38-.06-1.93-.1-1.22s-.06,2.39,0,3.77c0,.55.06,3.6.12,7.88-.5,2.82-1,5.67-1.47,8.52a381.47,381.47,0,0,1-3.37-53Zm21.58,40.6h0a2.68,2.68,0,0,0-.69-.46,2.76,2.76,0,0,0-2.68.37c-1.68-6.07-3.17-12.12-4.51-18.14l1.52-5.26q2.72,11.79,6.36,23.49ZM711.35,490.33h0l-3.84.49a5.25,5.25,0,0,0-.38-1.16c1.52-.06,3.06-.11,4.51-.18-.08.26-.18.55-.29.85Zm-14.55.16h0c-.25.54-.49,1.05-.74,1.57-1.63.16-3.29.33-5,.47.14-.85.26-1.63.37-2.38,1.87,0,3.73-.09,5.52-.15a4.09,4.09,0,0,0-.18.49Zm-5.88-.32h0c-.12.77-.24,1.57-.37,2.42l-2.45.2,1.24-2.58,1.58,0Zm-5.1,2.8h0c-7,.57-14.26,1-21.86,1.42-.31-1.52-1.21-1.26-2.55.14-2,.1-4.14.18-6.23.27A1.31,1.31,0,0,0,655,494c-1-1.24-2.74-.67-4.75,1-8.26.29-16.79.49-25.51.6a23.73,23.73,0,0,0,.77-5c22.42.21,43.44.05,61.51-.36-.39.87-.79,1.77-1.23,2.71Zm-16.23,29.56h0l-9.73.27c2.41-2.07,7.52-8.08,17.29-19-2.18,5-6,13.88-7.47,18.64l-.09.12Zm-110.36,1.09h0c2.26-4.77,5.94-11.43,9.41-17.51,0,1.25,0,2.63,0,4.22.28-2,.46-3.73.54-5.23l2.92-5c5.36.07,10.71.11,16,.1-7.51,7-21,17.73-28.55,23.47ZM255.77,329.88h0c.25-1.1.5-2.21.77-3.33,0,2.86.08,5.79.11,8.63-.3-1.77-.61-3.53-.88-5.3Zm10.16,36.87h0a92.27,92.27,0,0,1,7-16.77c-.76,7.59-3,30.83-1.91,31.55.29-9.14,2-22.31,3-30q2.63,6.43,5.52,12.77c-3.69,8.29-7.78,19.07-5,21.49a92.54,92.54,0,0,1,7.38-16.35q2.33,4.89,4.81,9.7c-2.7,5.52-3.75,10.62-4.8,19.5,3.17-6.09,5-10.42,7.33-14.72,1,1.86,2,3.72,3,5.56a.3.3,0,0,0,0,.1c-3.15,5.25-8.82,13.33-12.3,16.36,0-5,2.48-14.93,3.14-17.94a2.81,2.81,0,0,0-2.09-3.37,2.78,2.78,0,0,0-3.36,2.09c-1,4.73-1.65,8.63-2,11.92a256.44,256.44,0,0,1-17.16-54.15c2-4.78,4.75-10.17,7.39-15.09q2.4,7.17,5.07,14.28c-3.63,7.35-5.27,11.69-4.94,23.05Zm41,45.9h0a79.27,79.27,0,0,0-5.6,6.22c1.44-2.67,2.91-5.32,4.38-8l1.22,1.75Zm-6.79-10.15h0c-2.08,3.84-4.73,8.46-7.38,11.1a63.57,63.57,0,0,1,2.1-12c.72-1.37,1.45-2.68,2.2-3.95,1,1.65,2,3.27,3.08,4.88Zm-11.57,2h0c-1.24,9.95-.07,18.84,5.81,14.19A68.26,68.26,0,0,0,293,428.8a10.24,10.24,0,0,0,0,1.11,203.92,203.92,0,0,1-11.25-18.61,34.1,34.1,0,0,0,6.8-6.82Zm15.91,19.26h0a95.09,95.09,0,0,0-4.52,15.75c-1.9-2.46-3.77-4.95-5.54-7.5,2.13.09,6.33-4,10.06-8.25Zm.2,13.65h0a5.51,5.51,0,0,0,.45,2.13c.28-2.43.67-4.67,1.1-6.84,1.6-4.73,3.5-10.12,4.71-14.47,1.8,2.4,3.63,4.78,5.49,7.09-.59,1.93-.95,3.22-1.3,4.76-3.54,5-9.12,12-11.86,13.21a26,26,0,0,1,1.41-5.88Zm14-5.56h0c.52-.78,1-1.51,1.36-2.22,2.79,3.29,5.65,6.49,8.59,9.55-.09.32-.18.65-.26,1-3.1,5-7.34,12.23-12.76,13.46-1.33-3.45.62-14.59,3.07-21.76Zm7.3,14.69h0l1.12-1.44c-1.59,6.26-2.79,11.63-2.34,11.94h0l.06.06c1.15-.37,4.2-7.41,7.08-14.69.53.53,1.05,1.07,1.6,1.59-.14,9.39-2.88,25.31,5.45,10.57-1.76,6.29-3.66,14.24-4,19.53a185.26,185.26,0,0,1-20.1-17.62c2.19-.27,5.73-3.08,11.19-9.94Zm8.63-1.4h0c1.6,1.51,3.23,2.95,4.87,4.39-1.46,3.4-3,7.19-4.33,8.25-.11-.89-.42-3.22-.42-3.36,0-3.72,0-6.76-.12-9.28Zm4.68,32.23h0c-1.34-1-2.64-2-4-2.93.5-3.55,2.21-9,4-14.41-.59,3.57-1.06,6.74-1.26,8.62l-.21.11a.56.56,0,0,1,.2.06c-.19,2-.06,2.44.62.34l.06-.83-.32.16c1.56-5,3.41-10.17,5.3-15.3,2,1.63,4,3.24,6,4.76-1.67,10.66-2.42,21.16-2,25-2.69-1.72-5.37-3.45-7.93-5.27a30.51,30.51,0,0,0,2.5-2.78,29.87,29.87,0,0,1-3,2.43Zm9.48,4h0a86.47,86.47,0,0,1,4-21.35c2,1.4,3.93,2.76,5.93,4-1.85,7.24-3.89,16.89-3.8,23.29-2.05-1.18-4-2.42-6-3.67A25,25,0,0,0,350,480a14.69,14.69,0,0,0-1.27,1.42Zm56.19,1.44h0c-3,5.45-6.11,12-8.27,16,.09-.86.2-1.6.26-2,1-6.5,1.7-11.59,2.2-15.52,1.9.51,3.82,1,5.81,1.49Zm25.85,5.36h0c-4.12,7.38-8.75,16.67-11.74,20-.19-4.13,1.47-14.86,2.64-21.72,3,.59,6,1.15,9.1,1.7Zm-19-3.79h0c1.13.25,2.26.51,3.41.75-2.17,4.08-4.37,8.6-6.05,12.15.85-5.27,2.3-11,2.3-11,.13-.67.23-1.25.34-1.86Zm-21-5.43h0c1.18.35,2.39.69,3.6,1-2.52,5.48-5.69,12.06-9.19,16.72.63-5.29,3.31-11.8,5.59-17.75Zm-12.32-4.48h0c1.13.47,2.25,1,3.4,1.42-1.67,2.5-3.3,5.1-4.76,7.52.43-2.94.89-5.94,1.36-8.94Zm-15.63-7.9h0c2.38,1.42,4.8,2.73,7.25,4a119.81,119.81,0,0,1-9.69,15.24c-1.23-7.17.13-12.86,2.44-19.23Zm10,9.47h0c-1.17,8.15-2,16.28-1.22,19.89-3-1.41-6-2.83-8.92-4.34,2.81-3.11,6.66-9.19,10.14-15.55Zm2.56,19.87h0c2.4-3.13,6-8.48,9.61-13.95-1.85,6.69-3.55,13.83-3.69,18.21-2.39-1-4.73-2-7-3a8.62,8.62,0,0,0,1.12-1.25Zm11.2,6.17h0c2.74-2.68,5.51-7.76,8-13.13-.74,6.49-1.16,13-.36,16-2.63-.89-5.18-1.86-7.73-2.82a.48.48,0,0,0,.11-.09Zm11.45,2.65h0c3.68-4.78,6.82-12.59,10.17-19.55-1.78,10.69-3.78,26,.9,20.56,2.76-3.19,5.94-12.48,9-20-2.43,11.64-4.05,23-2.08,25.48q-9.83-2.4-19-5.38a10.61,10.61,0,0,0,1-1.15Zm30.5-8.21h0s1.77-4.07,4-8.05c1.46.25,3,.49,4.46.73-1.17,7.57-3,18.62-3.27,25.81q-8.36-1.5-16.27-3.38c2-.67,5.51-5.08,11.06-15.11Zm9.37-13.83h0l-1.18-.2a6.49,6.49,0,0,1,1.25-1.07c0,.29,0,.74-.07,1.27Zm-1,22.38h0c1.16-6.5,1.92-11.55,2.37-15.5,3.88.63,7.82,1.23,11.85,1.8-2.91,6.52-7.19,18.32-11.55,24.69-.52-.08-1.07-.15-1.58-.24-.92-.15-1.79-.36-2.7-.51a94.57,94.57,0,0,1,1.61-10.24Zm8.51,1.71h0c.67-1.4,4.76-10.44,7.45-15.16l1.32.17c-.82,8.38-2.77,30.14.95,22a21.18,21.18,0,0,0,1.65-2c-.35.28-2.59,3.16-3,3.23h0c-.66-.83,0-7.43.05-7.93.68-7.11,1-12,1.05-15.27q5.18.7,10.47,1.33c-5.78,23.86-7.85,37.27,21.26,5.26.26-.28,1.11-1.33,2.23-2.75l5.32.49c-4.42,9.55-9.73,18.92-11.1,24.51-15.74-1.12-30.18-2.6-42.54-4.52,1.37-2.35,3-5.44,4.9-9.43Zm25.48-12.89h0q5.28.6,10.68,1.14c-5.36,6.07-10.58,11.78-14.42,14.87,1.7-7.88,2-9.25,3.74-16Zm55.83,4.62h0c-3,3.61-6.95,9-12.22,16.58,1.8-5.34,4.52-12,6.52-16.92l5.7.34Zm17.77.81h0c-6,7.15-13.8,18.22-17.8,23.06,1.46-6.22,5.31-16.73,7-23.53q5.41.25,10.85.47Zm-38.19,11h0a59.59,59.59,0,0,0,2.32-12.95c2.16.16,4.33.3,6.52.45-2.76,3.87-6,8.34-8.84,12.5Zm-6.06-13.59h0c-.79.8-1.59,1.68-2.41,2.64.41-1,.75-1.83,1.12-2.75l1.29.11Zm-11.6,23.73h0c4.76-7.66,11.77-19.05,16.55-22.48.4,6.07-6.26,17.71-6.42,23.74-3.52-.19-7-.4-10.42-.62.09-.21.19-.43.29-.64Zm24.16-12h0c-1.91,5.53-3.39,10.92-3.45,13.82l-6.08-.28c2.24-3,6-8.21,9.53-13.54Zm5.75,7.14h0c1.13-1.62,8-11.57,12.34-16.83l.28,0a203.56,203.56,0,0,1-6.39,24.08q-5.83-.2-11.59-.43a58.85,58.85,0,0,0,5.36-6.84Zm19.34-4.85h0c5.38-6.75,7.41-9.45,9.16-11.29l2.18.09c-2.58,7.35-7.26,20.66-6.18,23.82-5-.11-10.06-.23-15-.39,2.17-2.59,5.35-6.59,9.85-12.23Zm11.32-4h0c1.07-2.91,1.84-5.25,2.39-7.17,3.69.12,7.39.21,11.07.29-6.31,6.05-15.17,20.28-18.21,22,0-3,4.4-14.12,4.75-15.08Zm46.82-6.66h0c1.13,0,2.24,0,3.36,0-2.54,2.86-5.48,6.57-8.12,10.06,1.63-3.55,3.37-7.16,4.76-10Zm17.87-.33h0c-3.22,3.6-7.09,7.88-11.62,12.58,2-4.59,3.94-9,4.28-12.4q3.69-.08,7.34-.18Zm4.58-.12h0l1.43,0c-2.63,7.37-6.47,18.94-6.79,24-5.41.06-10.89.1-16.41.11,5-2.87,14.3-16.18,21.77-24.09Zm40.78-2.24h0c-3,4.1-6.94,10.54-11,16,2.06-5.18,5.1-11.57,6.45-15.61,1.54-.12,3.07-.23,4.58-.36Zm-18.72,9.2h0c1.6-3.8,2.3-6.37,2.36-8.05,1.43-.08,2.82-.18,4.23-.27a98.51,98.51,0,0,0-7,9.31l.43-1Zm-16.55-7.15h0q5.81-.21,11.5-.5c-4.75,3.44-10.86,9.41-15.58,14.66,1.77-5.87,3.12-10.53,4.08-14.16ZM638,501.84h0c-2.35,5.27-7,16.12-7.94,21.58q-6.4.11-12.95.18c7.41-8.21,8.27-14.91,20.89-21.76Zm11.84-1.49h0c-3.81,10-10.24,28.14-3.48,20.21,4.27-5,10.51-16.76,15.51-22.24-1,12.9-4,21.91-3.85,24.53-7.5.18-15.31.35-23.33.5,3.35-5.14,8.75-16.44,15.15-23Zm10.39,19.37h0c-.08-3.09.17-2.19,2.19-12.26A84.08,84.08,0,0,0,664,497q10.93-1,21-2.24a200.21,200.21,0,0,1-11.27,21.77c19.19-40.5-5.64-2.27-13.52,3.18Zm-42.77-24.06h0c-4,0-8.11,0-12.21,0a3.34,3.34,0,0,0-.38-.45,2.89,2.89,0,0,0-1,.43l-5.59,0c1-2.13.42-3.53-2.26-3.73-.18,0-1.07,1.41-2.35,3.67h-.14a1.7,1.7,0,0,1-.15-1.09,7.17,7.17,0,0,1-.75,1.07q-8.79-.12-17.67-.36c.87-1.47,1.57-2.66,2-3.41a2.72,2.72,0,0,0,.16-2.21c15.38.52,30.58.85,45.24,1-1.27,1.14-2.91,2.86-4.93,5.08Zm-49-.68h0c-5.31-.18-10.65-.38-16-.63,0-2.21-1.29-1.92-3.31-.16-5-.24-10-.52-15-.83-.19-1.19-1-1.38-2.58-.15-3.33-.21-6.64-.44-10-.68.41-1.43.22-2.22-.89-2-.26,0-.63.51-1.09,1.26l-.28-.16-.5.71q-9-.68-17.83-1.49c.75-2,1.45-3.86,2-5.5,22.26,1.88,45.66,3.19,68.82,4-.39.61-1.69,2.67-3.45,5.59Zm-70-10h0c-.56,1.79-1.24,3.62-2,5.49l-3.4-.34c1.38-1.74,2.81-3.55,4.15-5.26l1.24.11Zm-12.13,4.46h0q-7.17-.76-14.13-1.61c.34-1.38.71-2.85,1.12-4.55a2.42,2.42,0,0,0,0-.85q8.63,1,17.58,1.86c-1.48,1.66-3,3.38-4.56,5.15Zm-18.5-7.27h0c-.4,1.68-.8,3.32-1.2,5-9.36-1.22-18.41-2.57-27.05-4.06.13-7.16-2.11-5.69-5.25-.91q-5.94-1.08-11.57-2.26c.84-6.1-.48-6.05-2.71-3.05l-.1-.14-.1.42c-.39.55-.81,1.18-1.25,1.88-2-.44-4-.88-5.94-1.34.58-6.57-1.36-5.34-4.19-1-2.76-.68-5.45-1.39-8.06-2.11.24-.57.45-1.12.65-1.62l-1.14-.23c.12-3.67-.64-3.15-2.05-.42l-1-.2s-.09.53-.24,1.38c-1.23-.36-2.45-.72-3.64-1.09a20.72,20.72,0,0,0,1.15-6.11l.49.19c17.63,6.7,43.51,11.68,73.35,15.34a3.08,3.08,0,0,0-.16.38Zm-77.95-16.46h0c0-.09,0-.19,0-.29l-.12.37a33.91,33.91,0,0,0-3.75,4.15q-3.34-1.28-6.6-2.75c.38-2.46.76-4.85,1.13-7.19q5.08,2.72,10.3,4.91c-.33.23-.66.51-1,.8Zm-16.72-1.58h0q-4-2.08-7.82-4.46c.41-1,.82-2.09,1.24-3.2a2.8,2.8,0,1,0-5.25-2c-.13.34-.37,1.12-.69,2.17-1.9-1.28-3.76-2.67-5.61-4.06.91-2.66,1.85-5.23,2.76-7.72a155,155,0,0,0,17.89,12.36,41.54,41.54,0,0,1-2.52,6.87Zm-22-14.54h0c-1.58-1.27-3.17-2.53-4.72-3.87.81-2.14,1.59-4.26,2.36-6.33a2.8,2.8,0,1,0-5.46-1.26c-.15.55-.46,2-.84,3.95-2.61-2.42-5.17-4.92-7.67-7.55,1.52-4,2.66-7.2,3-8.11a198.39,198.39,0,0,0,15.42,14.71c-.76,2.57-1.46,5.46-2.08,8.46Zm-18.7-24.76h0c-.1.38-.69,2.51-1.52,5.5q-4.15-4.62-8.08-9.58l3.17-7.84q4.15,5.13,8.49,9.93a2.76,2.76,0,0,0-2.06,2Zm-11.2-15.05h0c-.77,2.49-1.4,4.53-2,6.36-2.34-3.1-4.6-6.29-6.8-9.54a2.46,2.46,0,0,0-.93-1.7c-.08,0-.16,0-.24,0-.44-.66-.89-1.3-1.33-2,.72-1.36,1.45-2.71,2.15-4.11a2.8,2.8,0,1,0-5.3-1.82c-.07.2-.15.37-.23.57q-2.42-3.92-4.72-7.91c1.13-1.86,2.29-3.86,3.51-6.17a277.76,277.76,0,0,0,17.05,24.91,2.72,2.72,0,0,0-1.19,1.39Zm-21-28.39h0c-.43,1-.89,2-1.34,3q-2.3-4.17-4.46-8.44c.79-1,1.64-2.1,2.61-3.25a2.76,2.76,0,0,0,.78-2.36c1.7,3.14,3.47,6.23,5.26,9.28a2.77,2.77,0,0,0-2.85,1.8Zm-7.09-12.74h0c-.48.69-.88,1.29-1.31,1.94q-2.44-5-4.71-10.17c.63-1.07,1.27-2.17,1.94-3.35a2.8,2.8,0,0,0-1.35-3.73,2.75,2.75,0,0,0-3.29.77q-3-7-5.61-14.2l.87-1.42a2.8,2.8,0,0,0-1.2-3.77,2.77,2.77,0,0,0-1.59-.26c-1.83-5.23-3.55-10.48-5.12-15.75l2.18-3.8c0-.1,0-.2,0-.3a329.83,329.83,0,0,0,22.89,54,2.77,2.77,0,0,0-3.75.08ZM264,323.92h0c-2.07,5-4.47,11-6.44,16.52-.32-1.62-.56-3.26-.84-4.9,0-3.07,0-6.25-.09-9.35,1.17-4.9,2.44-9.89,3.69-14.68q1.72,6.21,3.68,12.41Zm-12.34,33.42h0c.23,1,.52,1.88.77,2.82a5.64,5.64,0,0,1-.77-2.82Zm53.61,88.8h0a40.18,40.18,0,0,0,8.18-7.49c-.42,2.18-.92,4.83-1.59,8.26.11-.26.19-.47.31-.73a24.05,24.05,0,0,0-.22,7.51c-2.32-2.44-4.52-5-6.68-7.55Zm239.86,77.25h0c1.52-1.1,3.86-3.69,7.28-8.34,5.05-6.86,8.74-12.41,11.33-15.12.58,0,1.17,0,1.75,0-4.22,7.23-9.39,16.65-12,23.58q-4.2-.06-8.38-.15Zm42.07-15.28h0c-3,6.19-5.63,12.51-6,15.68q-6.49,0-13-.08c6-4.56,13.13-10.27,19-15.6Zm-1.86,15.68h0a104.56,104.56,0,0,0,10.43-11.41,38.18,38.18,0,0,0-2.5,10.1l1.21,1.29-9.14,0Zm86.9-1.34h0c.52-.72,1.08-1.53,1.75-2.54,3.66-5.56,9.14-16.79,13.31-25.44l3.05-.4c-.37,2.61-.76,5.38-1.1,8,.54-2.68,1-4.76,1-4.76l.57-3.31c1.56-.22,3.1-.46,4.63-.69q-3.68,7.88-6.94,14.78c.18-1.78.42-3.84.7-6-.42,2.14-.85,4.63-1.06,6.77-2.25,4.78-4.37,9.2-6.32,13.31-3.13.1-6.32.21-9.63.3Zm45.49,61.76h0c.11-.45.22-.93.36-1.5a19.1,19.1,0,0,0-.91,1.8c.48-3.63,1-5.59,1-8.92,1.29.3,2.59.64,3.92,1-1,1.71-2.51,4.34-4.38,7.62ZM710.13,574h0l0-.07c1.72.29,3.47.64,5.27,1-1.15,3.06-2,8-3.37,10.48-.85-5.53-1.45-9.21-1.92-11.44Zm.91,12h0c-1.26-.22-2.6-.41-4-.61a66.3,66.3,0,0,1,2.16-8.82A38.65,38.65,0,0,1,711,586Zm-5.41-2.69h0c-.8-3-1.37-5.71-1.81-7.91,0-.74.1-1.52.14-2.33,1.37.17,2.78.35,4.22.57a97,97,0,0,1-2.55,9.67Zm-2.17-9.75h0l-.11-.55.53,0a1.86,1.86,0,0,1-.42.5Zm.17,11.34h0l-.69-.11c.08-.54.16-1.14.23-1.78.17.7.31,1.29.46,1.89Zm-2.51-11.57h0a1.74,1.74,0,0,1-.19-.26l.14.59c-.21,1.15-.46,2.55-.74,4.18-.61-2.16-1.18-3.9-1.69-5.27l2.58.21c0,.2-.06.34-.1.55Zm-9.34-1.08h0l2.26.06c-.21,1.43-.37,3.07-.47,4.74-.64-1.77-1.27-3.47-1.79-4.8Zm-4.88,6.48h0c-1.29-2.24-2.5-4.64-3.39-6.37,1,0,2-.07,3-.09a41.74,41.74,0,0,0,.36,6.46ZM678,573.25h0l-.6-.58.59,0a3.12,3.12,0,0,0,0,.61Zm19.44,8.8h0c.22.63.44,1.22.64,1.79l-.67-.16c0-.52,0-1.07,0-1.63Zm15.09,4.21h0c.8-2.08,2.08-5.22,4.17-9.71a93.31,93.31,0,0,0-.41,9.84l0,.06,0,0a1.85,1.85,0,0,0,0,.27c-.1.19-.22.38-.32.57a23.24,23.24,0,0,0-3.47-1Zm-38.27-22.63h0c10.49-20.69,23.86-50.17,33.21-70.3a5.31,5.31,0,0,0,.14-2.05l3.68-.74c-4.44,12.33-26.07,61.51-29.07,69.89h0c1.89-4,37.86-72.27,32-74.33-2-.72-9.93-1.08-22-1.33,0-.13,0-.32.05-.44.38-.72.65-1.19.79-1.39a.64.64,0,0,1-.7,0c.11-3.14-.88-1.89-2.67,1.74-38.7-.72-115.72-.55-184.49-6.24,2.26-9.3-1.75-7.15-8.16-.7-39.81-3.61-76.14-9.32-99.65-18.5C282.29,414.4,208.08,155.33,339.06,115.73a5.51,5.51,0,1,0-1.22-11c-71,21-88.22,96.6-73.11,173.85a2.87,2.87,0,0,0-1.41,1.5c0,.07-.16.78-.41,1.92-4.11-22.15-5.77-43.44-4.79-62.08,4.11-77.88,22.79-90,81.68-118.63a2.23,2.23,0,0,1,0,.23,5.53,5.53,0,0,0,7.16,3.1c95.2-11.18,497.82-35.82,600.7-14.56,70.62,29.23,98.66,119.44,92,201-1.71,2.3-1.6,3.38-.31,3.62-5.93,63.12-32.7,120.36-76.6,139.06-23.74,10.11-42.38,16.71-57.3,21-.59-.39-1.26-.15-2,.58a220,220,0,0,1-25.38,5.73c-.46-.67-.95-.56-1.51.24-3.95.59-7.48,1-10.64,1.2-.71-1.19-1.69-1-2.8.17-21.47,1.14-26-3.73-46.13,14.8l-2,.22,1.92-.12c-9.83,9.1-23.37,23.76-44.43,47.45a5.5,5.5,0,0,0-1.22,6.08,2.72,2.72,0,0,0-2,1.33,2.81,2.81,0,0,0,1.07,3.83c2.44,1.07,4.42,2,6.06,2.7a2.63,2.63,0,0,0-.43.63c37.79,14,21.15,7.92,55.22,20.23.25.47.55,1,.89,1.58-.44.36-.9.74-1.36,1.09-19.1,14.6-39.81,30.58-60.81,46.67a11.86,11.86,0,0,0-.53-2.55c-1.69-4.52-3.09-2.52-4.21,2.5a2.59,2.59,0,0,1-.48-.92s0,1.15,0,3c-.13.69-.25,1.42-.36,2.17q-8.4,6.42-16.8,12.8c-1.56-3.72-3.21-1.35-4.73,3.6-15.56,11.8-31,23.37-45.72,34.18a2.07,2.07,0,0,0-.28-.55c-3.1-3.81-4.45-.9-4.92,4.34-4.31,3.14-8.57,6.24-12.74,9.22,54.12-115.4,90.58-107.32-5-113.42Zm87.12,88.62h0c-.29-3.11-.52-6.21-.66-8.78-.38-7.36-.71-12.61-1-16.17.09-.55.2-1.17.32-1.84l1-.76c0,1.38-.14,11.93.66,19.73-.15,2.59-.21,4.19-.22,4.24a3.51,3.51,0,0,1,.66-.84,18,18,0,0,0,.85,3.41l-1.58,1Zm-75.67,35.32h0l0,0c.05.21.83,3.18,1.31,5.7-2.71-2.62-6.6-6.42-7.17-6.93,0,0-.08,0-.11,0l5.69-4.26c3,6.71,5.29,11,7.08,13.44l-.91.54c-.46-1.79-1.73-4.58-4.2-8.82a6.75,6.75,0,0,0-2-2.11,4.63,4.63,0,0,0,.3,2.53Zm6.16-10.43h0c.06,2.06.18,4.12.3,6.07-.78-1.61-1.45-3-1.78-3.75a2.77,2.77,0,0,0-.49-.85l2-1.47Zm56.82-43h0l8.09-6.18c-1.54,9.16-3.81,25-7.93,31.63-1-5.78-.06-17.41-.16-25.45Zm-16.53,12.58h0c-.86,4.77-2,13-2.62,17.69-.2-1.43-.31-2.76-.37-3.21-.7-5.26-1.29-8.72-1.8-10.85l4.79-3.63ZM698.07,682.8h0a27.49,27.49,0,0,0,3.68,7.05L698,692.09a83.51,83.51,0,0,0,.05-9.29Zm1.22-11.26h0l2.78-2.1c-.43,2.79-.76,5.9-1,8.77-.63-2.22-1.23-4.54-1.78-6.67Zm6.18,10.16h0a40.06,40.06,0,0,0,1.39,5l-1.68,1c.09-1.18.19-3.43.29-6.09Zm1.67-16.08h0l.45-.35c-.08.69-.16,1.38-.22,2.1-.08-.63-.15-1.21-.23-1.75ZM710,684h0l.18.18-.15-.36c.59-3.51,1.13-9,1.65-16.86,1.86,7.09,2.71,13.83,3.75,14.46-1.87,1.15-3.73,2.32-5.61,3.47.06-.3.12-.53.18-.89ZM713.3,661h0l5.25-4c-.65,3.33-1.38,9-2.68,15-.15-.82-.24-1.39-.24-1.4A80.65,80.65,0,0,0,713.3,661Zm6.48,2h0c.89,4.58,2.21,10.84,3.48,13.64-2.39,1.5-4.79,3-7.18,4.45.85-1.52,1.93-6.83,3.7-18.09Zm.81-7.51h0c1.46-1.09,2.95-2.22,4.43-3.35-.57,4.86-.94,12.63-1.44,17.94-1.36-7.85-2.28-12.42-3-14.59Zm5.86,12.31h0c.19-3.57.22-7.68.41-11.6,1,5.17,1.7,9.34,2.21,11.69v0h0c1.09,5.1,1.45,1.48,3.52-19.36,0,0,0,.07,0,.1,2.84,6,7.18,33.85,12.14,2a79.55,79.55,0,0,0,1.6,11.37q-10.3,6.6-20.65,13.1a64.57,64.57,0,0,0,.73-7.31Zm8.76-23.39h0l5.24-4c-.58,3-1.1,6-1.55,8.86-.38-1-.87-2.2-1.53-3.63a2.72,2.72,0,0,0-2.16-1.25Zm20.41,5h0c1.43-5.85,2.24-9.32,2.71-11.48.29,5.24.67,10.85,1.23,15.56l-6.13,4c.69-2.22,1.41-4.85,2.19-8.06Zm69.22-72h0a14.51,14.51,0,0,0-.53-2.17c1.48-1.2,2.86-2.35,4.15-3.42-.45,6.33-.64,17.09-1.19,25.63-.74-7.35-1.33-12.67-1.83-16.3.22-1.74.4-3.09.52-3.86l-1.12.12Zm-2.36,3.17h0c-.9,7-2,18.72-4.23,27-.48-8.39.31-20.53-.78-26.82,2-1.62,3.9-3.14,5.7-4.61-.09.43-.18.91-.28,1.48l-.45,0s0,1.1,0,2.89Zm-13.57,9.78h0a7.17,7.17,0,0,0-1-2l4.17-3.29c-1,3.92-2,8.79-2.95,13.61.09-4.28.1-7.66-.17-8.36Zm-18.09,16.3h0c.09-.44.13-.7.16-.85a4.1,4.1,0,0,0-.07.83l-.09,0ZM788.37,613h0c0-1.86,0-3.71,0-5.57a2.82,2.82,0,0,0-1.65-2.5l8.15-6.34c-1.18,2.5-2.4,5.44-3.59,8.54-.83-6.35-1.49-2.42-2.93,5.87Zm2.17-3.85h0c-.13.34-.25.67-.37,1l.3-1.62c0,.17,0,.4.07.6ZM783.67,630h0c-.26,1-.43,1.65-.51,2a2.61,2.61,0,0,1,.68-.9c.12.76.27,1.44.41,2.06-.4,1.62-.84,3.24-1.3,4.85-1.22-6-1.09-21.07-1.85-28.85l1.68-1.29c0,2.45-.14,14.46.89,22.09Zm-16.31,11.83h0c.62,2.66,1.39,4.48,2.33,5-1,.65-2,1.27-2.92,1.91.21-1.65.41-4,.59-6.89Zm3.07-24.4h0l1-.75c-.33,1.47-.62,3.13-.89,4.91,0-1.43,0-2.82-.08-4.16Zm2,27.58h0a7.15,7.15,0,0,0,.61-2,9.14,9.14,0,0,0,.45,1.31c-.37.23-.72.47-1.09.71,0,0,0,0,0,0Zm3.2-31.58h0l1.32-1c-.2,1.39-.4,2.87-.59,4.44a14.32,14.32,0,0,0-.49-2.83l-.24-.6Zm3.68,3.7h0c1.18,8.75,1.56,17.29,2.09,22-1.07.71-2.14,1.42-3.22,2.12.74-6.18.83-16.07,1.13-24.11ZM785,635.4h0a1.89,1.89,0,0,0,.8.88l-1.2.79c.13-.51.26-1.09.4-1.67Zm3.14-1h0a33.56,33.56,0,0,0,3.47-11.53c.25,3.73.51,7.11.81,9.06-1.57,1-3.12,2.06-4.68,3.09.13-.21.26-.36.4-.62Zm5-4.5h0c-.31-4.57-.58-8.46-.81-11.72A46.82,46.82,0,0,1,796.59,604c-.31,7.69-.51,19,.88,24.54-1.31.89-2.63,1.76-4,2.63.19-1.45.4-3.6.63-6.62-.18.69-.66,3.29-1,5.35Zm8.59-36.68h0l2.56-2a55,55,0,0,0-2,7.13,25.11,25.11,0,0,0-.14-2.84,15,15,0,0,0-.43-2.28ZM805,616.78h0a16.52,16.52,0,0,0,1.48,5.77l-2.74,1.81c.44-2.19.85-4.79,1.26-7.58Zm8.85-11.18h0c.43,4.65,1.11,8.65,2.12,10.64L810.43,620c1.49-3.37,2.58-8.64,3.46-14.35Zm9.37-8.31h0c.44,5.2,1.11,10.08,2.13,12.72l-4.89,3.25c.86-3.44,1.86-9.63,2.76-16Zm8.14-12.72h0c1.62,8.52,3.42,15.48,4.79,18.27l-6.53,4.33c.78-5.06,1.36-14.26,1.74-22.6Zm.71-15.85h0c1-.87,2-1.68,2.8-2.42-.15,6.05.11,14.72.39,22-1.29-7.54-2.55-15.9-3.19-19.54Zm5.57,10.88h0s-.1-3.49-.25-7.46c2.05,8.54,4.92,19.71,7.11,25.17l-6.25,4.14c.36-3.44.24-10.32-.61-21.85ZM677.19,690.12h0c3.51,2.68,8.12,6.25,11.22,7.75l-4,2.38c-4.54-6.46-4-5.69-7.25-10.13ZM851.1,593h0l-3.39,2.25c0-2.08,0-4.79-.22-8.3,0,0,0-.26-.06-.7A55.3,55.3,0,0,1,851.1,593Zm-5.83-10.29h0c.58,5.35,1.06,10.44.84,13.59l-.21.15c-1.52-4.44-3.72-14.28-5.15-21,1.55,2.48,3.1,5,4.52,7.28Zm-12.7-21.54h0c-.32-.38-.63-.76-.9-1.1l1.57.58-.67.52ZM788.37,540h0c-1.9-.95-3-1.57-5.89-3.23.85-.8,1.65-1.6,2.48-2.4,3.56,2.92,8,6.08,11,6.38-.25.3-.5.59-.76.88L788.37,540Zm24.77-17.78h0c-.4-1.61-2.73-9-4.56-14.86.8-1.05,1.59-2.1,2.38-3.16,2.66,5.07,5.84,10.73,7.71,12.61-1.66,1.57-3.51,3.37-5.53,5.41ZM830,507.13h0c-4.54-13.79-2.73-8.55-6.82-20l.89-1.26c7,21.61,14,15.1,5.93,21.22ZM1016.64,424h0c.36-2.95.6-7,.77-11,.94,2.64,2,5.25,3,7.41-1.24,1.21-2.47,2.44-3.75,3.63Zm43.68-65.12h0c-1.78-.89-4-1.87-6.74-2.95,2.43-.39,5.38-.9,8.28-1.47-.51,1.48-1,3-1.54,4.42Zm9.17-8.11h0v0S1069.49,350.78,1069.49,350.79Z" transform="translate(-241.46 -73)"/></svg>