<svg id="Layer_1" data-name="Layer 1" xmlns="http://www.w3.org/2000/svg" viewBox="0 0 860.92 626.14"><defs><style>.cls-1{fill:#231f20;fill-rule:evenodd;}</style></defs><title>quote10</title><path class="cls-1" d="M1108.71,215.16c.06-.14.13-.26.2-.4a4.61,4.61,0,0,0-7.49-5c-1.3-2.08-4.12-3.7-9-4.69-36.86-7.57-68.82-4.4-117.68-13.5a216.5,216.5,0,0,0-2-37.55c-.72-18.77-2.72-24-4.8-22-4.38-15.31-10.77-30.95-19-52.52a4.58,4.58,0,0,0-1.61-1.89c-21.28-29.13-94.68,65-117.09,66.72C805.45,100.37,817,121.51,793.9,78a4.55,4.55,0,0,0-7.41-2.57C770.25,58,756.32,81.3,687.23,143.39,647.29,179.27,647.75,86.26,615,98.74c-12.44,4.75-21.64,10.36-28.56,16.37a4.57,4.57,0,0,0-5.85.47C573.27,126.78,546.34,163.3,548,178c-10.75.71-30.11-6.37-67.44-25.91-14.28-7.48-23.53-7.89-29.57-4a4.45,4.45,0,0,0-1.45.38c-23.18,14.31-22.79,57.19-22.74,85.21C331.7,222,295.14,218.08,288.82,225.5a4.44,4.44,0,0,0-1.31,0,4.65,4.65,0,0,0-3.46,5.57c4.47,40.27-3.69,27.72,33.23,58.91l3.8,3.24c.28,3.07,1.47,4.86,4.34,3.75,1.35,1.16,2.34,2,3.23,2.63.93,3.05,2.07,3.64,4,2.32.4.21.86.41,1.35.63.5,3.22,1.83,5.26,4.84,3.53a5.22,5.22,0,0,0,3.27.83C314.56,324.75,237,375.52,253.2,381l.06,0a4.87,4.87,0,0,0,.08.93c21.45,49.83,23.64,38.34,81.47,30.55l8.78-1.17c.42,1.05.8,1.13,1.14-.15,11.09-1.48,16.86-2.22,21.39-2.95,0,.58.05,1.14.08,1.8h.1l-.05.44c.94,1.12,2-.26,3.13-2.81,1.54-.3,3.05-.61,4.74-1,.68,3,1.48,4.47,2.44,2.76l-.07-.22h.07c.24-1.21.47-2.29.67-3.28,2-.48,4.4-1.05,7.3-1.76.05.18.07.34.13.52l.34-.64,7.23-1.74c-.51,5.65-1.47,12.56-2.85,20.93-2.27,12.84-5.09,26.6-7.13,38.83l-.78,4c-3.11,15.9-3.49,26.37-1.86,32.84a4.56,4.56,0,0,0-2.93,5.32c29.29,56.39,51,1.36,84.59.62,10.69-.23,37.53,74.17,49.65,85a4.56,4.56,0,0,0,4.88,2.62c9.34-3.33,66.77-72.37,76.34-83.19,13.1,5.75,37.22,68.78,46.66,67a4.6,4.6,0,0,0,9.16.84c8.7-8.21,63.89-60.47,77.26-65.37,45,51.17,27.13,66.93,72.87,25.91.09.81.13,1.64.23,2.46h0c.14-.54.23-1.07.36-1.61-1,11.74-.59,19.91,2.49,20.11,17.08,1.1,32.73-8.21,39.93-8.74.25,13.4-47.45,98.8-51.2,121.13a4.59,4.59,0,0,0-3,1.76,4.64,4.64,0,0,0,.89,6.49c34.14,28.31,13.25,20.87,78.35-23.85,11.78-8.09,100.15-58.06,103.11-63.73,2-3.8,1.53-9.5,0-15.67-.49-6.1-2-14.24-4.59-25.37a4.58,4.58,0,0,0-4.88-3.76,5.6,5.6,0,0,0-.36-1.95c-.3-6.69-12.09-13.56-40.69-25.17,3.38-6,10.26-19.3,16.49-31.55,10.92,10.55,26.82,14.52,52.1,21.58,34.46,9.62,34.38-8.06,24.71-31.63a8.14,8.14,0,0,0-1.14-3.61c-.38-.54-.71-1-1.09-1.57-13.44-29.93-38.7-66.49-29.26-69.77a68.19,68.19,0,0,1,10-2.52c2.31,2.22,3.9,1.46,4.84-.81,5.23-.78,11-1.4,16.94-2,.58,1.51,1.65,1.16,3-.28l8.6-.78c0,.76.19.8.73-.08,5.41-.5,10.83-1.05,16.12-1.72.18.35.43.27.75-.09,24.72-3.21,45.63-9.33,43-27.65a6.86,6.86,0,0,0,.47-.63h0a3.82,3.82,0,0,0,.32-.54c7.28-11.17-39.35-35.15-60.42-54.81a4.73,4.73,0,0,0,1.52-1.09c25.4-20.53,78.46-49.7,84.5-75.15,2-8.49,1.14-13.77-2.14-19.94ZM507,499.52a2.06,2.06,0,0,1,2.84-.7c1.59,2,.94.82,1.8,3.5-2.77.49-1.46.54-3.93,0a2.06,2.06,0,0,1-.71-2.84Zm-2.35-15.95c4.21.22,4-.52,8.14.91a18.76,18.76,0,0,1-7.95,3.23,2.07,2.07,0,0,1-.19-4.14ZM492.54,471.5c4.65-.89,8.61-3.52,12.79-2a83.62,83.62,0,0,1-12.52,6.09,2.07,2.07,0,0,1-.27-4.13Zm-.46-8.26a2.07,2.07,0,0,1-3.41-2.36c3.56-3.57,7.06-4.32,12.06-4-2.91,2.1-6.86,3.67-8.65,6.36Zm492.66,2.27c-.82,3.93-.16,2-2.07,5.76-1.91-3.76-1.24-1.83-2.07-5.76a2.07,2.07,0,0,1,4.14,0Zm-8.4,3.45c-3.42,6.66-1.51-11.78-1.49-12.2A2.07,2.07,0,1,1,979,457a104.82,104.82,0,0,1-3,11.92l.36,0Zm-8-6.9c-3.76,9.69-.33-21.6-.33-21.6a2.07,2.07,0,0,1,4.1.64c-1.89,7.62-3.6,13.22-4.61,20.95h0v0c.07.09.81,0,.86,0Zm-12.17-9.61c-3.45,8.72.41-22.55.41-22.55.13-1.1.64-1.76,1.14-1.48a2.91,2.91,0,0,1,.66,2.54c-.58,3.64-3.16,17.64-3.19,21.26a13.14,13.14,0,0,0,1.52-1.66l-.54,1.89Zm-11.26-5.36.28-.22c-.1-5.79,3.82-26.22,3.82-26.22a2.07,2.07,0,0,1,4.14,0c-2.43,14.05-2.86,13.85-6.84,25.27l1.32-1.12c-1.71,4.25-2.36,4.33-2.43,2.22a.71.71,0,0,0-.29.07Zm-1-37.39a2.07,2.07,0,0,1,4,1.19c-7.11,19.35-3.16,10-11.76,28.17,4.89-19.43,2.3-9.64,7.79-29.36ZM836.59,471.84c-7.9-6.45-4.25-2.84-10.89-10.89a2.07,2.07,0,0,1,3.38-2.39c5.23,8.94,2.73,4.51,7.51,13.28ZM836,488.51c1.9,1.51-3.67.82-13.87-11.05a2.07,2.07,0,0,1,3.6-2c.79,1.16,10,13,10,13.19-.17.25.26-.07.26-.09Zm-11.84,7.78a2.07,2.07,0,0,1,2.93-.07c1,1,9.57,9,9.68,9.21.09,0,.31-.18.39-.24,2.29,1.65-3.22,1.5-12.94-6a2.09,2.09,0,0,1-.06-2.93Zm-2.73,21.37a2.07,2.07,0,0,1,2.68-1.17c10.22,4.55,5.1,2.38,15.35,6.53-11.41-.43-5.79.45-16.86-2.68a2.06,2.06,0,0,1-1.17-2.68Zm-367.74-273a2.08,2.08,0,0,1,1.94,2.2c-1.76,4.41-3.53,7.86-7.82,10.22,1.12-3.92,2.76-6.5,3.69-10.48a2.06,2.06,0,0,1,2.19-1.94Zm-15.46,2a2.08,2.08,0,0,1,.72,2.84c-.13.19-12.44,20-13.17,15.18a1.29,1.29,0,0,1,.49-1.11c6.29-10.17,3.3-4.92,9.13-16.2a2.06,2.06,0,0,1,2.83-.71Zm-16.28,2a2.07,2.07,0,0,1,3.42,2.35c-1.12,1.68-9.12,15.34-12.57,18.09v0c-.44.35-.81.53-1.08.47a1.32,1.32,0,0,1,.24-1.39c3-6.53,6.59-13.25,10-19.52Zm-41.75,20.24a.44.44,0,0,1,.19-.17c1.41-5.87,7.26-22,7.26-22a2.08,2.08,0,0,1,2-2.16,2.06,2.06,0,0,1,2.15,2c-1.39,4.7-6.52,18.41-10.3,22.56l-.22.4c-1.31,2.17-1.42,1.44-.9-.76l-.17.12Zm.17-.12,0-.05.08,0-.1.07Zm-2.28-25.61A2.08,2.08,0,0,1,380,245.4c-2.52,8.7-4.95,16-10.17,23.59l-1.22-.16a1.84,1.84,0,0,1,.11-.62h0a121.72,121.72,0,0,0,7.18-23.13,2.07,2.07,0,0,1,2.22-1.91Zm-11.05,3.25a2.06,2.06,0,0,1,1.37,2.59c-2.26,5.77-4.6,11.41-6.95,17.13a1.6,1.6,0,0,1-1.18,1.5l-.66-.53c-.11-2.74,3.95-16.21,4.84-19.32a2.05,2.05,0,0,1,2.58-1.37Zm-10.9-.67a2.08,2.08,0,0,1,2,2.13,99.84,99.84,0,0,1-5.91,14.36l.11,0a5.94,5.94,0,0,1-1.25,2.21l.11-.15a2.81,2.81,0,0,1-.3.57c-4.47,6.25,3.1-17.06,3.1-17.07a2.08,2.08,0,0,1,2.13-2Zm-5.75-1.09a160.69,160.69,0,0,1-7.79,18.87c0-.05,0,0,0-.11h0c-.07.1-.2.25-.43.55l-.58-.51c.17-3.83,3.61-15,4.69-18.79a2.07,2.07,0,1,1,4.14,0Zm-14.15-3.51a2.07,2.07,0,0,1,2.07,2.07c-.15,1.17-2.71,15.1-1.78,15.53,0,5.33-2.36-11.46-2.36-15.53a2.06,2.06,0,0,1,2.07-2.07Zm725.22,122.27c-.42-2.92.62-3.19,1.51-6.22a2.08,2.08,0,0,1,3.87,1.5c-1.73,2.36-2.66,3.53-5.38,4.72Zm-10.36-2.3c-1-2.31,5.55-8.33,7.39-11.07a2.07,2.07,0,0,1,3.62,2,60.61,60.61,0,0,1-11,9.06Zm.31-14.12c-7.33,8.4-3.63,4.7-11,11.24,4.16-8.81,1.73-4.29,7.46-13.49a2.08,2.08,0,0,1,3.49,2.25Zm-12.33-5.22c-3,6.89-1,3.82-5.81,9.28a84.88,84.88,0,0,1,1.67-9.14,2.07,2.07,0,1,1,4.14-.14ZM1027.82,345c-2.7,3.13-.1-5.48,3.37-10.33a2.07,2.07,0,0,1,3,2.82c-1,.92-7,5.84-6.4,7.51Zm1.68-14.32c-3.73,5.24-1.62,2.88-6.28,7.13,1.16-5.92.35-3.13,2.34-8.41a2.07,2.07,0,0,1,3.94,1.28Zm-11.69-4.23c-1.29,3.28-.41,1.79-2.64,4.46-1.5-3.11-1-1.52-1.49-4.75a2.07,2.07,0,0,1,4.13.29Zm69.88-111c-1,3.66-3.18,5.92-6.39,7.93.27-4.33,2.26-5.27,2.25-8.18a2.07,2.07,0,0,1,4.14.25Zm-23.31,15.11-.05,0c1.83-4.94,3.83-8.79,5.41-14.12a2.07,2.07,0,0,1,4.14.12c-1.67,4.22-5.24,12-9.14,14.92l-.6-.38a.73.73,0,0,1,.24-.52Zm.65.4h0v.13a1.12,1.12,0,0,1,0-.16l0,0Zm-1.63-20.13a2.07,2.07,0,0,1,1.13,2.7c-10.39,16.71-5.32,8.84-15.15,23.66,6.36-16.6,2.65-8.16,11.32-25.24a2.07,2.07,0,0,1,2.7-1.12Zm-29.68,28.41c-.06-.06-.07-.23-.26-.22l.4-.11s8.19-20.46,10.65-26.44a2.07,2.07,0,0,1,4,1.12,281.63,281.63,0,0,1-14.78,25.65ZM1021,236.37v0c-.07-.2-.27-.2-.43-.16-.44.7-.58.8-.27,0a1.09,1.09,0,0,1,.09-.21c.72-4.1,8-22.33,9.36-25.46a2.07,2.07,0,0,1,3.56,2.13c-.1.15-9.56,18.17-12.39,22.92a1.32,1.32,0,0,1,.08.74.47.47,0,0,1,0,.17c0-.06,0,0,0-.13Zm-9.35-6.56h0a.47.47,0,0,0-.29-.31l.34-.07c.11,1.66,1.86-12.38,2.23-15.19a2.08,2.08,0,1,1,4.15-.1c-1.21,4.76-3.32,11.62-6.42,15.67Zm-4.79-15.1c-.9,6.52-1.13,7.79-5.53,12.7.71-5.78,1.59-6.41,1.38-12.6a2.08,2.08,0,0,1,4.15-.1Zm-13,9.45c-.29,1.06-2.72,3.6.6-10.21a2.07,2.07,0,1,1,4,1.05c-.49,1.07-3.89,8.24-4.61,9.16Zm-.28-.18h0c-.15,0-.31,0-.37,0,.06-.17.23-.11.37,0Zm-6.83-9.5c-.7,3.81-.76,4.87-2.94,8.05-1.33-3.06-.85-4.54-1.2-8.05a2.07,2.07,0,1,1,4.14,0ZM395.49,352.58c1.84,8.4,1.35,4.13,1.43,12.86a116.71,116.71,0,0,1-5.46-11.88,2.07,2.07,0,0,1,4-1Zm-6.34,8.3a1.21,1.21,0,0,0,.3,0c.7,1.25-2.33.69-6.36-16.4a2.07,2.07,0,1,1,4.1-.56c.51,4.66,2,12.76,2,17Zm-12.06,2.83.19.61c.77,8.32-7.58-14.48-7.58-14.48a2.08,2.08,0,0,1,3.84-1.58c1.14,5.42,1.68,10.87,3,16l.57-.52Zm-.84.77h0c.06-.06.1-.09.15-.09l-.12.09Zm-30-13.16a2.09,2.09,0,0,1,2.38,1.71c1.25,6.56,3.92,13.86,4.85,19-2.4,1.75-8.76-17.77-8.94-18.37a2.06,2.06,0,0,1,1.71-2.37Zm-8.26,2c2.94,10.22,1.43,5.25,4.67,15.23.37.86.25.88-.17.34l-.53,0c.19-.29.18-.3.27-.37A119.34,119.34,0,0,1,333.92,354a2.07,2.07,0,0,1,4.09-.68Zm-2.34,16.61a2,2,0,0,0,.29-.17c.79.63-.95,3.16-8.86-13.42A2.07,2.07,0,0,1,331,355c.27.82,4.92,14.62,4.92,14.76s-.27,0-.27.16Zm-16.16-14a2,2,0,0,1,2.38,1.68c.72,3.4,2.63,9.52,2.86,12.72-.94,2.14-6.85-11.78-6.93-12a2.07,2.07,0,0,1,1.69-2.39Zm-9.32,7.35a2.07,2.07,0,0,1,2.92.27c2.49,5.2,1.66,2.63,2.72,7.64-4.19-2.78-2.2-1.14-5.9-5a2.06,2.06,0,0,1,.26-2.91ZM943.28,117c-1.2-3.83-.38-5.14-.63-9.5a2.07,2.07,0,0,1,4.14,0c-.88,4.86-1,5.4-3.51,9.5Zm-5.17.86c-1.64-9.52,0-13-2.5-23.1a2.07,2.07,0,0,1,3.84-1.54c1.71,10.85.94,14.07-1.34,24.64Zm-9.77.26h-.06c-.43-17.27.05-8.67-1.42-25.8a2.07,2.07,0,0,1,4.09-.69c0,5.41.61,20.61-1.43,26.46v0h0c0,.15-.11.3-.16.44-.58.24-.29.24-.88,0a2.4,2.4,0,0,1-.12-.44Zm-7.58,4c-1.44-4-3-20.1-3-20.1a2.07,2.07,0,0,1,4-1.17c.56,14.63.62,8.22.06,20.43a2.63,2.63,0,0,1,0,1.34c-.28.62-.58.42-.88-.38h-.14l.08-.12Zm-6.36,1.47c.1,1.47-1.68,2.83-4.25-15.54a2.07,2.07,0,1,1,4.14,0c0,1.29.31,15,.15,15.57h0l0,0Zm-.72.06h0a.52.52,0,0,1,.16-.17.86.86,0,0,1-.16.19v0Zm-9.07,5.88,0,.05h0s0,0,.06,0Zm0,.05-.14.18a.44.44,0,0,1,.12-.19,116.7,116.7,0,0,1-2.13-12,2.07,2.07,0,1,1,4.08-.68,87.27,87.27,0,0,1-.81,12.86c-.07,1.33-.38,2.52-1.12-.19Zm-8.17,6.95c-.68-1.16-3-13.16-3.87-16.08a2.07,2.07,0,1,1,3.73-1.79c.92,4.91,2,12.44.79,17.48h0a.65.65,0,0,1,0,.22l-.65.18Zm-.07-.37h0v0Zm-7.92-7.4c-.86,8.14-.25,4.21-1.78,11.79-2.34-7.51-1.52-3.59-2.36-11.79a2.07,2.07,0,1,1,4.14,0Zm-11.55,8.14c.08,1.3.64,10.68-.58,11.7h0l0,0c-1.22-.37-3.13-9.68-3.41-10.77a2.07,2.07,0,1,1,4-1Zm-10.07,6.46a2.07,2.07,0,0,1,2.07,2.07c-.82,4.31-.15,2.19-2.07,6.33-1.91-4.14-1.24-2-2.07-6.33a2.07,2.07,0,0,1,2.07-2.07Zm-10,5.19a2.07,2.07,0,0,1,2.31,1.81c-.11,1.2-.29,3.27-.33,4.57-1.29,1.66-3.59-3.56-3.78-4.07a2.07,2.07,0,0,1,1.8-2.31Zm-71-39A2.19,2.19,0,0,1,788.5,111c.26,5.83-.09,7.7-2.1,13.14-2.07-4.47-.87-6.5-2.1-11.87a2.19,2.19,0,0,1,1.46-2.73Zm-7.82-11A2.06,2.06,0,0,1,780,100.6c-.87,12.07-.25,6.22-1.77,17.55-2.37-11.28-1.55-5.44-2.37-17.55a2.07,2.07,0,0,1,2.08-2.06ZM767.7,94a2.07,2.07,0,0,1,2.48,1.57c.2,13.67.69,6.9-1.44,20.3-1.76-13.13-.9-6.67-2.6-19.39A2.08,2.08,0,0,1,767.7,94Zm-11.33,10.31a2.07,2.07,0,0,1,2.07,2.07c-.47,4.73-.92,10.45-1.67,15.17l.11.54c-.22,2.54-.57,1.85-.94-.27l-.05,0,.05,0c-.78-4.51-1.64-15.43-1.64-15.44a2.07,2.07,0,0,1,2.07-2.07Zm-13,8.91a2.06,2.06,0,0,1,2.12,2c-.55,6.4-1.39,10.15-1.15,16.56.37,2-2.34,5.16-3-16.47a2.07,2.07,0,0,1,2-2.11Zm.12,19h0a.28.28,0,0,1,.09-.14.66.66,0,0,1-.07.15Zm-9,7.81,0,0c.41,1.51-1.06,3.68-5.73-12.82a2.07,2.07,0,1,1,4.08-.68c.41,3.1,1.73,10.66,1.7,13.53Zm-.78.16h0a.39.39,0,0,1,.19-.25s0,.07-.18.26Zm-12.93-8.37a2.06,2.06,0,0,1,2.68,1.16c2.07,8.27,1.38,4.09,2.11,12.55-4.4-7.19-2.42-3.51-6-11a2.07,2.07,0,0,1,1.16-2.68Zm-7.67,10a2.07,2.07,0,0,1,2.63,1.28,54.78,54.78,0,0,1,1.2,7c-1.37,1.53-4.85-5.15-5.11-5.65a2.05,2.05,0,0,1,1.28-2.63Zm-7.58,6.51a2.09,2.09,0,0,1,2.27,1.86c.24,4.7,1.08,4.11,1.95,7.11-3.08,1.17-5.44-4.78-6.08-6.7a2.08,2.08,0,0,1,1.86-2.27Zm-82.88-16.9a2.07,2.07,0,0,1,2.54,1.43,6.12,6.12,0,0,1-1.12,2.57c-2.36-.5-1.46.07-2.86-1.45a2.07,2.07,0,0,1,1.44-2.55Zm-8.27-6.25a2.07,2.07,0,0,1,2.69,1.15c1,5.78.67,2.93,1,8.53-3.91-4.28-2.33-1.94-4.79-7a2.07,2.07,0,0,1,1.14-2.7Zm-1.51,14.57.27-.29c.78,1.43-.51,6.08-7.66-12.13a2.07,2.07,0,1,1,3.82-1.61c.81,3.28,3,10.91,3.57,14Zm-.35.34h0a.24.24,0,0,1,.18-.14.92.92,0,0,1-.16.15Zm-4.89,7,.05-.11c.27.63,1.52,3.17-.3,2.73l-.28-.56-.06,0,0-.09c-5.54-10.68-3-5.17-8-17.26a2,2,0,0,1,1.29-2.62,2.07,2.07,0,0,1,2.63,1.29c3.41,11.9,2.05,7,4.6,16.59Zm-1.53,11.8.36.57c.84,2.21.45,1.86-.57.13a.55.55,0,0,0-.41.4c0-.61,0-.45.08-.94-2.72-4.76-8.75-16.74-10-20.07a2.07,2.07,0,1,1,4.08-.68c.42,1.43,5.26,16.82,6.45,20.59ZM600.25,167h0a.27.27,0,0,1,0-.22v0C596.6,161.92,587,145.27,587,145.23a2.07,2.07,0,0,1,4.08-.69c2.07,4.9,6.5,16.08,9.42,21.29.06-.15.16-.37.33-.81,1.49,3.77,1,3.74-.5,1.78h0l0,.22Zm-4.33,6.65-.07,0c1.27,2.48-1.12,3.46-10.5-13.1a2.07,2.07,0,1,1,3.88-1.42c2.12,5,4.71,9.81,6.69,14.55ZM590.28,182c.05,0,.09,0,.17,0,1,.32-3.68,1.38-9-10.58a2.07,2.07,0,1,1,4.14-.11c.47,1.47,4.82,10.52,4.81,10.57s-.13,0-.15.14Zm-11.45-1.61a2.06,2.06,0,0,1,2.85.6c1.56,2.9,2.7,3.54,4,5.73-2.88,1.1-5.57-1.55-7.49-3.45a2.09,2.09,0,0,1,.61-2.88Zm-88,4.9c-.35,1.27-.05.55-1.14,2-1.77.45-1,.45-2.3.29a2.07,2.07,0,0,1,3.44-2.3Zm-9.25-3.45a2.08,2.08,0,0,1,2.94-.05c1.28,2.46,1.54,2.18.28,4.36h0c-1.6-.71-1.07-.28-1.8-1-.62.21-.17.12-1.37-.42a2.07,2.07,0,0,1-.05-2.92Zm-11.37-12.41a2.07,2.07,0,0,1,2.84.7c6.38,12.49,2.8,5.31,7.44,18.61-.64.81-10.49-15.74-11-16.47a2.06,2.06,0,0,1,.69-2.84Zm7.14,25.12,0,0c1,1.12.59,1.16-.67.19a.78.78,0,0,0-.17.43c0-.39,0-.29,0-.61a62.19,62.19,0,0,1-11.2-12.94,2.07,2.07,0,1,1,3.92-1.34c1,1.84,7.38,12.52,8.13,14.24ZM475,201.39c2.33,1.47.64,6-12.81-9.79a2.07,2.07,0,0,1,3.78-1.69c.76,1.08,7.48,9.71,9,11.71l0-.23Zm-15.21.25a2.07,2.07,0,0,1,2.89-.5c7.36,5.75,3.83,2.78,10.6,8.88-8.86-2.82-4.51-1-13-5.49a2.09,2.09,0,0,1-.5-2.89Zm4.34,10.55c3.39,2.39,1.88,1,4.55,4.16-4.21.33-2.07.45-6.39-.45a2.07,2.07,0,0,1,1.84-3.71ZM1101.54,244h0c-.45.52-1,1-1.47,1.6a17.08,17.08,0,0,0,.7-2.86,6.44,6.44,0,0,0,.77,1.26Zm-31.88,25.78h0a105.73,105.73,0,0,0,3-11.41c-.51,4.16-.76,7.43-.84,9.9-.7.51-1.42,1-2.14,1.51Zm-60.91,230.09h0l.37.06c.19.15.48.27.69.41a7.68,7.68,0,0,1-.23,1.16l-.83-1.63Zm-82.37-12.24h0A131.24,131.24,0,0,1,922.67,468a62.67,62.67,0,0,0,6.75,13.32c-1,2.05-2,4.15-3,6.27Zm-5.08,11.26h0c-2.22-8.72-5.94-21.94-5.94-21.94a4.58,4.58,0,0,0-2.68-3.1c.76-1.77,1.52-3.54,2.28-5.29,2.63,8.14,6.77,19.74,9.76,22.65-1.2,2.58-2.36,5.16-3.42,7.68Zm-4.15,11.53h0c-1.86-5.48-6.74-19.63-7.22-21.25a4.63,4.63,0,0,0-2.44-3c.36-.88.73-1.78,1.11-2.67,6.95,13.72,4.25,10,11.33,18.75-1.11,2.86-2.07,5.6-2.78,8.16Zm-.73,2.3h0a3,3,0,0,1-.27.74l0,0a1,1,0,0,1,.31-.7ZM820,655.42h0a4.8,4.8,0,0,0-.27-.66l4.64-4c.45,14.4,3.27,19.81,5.13,21.46-2,1.56-4,3.14-6,4.76-2.23-.9-3.32-19.57-3.53-21.58ZM944.3,602h0l.05.15-.08-.15ZM839.16,662.51h0a1.18,1.18,0,0,1-.42.44c0-.15.12-.34.42-.44Zm1.61-1.19h0c.14-5.33-.2-22.93-.27-24.48a.08.08,0,0,0,0-.05L843,635c2.41,14,3.92,20.58,4.84,23.44-2.3,1.67-4.59,3.36-6.89,5.06a6.12,6.12,0,0,0-.16-2.14Zm10.4-32.5h0l1.8-1.38c1.67,8.52,4.58,18.77,5.84,23l-.28.21c-.71.25-.49.12-1.25.82h.11q-3.79,2.7-7.58,5.44c1-7.64,1.41-22,1.36-28.12Zm8.08,21.34h0c2-16.85,1.22-7.94,2-29.15.29-.23.57-.47.86-.69a213.18,213.18,0,0,0,6.32,23.29h0c-.06-.18-.1-.3-.18-.52-1.29.62-.76.2-1.64,1.13l1,0-8.33,6Zm9.36-6.69h0c1.84-17.53,1.15-8.24,1.84-29.07,0-.25-.17-.44-.23-.68.39-.33.8-.65,1.21-1,.36,13.71-.4,7.5,4.61,25.39l-7.43,5.35Zm11.29-37.83h0l1.5-1.26c.55,11.44,1.83,29.87,4.29,23.52l-.23-.52.07,0c.57-.4,4.06-25.52,4.72-30.26,1.51-1.19,3-2.4,4.51-3.54.79,11.72-1,19,1,29.69-6.59,5.14-13.1,10-19.54,14.65,2.86-19.56,1.48-9.91,4.25-29.77a4.49,4.49,0,0,0-.59-2.56Zm5.3,21.58h0c-.55.19-.36.26-.67.12a.52.52,0,0,1,.67-.12Zm18.07-39.86h0l2.34-1.67c1.67,7.39,4.23,19,5.58,25.09q-7.23,6.15-14.31,11.68c5.16-13.44,6.31-18.56,6.7-34.26a5.31,5.31,0,0,0-.31-.84ZM832.48,643.7h0c.14.62.27,1.25.4,1.83a4.53,4.53,0,0,0-1-1.35l.55-.48Zm.8,3.58h0c2.5,11,4.31,15.94,5.53,17.77-2.55,1.92-5.1,3.85-7.66,5.85,1-5.08.69-15.06,2-22.23a4.38,4.38,0,0,0,.11-1.39Zm80.28-67.06h0l.75-.5c4.16,15,2.73,9.33,6,23.18-.31.27-.61.51-.92.79-1.86,1.66-3.7,3.25-5.54,4.84.94-8.43.21-22.37-.25-28.31Zm9,20.76h0c.49-7.9.61-20.57.08-25.92a5.22,5.22,0,0,0-.25-.59l1.2-.78c.4,6.33,1.23,17.66,2.44,24.65-1.13.81-2.29,1.68-3.47,2.64Zm9.79-32.78h0l2-1.22c1.18,5,3.52,15.69,5.39,24a54.37,54.37,0,0,0-9.35,4.49c1.22-8.88,1.75-21.12,2-27.3Zm10.36-5.92h0c0-.16-.15-.27-.2-.42l.47-.31c3.94,17.93,1.84,9.8,6.94,27-1.66.26-3.49.58-5.5,1.08.27-8.73.94-8.14-1.71-27.32Zm9.38,1.76h0c2.93,6.62,6.84,15.69,8.5,19.65-1.07,3.33-4,3.83-8.73,4.53,1.06-7,.63-16.49.23-24.18Zm-27.68,45h0a55,55,0,0,1,17.09-10.14c.5,2.11.84,3.47.92,3.58v-.06h0a1.27,1.27,0,0,0,.07.38l1.89-.47c0-1.61,0-3-.06-4.38,7.31-2.23,13.45-2.58,17.83-4.23-6.76,5.16-21.39,9.33-47.28,23.14,3.44-2.76,6.66-5.41,9.5-7.82ZM967.8,404.16h0a21.65,21.65,0,0,0,1,2.94,5,5,0,0,0-.28,1.08c-.1-.32-.19-.66-.29-1-.18-1-.31-2-.43-3ZM971.57,482h0c-.14,2-.23,4.41-.25,7.17-1.14-2.94-2.44-6.13-3.77-9,1.36.64,2.7,1.25,4,1.82Zm-42.55-24h0c2.05,1.35,4.29,2.79,6.67,4.29.6.69,1.18,1.37,1.75,2-.81,2-1.87,4.32-3.09,6.88A66.72,66.72,0,0,1,929,457.94Zm16.25,10.17h0c4.42,2.63,9.05,5.27,13.66,7.72a42.15,42.15,0,0,0-.4,4.86c-.18,5.87-.17,7.85-.18,9-7-11.92-7.38-14.6-13.54-20.63.15-.33.31-.64.46-.95ZM962,478.67h0c4.1,8.07,6.89,13.82,8.83,17.84-3.51-1.13-6.76-2.27-9.8-3.48.46-2.54.7-7.14,1-14.36Zm12.18,18.39h0A52.55,52.55,0,0,1,975,483.4c1,.38,1.92.73,2.85,1.07,3.5,8,6.1,13.69,7.95,16.58q-6.09-1.79-11.44-3.43c-.06-.2-.1-.32-.18-.56Zm10.14-10.66h0c.28.07.56.15.84.2v1.69l-.83-1.89Zm10.38-105.58h0a7.16,7.16,0,0,0-.48.61,4.17,4.17,0,0,0-.33-.46l.81-.15Zm5.46,1.72h0a9.13,9.13,0,0,0-.72-2.49l2.53-.38c-.58.88-1.17,1.83-1.81,2.87Zm4.53,4.74h0c.24,2.86.4,5.16.56,6.92-1.72.14-3.42.32-5.09.5,1.5-2.17,3.07-4.87,4.53-7.42Zm7.85-9.16h0c-.79,1.36-1.59,2.85-2.41,4.31,0-1.53-.08-2.82-.17-3.95l2.58-.36Zm6.5-.89h0l5.49-.72a44.06,44.06,0,0,0-5.54,6.92c.11-2.57.13-4.59,0-6.2Zm10.2-1.32h0c.77,0,1.48,0,2.23,0-.84,1.32-1.71,2.8-2.57,4.34a10.33,10.33,0,0,0-.47-4.19l.81-.11Zm8.38-.21h0c.91,0,1.83-.05,2.72-.09-.86,1.1-1.83,2.45-2.95,3.94.14-1.52.2-2.76.23-3.85Zm6.82-.27h0c2.82-.13,5.51-.28,8-.45-1.7,1.43-4.36,4.64-8.59,10.5a81.45,81.45,0,0,0,.59-10.05Zm5.87-2h0c6.46-.69,11.18-1.13,12.82-1.21.85,0,1.55-.11,2.34-.17a137.29,137.29,0,0,1-15.16,1.38Zm-43.15-82.07h0c.17.48.36,1,.56,1.53-.85.58-1.68,1.16-2.5,1.74a10.91,10.91,0,0,1,1.94-3.27Zm-2,3.65h0l2.87-1.43c.57,1.53,1.23,3.22,2,4.94a4.47,4.47,0,0,0-2.22,2.41,36.3,36.3,0,0,1-2.51-3.92,2.72,2.72,0,0,1-.09-2Zm14.38,9h0a5,5,0,0,0-.6,1,30.54,30.54,0,0,1-1.94-2.83,74,74,0,0,1-1.4-9.26,47.53,47.53,0,0,0,4.88,10.4l-.94.7Zm2.29-21.76h0a4.58,4.58,0,0,0-1.44-2.42l1.51-1.13c.22.8.55,2,1,3.55l-1,.69c0-.28-.05-.51-.07-.69Zm8.89-6.39h0a4.53,4.53,0,0,0-1.47-2.44l3-2.12c-.13,1.83-.24,3.18-.32,4.29l-1.21.91c0-.22,0-.41,0-.64Zm13.18-12.5h0q.06,1.23.15,2.55c-.85.74-1.71,1.46-2.59,2.19a4.57,4.57,0,0,0-.22-2.93l2.66-1.81Zm11.51-7.82h0c0,.17,0,.34,0,.51-.8.64-1.62,1.31-2.46,2a4.33,4.33,0,0,0-.16-.75l2.59-1.78Zm19.09-13.41h0c.15.41.28.75.41,1.12l-.68.38a4.69,4.69,0,0,0-.58-.89l.85-.61Zm11-6.2h0a33.75,33.75,0,0,1-3,2.52c-.13-.66-.26-1.36-.4-2.12,1.17-.91,2.29-1.81,3.39-2.72,0,.79,0,1.57,0,2.32Zm-19.89,12.6h0v.22c-.5.32-1,.63-1.51,1l0-.1c.53-.36,1-.73,1.56-1.09ZM1032,281.31h0c.33,2.07,1.07,5.1,2.39,12.18,3.93-13.1,3.52-11.33,4.94-17q2.43-1.72,5.16-3.81c.41,4.84.9,9.7,1.21,13.27-5.34,3.56-10.43,7-15,10,.15-4.81.27-9,.15-14.08l1.11-.64Zm19.43-14.11h0l.84-.67c1.22-1,2.38-1.93,3.52-2.82.24,2.48.7,4.24,2.34,13.92-3.58,2.43-7.15,4.83-10.64,7.15,2.64-9.41,2.16-7.42,3.94-17.58Zm12-9h0c.69-.46,1.36-.9,2-1.32.07,5.66.39,11.93,1.52,14.72q-4.23,2.94-8.53,5.84c4.39-14,3.82-10.58,5-19.24Zm16.91,1.51h0c.18.6.36,1.23.56,1.95l-1.85,1.36c.32-.79.72-1.84,1.29-3.31Zm3.71-12.86h0c.54-.3,1.08-.6,1.62-.92a67.67,67.67,0,0,0,1.63,10.85c-1.17.92-2.37,1.84-3.6,2.78,1.12-7.5,1.35-7.71.35-12.71ZM965.05,187h0a5.94,5.94,0,0,0,.49-2l.08.11,4.53-1.56c.08-1.73-.65-8-1.72-15.53,0-2.16,0-4.44.06-6.74.2,1,.41,1.93.61,2.92.78,10.66,1.38,20.22,2.78,26.79-3.54-.69-7.16-1.44-10.89-2.26a10.93,10.93,0,0,1-.38-1.34l4.44-.43Zm7.8-.23h0c.21,1.5.41,3,.61,4.54l-.7-.12c0-1.5.07-3,.09-4.42ZM940.44,79.54h0a5.06,5.06,0,0,0-.34,1.72,17.47,17.47,0,0,0-4.93-3.67,9.31,9.31,0,0,1,5.27,2Zm-16.58,1h0C912,89,892.07,109,870.57,124.08,889.1,107.34,909,87.94,923.86,80.57ZM829.6,144.31h0a4.86,4.86,0,0,1-4.47-2.47c-2.11-3.66-4.06-7.14-6-10.52,2.8,3.46,6.22,7.71,10.43,13Zm-51.14-67.4h0c3.15,4.79,33.86,56.53,43.77,70.81-4.93-4.39-9.09-10.49-12-15.66-27.41-48.28-31.8-57.18-59.07-37.82C763.42,84,774,76.51,778.46,76.91Zm-159,28.59h0c16.1-2.64,24.28,53.89,50.74,54.08-13.89,3.31-27-7.7-43-47,.6-.12,1.22-.2,1.81-.36v0c-.71-.09-1.34-.09-2-.15-.34-.8-.65-1.53-1-2.34a4.63,4.63,0,1,0-9,2.12s0,.09,0,.14c-28.07,2.93-38.48,32.48-47.14,60.43-2.15,6.94-8.33,10.42-16.32,11.71,28.44-11.42,15.74-70.43,65.91-78.65ZM565,152h0c-3.67,14.07-4.7,25-16.66,26,5.51-9.5,11-17.88,16.66-26Zm-135.59,82h0l-.78-.1c1.12-4.64,3.11-11.66,5.18-19.51a194.4,194.4,0,0,1-2.3,19.58,7.7,7.7,0,0,1-2.1,0Zm4.66-1h0a49.72,49.72,0,0,0,4.22-7.43c-.86,3.49-2.19,6.08-4.22,7.43Zm5.4-37h0a4.29,4.29,0,0,0-1.24.12c.65-3.05,1.2-6,1.65-8.88,0,3,0,5.94,0,8.88a2.64,2.64,0,0,0-.4-.12Zm.71-17.95h0a4.19,4.19,0,0,0-.91-1c.39-1.21.81-2.4,1.25-3.55-.14,1.49-.25,3-.34,4.56Zm-.87,60.86h0a5.2,5.2,0,0,1-2.29,1.6,22.87,22.87,0,0,0,2.29-1.6Zm-82.08-4.48h0l-.43,0c-9.18-.69-20.7-4.6-30.88-6.57,9.43,1.37,20.18,3.88,31.31,6.6Zm-43-7.66h0c-5.22.35-9.33,2.27-11.41,7l3,4.57-2.93-2c6.71,8.87,49.92,56.74,53.68,65.45l-.4.28a4.64,4.64,0,0,0-2.19-1.22,4.53,4.53,0,0,0-.43-2.15c-14.24-21.14-53.31-61.12-56.29-66.93a1.53,1.53,0,0,1-.16-.57c3.71-3.38,9.68-4.6,17.11-4.48Zm-5.06,9.37h0c-.13.3-.08.2-.14.33a2,2,0,0,1,.12-.37l0,0Zm10.32,50.14h0c.92-2.47,3.26-8.53,4.45-11.71.13.14.24.28.36.42a4.63,4.63,0,0,0-.92,1.53,102,102,0,0,0-2.11,11.38l-1.78-1.62Zm-20.1-21h0c.73-4.38,1.17-6.8,1.44-8.45.54,5.47.17,8.7,1.73,14-6.18-6.22-7.65-9.8-8.27-18.11.7,3.36,1,3.3,5.1,12.6Zm9.38-8.19h0l2.13,2.41a3.58,3.58,0,0,0-.29.46c-1.47,12.71-1.68,6.64.52,18.8-2.4-2.16-4.44-4-6.19-5.67,2.37-7.13,3.44-10.37,3.83-16Zm22.33,26.37h0c.43.54.86,1.08,1.29,1.65a3.38,3.38,0,0,0-1.6-.49c.1-.39.21-.78.31-1.16Zm-13.5-16.33h0c.2.23.4.45.6.69a4.69,4.69,0,0,0-1.24.82c.18-.42.4-.93.64-1.51Zm-2.08,4.63h0a98.23,98.23,0,0,0,.84,11.7c-1.83-1.65-3.5-3.14-5-4.53,2.56-4.43,3.55-6,4.19-7.17Zm19.19,16.37h0c.4.52.8,1.08,1.2,1.62l-.64.44a10.4,10.4,0,0,0-.56-2.06Zm5,10.87h0c.11-1.14.27-2.35.43-3.54.72,1,1.43,2,2.14,3.05a6.63,6.63,0,0,0-2.57.49Zm5.91,4.31h0a4,4,0,0,0,.71.92l-1.43.92a5,5,0,0,0,.72-1.84Zm11.78,81.62h0c.27-.08.57-.15.85-.22,2.46,11.86,1.59,6.94,3.4,19.71l-7.31.62c1.8-7.57,3.09-8.72,3.06-20.11Zm-6.44,20.39h0l-5.32.46c1.49-9.7.9-6,2.87-18,1.43,7.06.94,11.09,2.45,17.51Zm-71.05-15.18h0s4.42,13.11,8.08,20.16l-2.53.18c-4.82-14.39-2.87-9.16-8.46-23,1,.21,2,.4,2.92.59a4.48,4.48,0,0,0,0,2Zm9.7,3.79h0c1.28,4.38,3.9,12.71,6.1,15.82l-4.08.28c-.64-4.22-1.45-11.11-2-16.1Zm8.37-3.3h0l1,.08c1.36,11.47.25,6.41,4.32,18.5-1.82.14-3.66.25-5.48.39,1.34-3.61.48-14.47.17-19Zm9.62.54h0l1.82.05c2.73,10.36,1.05,5.39,6.19,17l-11.82.91c3.41-11.94,2.48-7.2,3.81-18Zm10.44-.05h0l1.59-.05c1.23,7.59.36,11.12,2.53,16.66-2.12.16-4.24.34-6.36.51,2.66-11.92,2.27-7.65,2.24-17.12Zm9.91,6.73h0a61.38,61.38,0,0,0,3.5,9.11l-6.06.5a47.21,47.21,0,0,0,2.56-9.61Zm-30.84-18.47h0c13.21.12,27.07-.4,40-1-13.48,2.36-21.06,3.39-40,1Zm-32.71,5.06h0c.76.22,1.51.41,2.26.61a4.62,4.62,0,0,0,.07,1.57c10.57,18,6.18,12.07,16.47,24-1.3.08-2.59.19-3.88.28-4.7-3.77-11.23-17.84-14.92-26.48Zm70.15,22.28h0c1.16-5.89,1.12-8.23.95-15.61a4.68,4.68,0,0,0-.63-1.5q2.69-.39,5.23-.84c.49,4.72,1.37,12.07,2.29,17.29l-7.84.66Zm28.38-2.42h0c1.31-3.44,2.18-5.55,2.77-7.09,0,1.46.11,3.16.28,6.83l-3.05.26Zm7.95-.67h0c.65-2.07,1.29-4.37,1.86-6.66.24,2.28.51,4.49.81,6.43l-2.67.23Zm7-.59h0c2.26-10.73,1.36-5.66,2.81-23.86a1,1,0,0,0,0-.1,20.75,20.75,0,0,1,3.06-.18,4.72,4.72,0,0,0,0,.92c.82,10-1.46,14.41.49,22.69l-6.29.53Zm8.09-.67h0a50.89,50.89,0,0,0,5.92-16.8c1,3.58,1.07,8.84.42,16.26l-6.34.54Zm74.64,66.92h0c-.73,15.7-.53,24,0,28.41a35.85,35.85,0,0,0-8.62,1c2.21-8.59,4.66-23.64,5.74-29a4.4,4.4,0,0,0-.46-2.59,37.6,37.6,0,0,1,5.81-2.31,4.62,4.62,0,0,0-2.43,4.46ZM411.69,498h0c1.75,7,5.8,21.38,8.35,17.42-.6-4.71-.12-16.71.07-21.11a4.54,4.54,0,0,0-.38-1.78c1.25-.89,2.52-1.8,3.78-2.72.6,7.59,1.22,13.7,6,20.43,1.61-8.23,2-16.44,2.9-24.81a4.53,4.53,0,0,0-.34-1.84l3.16-2.3c.79,5.16,2.62,16.45,4.24,22.68-9.2,5.41-16.68,12.85-24,16.26-2.11-6.68-6.27-17.94-6.94-20,0-.07-.08-.12-.11-.19,1.08-.66,2.17-1.37,3.27-2.08Zm31.68-22.47h0c1.68-1.14,3.33-2.24,4.94-3.27-.27,6.78-.68,20.69.23,27.45a44.41,44.41,0,0,0-6.35,2.75c1-8,1.64-21.44,1.73-25.64a4.49,4.49,0,0,0-.55-1.29Zm-52.85,23.1h0a72.63,72.63,0,0,0,14.37-4.87c-6.43,3.6-11.09,5.09-14.37,4.87Zm15.06,23.18h0c-2.86-7.61-7.08-11.08-8.33-15.95,1-.4,2.08-.85,3.16-1.37,1.69,3,6.91,12,11.12,17.15a14,14,0,0,1-5.95.17Zm57.59-23.63h0a295.52,295.52,0,0,0,6.62-29.61,4.59,4.59,0,0,0-4.66-4.21c3.43-.61,6.24,0,8.18,2.23a4.56,4.56,0,0,0-.66,2.36c-.29,5.47-6.15,32.37-2,34,3.07-5.16,6.4-15.41,8.72-23.91.67,1.46,1.32,2.89,2,4.31a4.54,4.54,0,0,0-1.5,3.45c-.48,3.81-4.72,17.38-5,25-4.27-7.07-8.24-12.11-11.67-13.57ZM493.26,545h0c-.14-.09-.46-.22-.46-.43,1.27-.86,4.75-13.62,6.54-20.34l1.88,4.37a4.57,4.57,0,0,0-3.2,4.34c-.58,33,3.91,28.58,3.65,26l.16.06c1.07-2.53,2.94-12.23,4.22-19.28.35.77.69,1.5,1,2.22a4.63,4.63,0,0,0-1.84,4.4c1.2,14.62-2,14.79.44,25.47C499.06,560,491.9,544.4,485,530.58c2.47-5.42,5.81-15.52,7.74-21.68,1,2.23,1.91,4.37,2.8,6.44a4.56,4.56,0,0,0-4.38,4c-2.12,24.32,2.34,28.94,2.11,25.59ZM743.7,504.67h0a3.94,3.94,0,0,0-.55.61c.09-.52.16-1,.24-1.5.1.3.21.6.31.89ZM740,516.87h0c0,.11,0,.23,0,.33a1.27,1.27,0,0,0-.11-.13,2,2,0,0,0,.09-.2Zm3.27-3.43h0c1.07,6.72.87,6.35,2.21,10.44-.73-1-1.5-2-2.32-3,0-1.44,0-3.21.11-7.45Zm7.48,6.63h0c.22.39.44.77.67,1.15.6,9.92,0,5.36,2.84,17a85.91,85.91,0,0,0-5.77-10.07,80.76,80.76,0,0,0,2.26-8.06ZM759,526h0l.09-.5.16.23a2.16,2.16,0,0,0-.25.27Zm49.52-49.6h0a3.49,3.49,0,0,0-.39-.74c.27-.45.54-.87.78-1.32-.13.67-.25,1.37-.39,2.06Zm-56.17,38.86h0c-.23-.63-.43-1.3-.64-2,.33.57.64,1.09,1,1.65-.1.11-.22.19-.31.31Zm-72.94,18.45h0c4-11.32,5.87-19.42,6.74-30.51q2.1-1.74,4.18-3.5c.16,7.29.13,4.54,2.88,19.42,5.16-18.06,3.21-9.27,6.12-27l4.64-3.9c-.68,11.2-.58,6.57,1.23,25.17,6.37-21.3,3.64-10.65,8.33-33.26l6-5.05c-1.64,9.51-4.71,28.27-4.14,34-12.89,7.46-32,24-47.91,38.86,2.73-8.06,5.93-29.6,6.42-34.3,0-.07,0-.11-.05-.17l3.78-3.15c-.17,7.91-.8,14.38,1.83,23.35Zm16.7-46.34h0a4.63,4.63,0,0,0-1.35-.27c-.05,0-.09,0-.14,0q2.17-1.75,4.48-3.48c1.71-1.28,3.33-2.47,4.88-3.6l-7.87,7.32Zm-6,5.56h0L685.74,497a4.42,4.42,0,0,0-1.14-1.18c1.81-1.73,3.72-3.45,5.71-5.17a4.49,4.49,0,0,0-.21,1c0,.45,0,.8,0,1.2Zm-12.67,10.15h0c0,.54.06,1.11.08,1.62-1.91,1.79-3.81,3.55-5.87,5.45l-.15.16-.32-.16q2.91-3.45,6.26-7.07Zm-30.77,62.76h0a2,2,0,0,1-.36-.26l.25,0,.11.23Zm-58-88.41h0a4.57,4.57,0,0,0-1.23-1.91c.77-.82,1.49-1.62,2.24-2.43-.36,1.43-.71,2.87-1,4.34Zm-36.05,63.53h0c3.85-15.23,6.07-24.4,8.26-38.32q2.3-2.26,4.55-4.53c-1.17,10.39-2.71,23.9-3.63,32.09-3,3.48-6.11,7.1-9.18,10.76Zm-24-.1h0a4.84,4.84,0,0,0-1.08-1.69c.51-1,1.05-2,1.63-3.07-.22,1.88-.4,3.42-.55,4.76ZM514.26,583.3h0a4.57,4.57,0,0,0-1.13.44c-1.55-2.08-3.17-4.56-4.84-7.34.64-2.84,1.27-5.44,1.88-7.87.06,4.58.32,3.59,3.56,14.68.19-.69.36-1.28.53-1.88,0,.68,0,1.31,0,1.9l-.11.08ZM561.89,492h0a5.34,5.34,0,0,0-.33-.68q2.54-2.64,5.3-5.33s0,.06,0,.09c0,.26-.08.61-.11.91-1.51,1.6-3.13,3.28-4.82,5Zm-9.33,9.46h0c-.15.15-.31.3-.45.46l.45-.56v.1Zm-37.78,54h0a4.88,4.88,0,0,0-1.71.29c.11-.59.22-1.18.31-1.78a9.25,9.25,0,0,0,1.4,1.48Zm2.12,16.38h0c.43-1.86.82-4,2.4-11.59a4.6,4.6,0,0,0-2.35-4.11,4.9,4.9,0,0,0,2.47-2c-.17,9.81-.12,6.84,0,24.9-.89.83-1.73,1.57-2.53,2.24.12-2.58.11-5.7,0-9.44Zm35-60.29h0c-.61,9.94-.93,19.58.39,29.82-3.85,4.58-7.67,9.2-11.37,13.64,7.28-27.18,4.32-14.88,10.18-42.68.27-.25.53-.51.8-.78ZM571,482.42h0c-.12,0-.25,0-.37,0,.69-.63,1.38-1.25,2.07-1.82-.57.6-1.11,1.19-1.7,1.82Zm48,17.41h0a4.5,4.5,0,0,0-1.8,1.51c.24-1.16.48-2.37.7-3.66.37.7.73,1.42,1.1,2.15Zm5.38,10.58h0a2.8,2.8,0,0,0,.15.3c-.11.12-.22.22-.32.35.06-.22.12-.41.17-.65ZM631,522.73h0a4.5,4.5,0,0,0-1.34,1.48c.2-.74.44-1.6.71-2.58.21.36.41.73.63,1.1Zm-44.45-56.68h0c-5.27.48-10.53,2.79-15.72,6.41,7-5.58,14.51-9.65,22.53-11.5a27.59,27.59,0,0,0-6.81,5.09Zm-70.48,79.38h0l-.91-2.14a4.47,4.47,0,0,0,2.24-.14c-.45.74-.88,1.52-1.33,2.28Zm-15.23,13.23h0l-.48.22c-.19-.31.11-.31.48-.22ZM485,503.27h0c-.12,1-2.3,12.68-3,21.34-1.65-3.19-3.28-6.22-4.87-9a177.54,177.54,0,0,0,9.42-20.8c.69,1.52,1.35,3,2,4.48a4.6,4.6,0,0,0-3.55,4ZM520.4,578.1h0c6.49-18.76,5-12.24,7.46-28.86-.05,3.11.23,6.93.57,18.88,7.87-25.36,4.19-12.13,10.87-39.73a4.58,4.58,0,0,0-1.13-3.27l3-3c-1.53,14.21-1.09,9.14-.88,33.59-7.48,8.95-14.43,17.06-19.93,22.41Zm46.25-53.38h0c4.09-11.78,6-21.29,9.26-36.86,0-.1,0-.2,0-.3,1.2-1.23,2.36-2.44,3.54-3.66-1.54,16.27-1.34,10.28-.21,28-3.9,3.55-8.15,8-12.59,12.87Zm15.57-15.47h0c3.53-14,2.67-10,5.52-25.7-.73,7.17.18,14.21,5,19.78-2.81.39-6.38,2.53-10.48,5.92Zm14.09-5.16h0a4.57,4.57,0,0,0-3.28-.81c.71-2.42-.14-6.72,1.18-14.62-.32,6.09.33,12,3.64,16.6,1.53-6.87,2.75-12.54,4.18-18.52.65,8.53,1.72,21.32,3.59,21.21.06-.17,0-.08.15-.25,0,.36-.22.19.22.52h0c.33-.05.21-.06.37,0v.08h0c1.42-2.08,2.93-14.75,3.71-23.09.91,1.32,1.82,2.67,2.75,4.05a4.58,4.58,0,0,0-3.58,4.68c.56,9.1-1.44,17.23,1.73,25.26l1.12.19c.13-.39.09-.46-.18-.63.17,0,.14,0,.31.16,1.68-5.9,3.09-10.06,4.24-14.66a5,5,0,0,0,0,.55c.84,13.06-3.68,9.56,1.12,23.74,2.27-5.59,4-9.38,5.41-13.47-1.76,18-1.65,9.32-.31,28.19,5-12.48,4.93-11.82,6.33-16.81a2.72,2.72,0,0,0,0,.39c.35,11.93-3,12.71,1,24,2.26-5,3.89-8.47,5.19-12.14-.1,10.49-3,10.6.91,22.9,1.83-4.43,3.34-8,4.59-11.54-.4,7.77-.85,16.31-1.22,20.2-7.56-11.24-39.72-63.54-43.14-66.15ZM611,518.9h0l.06-.22.17,0c-.1,0,.19,0-.23.2Zm30.3,54.34h0c1.4-4.09,1.83-12.52.94-26.92l-.06-1.1c.41-1.5.77-3.09,1.12-4.77l.07,0c.42,6.51,1.64,25.23,1.89,25.45.14-.22,0-.05.4-.48h0c-.47.39-.48.59-.2,1.19l.92.14c4.32-5.17,5.25-24.15,5.86-30.45a4.07,4.07,0,0,0-.38-.82c.37-.45.73-.92,1.12-1.42-.08,8.73-.11,5.16,1.38,20.8h.05l-.05.13c2.85,4.69,7.83-28,7.93-28.5a4.61,4.61,0,0,0-.93-2.81c1-.79,2-1.62,3-2.46-.29,9.2-.54,25.2,1.36,28.21-10.89,10.21-20.07,19.33-24.43,23.77ZM717.21,508h0c8.45-22.21,4.66-11.09,12.27-36.53a4.58,4.58,0,0,0,0-1.11c.65,1.45,1.46,3.19,2.34,5.05a4.44,4.44,0,0,0-1.1,2c-2.61,21.23-2.62,14-1.57,29l-.51-.45c-2-1.77-6.09-.74-11.43,2.1Zm13.72,0h0c4.5-13.2,3.39-9.63,6.65-21,.89,1.76,1.81,3.56,2.76,5.37l.18.79a4.47,4.47,0,0,0-1.67,0,4.64,4.64,0,0,0-3.63,5.46c.22,1.86,0,8.41.4,13.85q-2.21-2.22-4.69-4.51Zm23.58,30.75h0c2.07-5.15,3-7.21,3.53-8.72a.18.18,0,0,1,.07.05c2.6,12.26.28,13.77,4.84,25.35-3.13-1.65-4.14-7.65-8.44-16.68ZM764,555.82h0c2.06-9.22,3.18-14.8,3.14-23.51.36-.13.72-.27,1.08-.43,1,6.15,2.51,16,3.74,21.62-3.72,1.94-6.18,2.68-8,2.32Zm11.54-4.32h0c1.45-8.44,1.19-22.87.92-26.83a1.11,1.11,0,0,0-.07-.16c1.07-1.38,2.13-2.92,3.2-4.56.67,7.74,1.44,15.45,3.35,22.94,4.41-14.35,4.31-19.79,4.7-34.4q1.65-2.42,3.32-5c-.27,13.39-.48,34,1.41,35.67,1.91-2.44,3.59-10.84,4.92-19.91A157.46,157.46,0,0,0,798,537c-10.06,6.64-17.27,11.42-22.47,14.48ZM810,638.14h0c62.12-122.48,44.24-93.36-3.94-88.37,5.58-32,10.67-64,16.29-96a4.63,4.63,0,0,0-3.68-5.42,3.11,3.11,0,0,0-.61,0,21.26,21.26,0,0,1,4-3.54,28.16,28.16,0,0,0-5.65,3.72,35.09,35.09,0,0,0-3.26,1.82c-.71,1-2,3-3.61,5.52a63.19,63.19,0,0,0-3.59,5.61c-12.67,19.82-36.52,57.66-40,61.54A136.93,136.93,0,0,1,746.57,494c-3.12-12.65-6.47-25-12.1-30-1.8-3.05-4-4-7.67-2.34-19.18,1.81-52.41,37.39-71.23,60.73a4.51,4.51,0,0,0-2.22,2.77c-1.56,2-3,3.84-4.3,5.57-34.9-49.69-42.71-71-52.53-70.57-23.67-14.67-72.29,57.82-84.38,76.06-24.77-58.92-28-83-48.24-78a5,5,0,0,0-.46-1.25,4.65,4.65,0,0,0-6.37-1.55c-8.32,4.38-70.57,40.44-70.79,33.7-.11-3.59,4.85-25.51,8.58-49.44C403,410,410,379,391.88,373a7.11,7.11,0,0,0-2.54-1c-4.61-.76-12.37-.6-21.8,0a4.78,4.78,0,0,0-.23-.47l-.08.11c-.69-4.91-4.11-18-5.1-22.73a2.07,2.07,0,0,0-4,1s5.51,17,8.14,22.21c-24.87,1.62-60.9,6-84.45,5-.55,0-1,0-1.49-.08-4.83-.78-10.2-1.69-16.26-2.78l14.47-10.54-1.95,1.77a4.63,4.63,0,1,0,7.52,5.41c72.52-67-2.58-.51,78.39-63.21,11.3-8.74-38.58-58.71-52.69-72.42,5.37-5.55,34.59,4.42,47.43,5.16,16.29.94,29.45,2,40.21,3,2.33.38,4.59.68,6.83.95a2,2,0,0,0-.67.92c-4.16,13.88-4.21,12.15-10,23.43a3.37,3.37,0,0,0-1.13,1.67c-.68,1.56-.18,1.41,1,.11a.51.51,0,0,1,.22.37,6,6,0,0,1,.16-.8,98.91,98.91,0,0,0,13.73-23.5,2,2,0,0,0-.37-1.9c3.05.29,6,.46,8.84.48,23.48,2.06,27.39,1,28.19-11.92a25.82,25.82,0,0,0,3.07-9.62c5.09-39.79,3.22-59.52,6.05-66.48.1-.05.18-.13.28-.19a4.64,4.64,0,0,0,2.31-2.59c5.94-2,20.67,9.71,60,25.47,1.8.72,3.47,1.3,5.14,1.9-12.53-2.91-23.46-7.09-26.95-9.23C436.5,137,458,174.55,446.93,232.88a4.64,4.64,0,1,0,9.17,1.37c3.79-21.91-1.13-69.31,11.56-68.17,6.67.6,58,36,98.74,21.37,12.5-4.5,17.33-66.46,43.46-72.36a68.68,68.68,0,0,1,7.94-1.16c12.55,29.64,42.82,78.19,75.66,40.84,13.73-15.63,54.72-56.33,74.11-64.52,41.11,18.25,49.62,91.82,80.8,57.59,1.14-1.25,1.93-2.5,1.54-4.17a7.08,7.08,0,0,1-1.22,2.32c-7.09,8.21-14,8.89-20.22,6,5.43.12,12.78-3.93,21.2-10.25a4.56,4.56,0,0,0,5.37,2.33C895,122.47,926.12,83.18,929.65,81.3c4.21-2.26,10.6,5.45,15.27,12.26,1.73,4.07,3.36,7.93,4.9,11.62A185.94,185.94,0,0,1,954,137.7c-.06,4.41-.1,9.27,0,14.21-1.16,30.18-8.07,41.68,20.48,48.09v0c12.89,2.88,33,4.75,64.1,6.8,46.42,3.07,65.91,1.95,56.72,12.8a4.65,4.65,0,0,0-1.23.07,4.57,4.57,0,0,0-3.62,4.64l-1.13.94a4.6,4.6,0,0,0-3.27,2.63q-3,2.34-6.73,5.1a4.52,4.52,0,0,0-6.29,4.55q-6,4.26-13.43,9.48a4.59,4.59,0,0,0-4,2.83l-6.1,4.27a4.47,4.47,0,0,0-1.1-.22,4.6,4.6,0,0,0-4.52,4.16l-6.37,4.49a4.57,4.57,0,0,0-4.86,2.93c0,.19,0,.34,0,.53-8.39,5.94-17.58,12.5-27.64,19.81-10.57,7.67-3.28,17.74,10.2,28.31,19.45,20.63,59.41,38.87,63.37,49.61-6.37,5.46-48.79,4.5-79.43,10-12.45.9-21.11,3.22-26.83,6.64a4.22,4.22,0,0,0-1.77,0,4.56,4.56,0,0,0-3.63,4.4c-7.85,9.13-3.47,22.81,4,37.54,6.43,19.64,17.66,42,21,53-1,0-1.69,1.12-1.82,3.88l-2.83-1c-.8-1.78-1.31-2.18-1.61-.58-2.41-.92-4.8-1.9-7.18-2.91-1.88-2.83-3.62-4.11-4.91-2.14C957,465,941.22,455.65,926,445.9a4.83,4.83,0,0,0-.81-.93c1.28-3,2.21-5.21,2.6-6.33-.95,2.1-1.89,4.12-2.81,6.1a17.46,17.46,0,0,0-7.7-.52l-.22-.13.22.14a4.47,4.47,0,0,0-2.32,2c-47,116.59-23.5,43.19,37.06,99.46-1.76,1.42-11.59,8.47-23.63,17.17a166.61,166.61,0,0,0-17.76,9.72c-.74.48-1.81,1.22-3.14,2.16a4.59,4.59,0,0,0-2.5,1.81c-4.83,3.52-11.85,8.84-20.11,15.19a4.57,4.57,0,0,0-3.38,2.62c-28.17,21.79-67.88,53.56-82.78,67.51,3.4-8.52,9-19.38,11.24-23.77Zm-13.81,36.12h0c.44-.31.93-.69,1.43-1.08,8.2,8.93,3.58,5.41,16,11.42-5.09-9.6-4-7.49-6.68-12.63,11.5,13.47,13,7.59,10.69,6.27h.15c.17-.31-6.48-14.68-7-15.86l1.48-1.26c3.8,10.46,7.68,15.62,9.82,17.11-1.83,1.5-3.66,3-5.5,4.58-2.33,1.49-4.61,2.91-6.76,4.13-7.44-7.13-6.06-6.14-13.6-12.67Zm20.4,4.72h0c0-.56.49-.68.93-.73a10.06,10.06,0,0,0-.85.78l-.08,0Zm84.32-166.25h0a4.16,4.16,0,0,1-2.25-2.17,111.12,111.12,0,0,1,4.8-14.28c.7,1.37,1.38,2.61,2,3.8a3.75,3.75,0,0,0-.67,0,4.62,4.62,0,0,0-3.63,5.45c1,2.29,6.41,13.44,9.85,7.54a8.87,8.87,0,0,1-1-5.47c2.74,4.06,4.77,6.08,6.16,6.92a22.69,22.69,0,0,0-.38,4.08c-4.59-1.84-9.49-3.77-14.9-5.87Zm39-33.63h0c1.32-2.64,2.55-5.09,3.62-7.26,5.86,7.9,9.75,14.68,12.39,18.94a47.08,47.08,0,0,1-16-11.68ZM988.93,502h0a21.4,21.4,0,0,0,.41-4.68l.09.11-.09-.16V497c.75,2,1.5,3.95,2.26,5.73l-2-.56-.65-.19Zm9.35,2h0a3,3,0,0,1,.72.52l-.7-.12c0-.13,0-.26,0-.4Zm1.09.59h0c-.42-.66-.83-1.31-1.22-2-.36-3.71-1-8.07-1.72-11.87,3,4.26,6,9.14,6.76,11.19a2.68,2.68,0,0,1-.07-1,17.7,17.7,0,0,0,2.35,4,20.49,20.49,0,0,1-6.1-.36ZM977.11,400.74h0l-.05-.92.75-3.08,4.31.66c0,.3.14.59.2.88a26.69,26.69,0,0,0-5.21,2.46Zm32.7-6.89h0c.64-1.05,1.37-2.28,2.22-3.74-.12,1.41-.16,2.57-.18,3.61l-2,.13Zm13.35-8.6h0c.29,1.66.46,3.19.58,4.56l-.73,1.3a3.1,3.1,0,0,1,.77-.65c.07,1,.08,1.8.11,2.58l-5.48.29c1.63-2.59,3.31-5.62,4.75-8.08Zm3.59,7.63h0c1.29-2.38,3.13-5.77,5.82-10.34-.69,10.65-.65,10.56,3.8,4.39a2,2,0,0,1,0,.25l.06-.35c1.07-1.49,2.41-3.32,4-5.45-.17,5-.22,8.39-.15,10.6-4.45.38-9,.66-13.6.9Zm26.46-2.46h0a.2.2,0,0,1,0-.07.64.64,0,0,1,0,.07c-3.16.54-6.45.95-9.84,1.29,1.9-3.71,4.81-9.43,9.09-13a62.46,62.46,0,0,1,.87,9.37l-.48.5a1.32,1.32,0,0,1,.48-.17c0,.87,0,1.46-.1,1.91a10.57,10.57,0,0,1,.77-1.82,1.33,1.33,0,0,1,.74.75c0-.63-.06-1.26-.06-1.9a24.52,24.52,0,0,1,8.83-7.75c.9,4.07-1.81,15.71,16.48-5.09a6,6,0,0,0,1-3.09c-5.4,7.3-8.9,4-14.25,13,0,0-.37.11-.44,0h0c-4.54-6.61,6.2-16.21-11.58,2.25,0-5,.91-10.08.27-11.94,15.54-1.25,24.39-3.41,28.31-6.36-1.46,13.67-13.85,19.32-30,22ZM1024,300.71h0c-.45-4.21-1.2-10.06-1.71-14.13.51-.26,1-.51,1.55-.78A122.28,122.28,0,0,0,1028,298l-3.93,2.74Zm66.2-46.25h0c.78-5.92.91-7.23,1.52-10.12,0,.19,0,.38,0,.58.16-.19.27-.33.35-.44a15.07,15.07,0,0,0,.11,4.36l3.49,1c-1.65,1.49-3.47,3-5.42,4.62Zm17.09-21.17h0a76,76,0,0,0-1-13.25c.46-.87.9-1.78,1.37-2.72C1108.85,222.88,1109,227.76,1107.31,233.29Z" transform="translate(-251 -69.86)"/></svg>