<svg id="Layer_1" data-name="Layer 1" xmlns="http://www.w3.org/2000/svg" viewBox="0 0 680 664.9"><defs><style>.cls-1{fill:#231f20;fill-rule:evenodd;}</style></defs><title>quote5</title><path class="cls-1" d="M619.82,540.83s0,0,0,0a35.36,35.36,0,0,0,1.15-6.31l0,.05c-.18-.53,0-.23-.53-.84-.77-.18-.44-.18-1-.11a103.59,103.59,0,0,1-11.13,8.06,6,6,0,0,0,.06,12c4.73-.6,7.87-4.11,9.84-8.35a6,6,0,0,0,10.27,3.83c4.51-9.75,3.37-4.62,3.39-15.41-8.78,4.22-4.82,1.8-12,7.07Zm402.78-181.5c3.07,18,1.42,36.42-8.24,52.08-8.69,37.3-37.33,52.41-73.34,51.89,3.3,15.89,4.48,22.87-.95,35.53-1.27,11.44-6,19.91-16.14,29-36.26,57-67.25,59.25-137.6,60.16a6.6,6.6,0,0,1-6-3.67q-5.74,8.08-12.22,15.77c-31.48,50.61-86.22,92.22-135,111.56-17.84,7.07-50.76,4.67-40.63-11.88,38.94-63.61,48.5-86.39,54.62-145.67-69.27,24-155.61,3.23-184.56-59-102.75,12.56-147-107.52-99.38-184.72a23.23,23.23,0,0,1,6.42-9.38,120.86,120.86,0,0,1,15.79-17.19,6,6,0,0,1-3-5.14c12.95-129.23,82.7-201.6,211.91-147.5,42.38-51.93,70.24-75.37,142.31-80.26,57.36-3.89,89,20.85,110.06,66.66,66.44-15.9,141.66,5.29,163.82,69,17.51,30.94,5.32,64.28-16,93.05A53.82,53.82,0,0,1,986.07,291c11.61,9.9,23.88,27.87,31.23,48.31a58.91,58.91,0,0,1,5.3,20Zm-26.53-89.88a137.17,137.17,0,0,0,6.75-19.22,176.63,176.63,0,0,1-26.39,34.42,34.12,34.12,0,0,1,5,2.85,194,194,0,0,0,14.62-18.05Zm19-51.5a62.15,62.15,0,0,1-1.61,7.92,2.83,2.83,0,0,1,.85,2.29,66.81,66.81,0,0,0,.76-10.21Zm-.89,11c-1.17,3.8-3.57,12.08-6.93,21.57a82.42,82.42,0,0,0,6.93-21.57ZM1005,206.15a92.83,92.83,0,0,0-19.41-42.9,115,115,0,0,1,7.51,11.48c17.52,30.73.18,74.21-23.38,102.75l.35,1.25c-.22-.36-.4-.63-.6-1-2.19,2.63-4.44,5.13-6.71,7.49a9.63,9.63,0,0,1,4.1-2.08c16.57-17.6,41-61.47,38.14-77Zm-88-80a165.84,165.84,0,0,0-65.64,2.44c.06.13.11.27.16.4,22.6-3,44.88-5,65.48-2.84Zm-66.35,2.6-1.22.28c.07.17.13.35.19.52a7,7,0,0,1,1.2-.47c-.06-.11-.12-.22-.17-.33ZM844.92,118C821.75,76.48,795,52.71,740,56.6c33.93,3.09,69,15.76,87.4,35.48,4.32,4.64,11.67,15.18,17.19,26l.3-.08ZM606.3,124.33c-3.44,3.25-7,6.61-10.8,10.09l1.83.93c3.12-3.95,6.09-7.59,9-11Zm-67.13,0C461.64,113,416.08,160.64,399.66,241.89c12.95-49.13,21.14-64.74,69.25-103.57,12.19-9.83,42.67-13.86,70.26-13.94ZM394.87,273.7c-.09.86-.19,1.72-.27,2.59l1.91-1.38a6.76,6.76,0,0,1-1.64-1.21Zm-21.61,41.71A50.28,50.28,0,0,0,372.05,326l1.11-.48c1.15-1.92,2.35-3.82,3.55-5.73a2.8,2.8,0,0,1-1.18-1,2.83,2.83,0,0,1,.91-3.92,19.82,19.82,0,0,1,4.18-1.08l1.8-2.68a2.81,2.81,0,0,1-1-2.13,2.85,2.85,0,0,1,2.85-2.84l1.54.08q2.31-3.25,4.62-6.32a2.67,2.67,0,0,1,.72-.95,176.28,176.28,0,0,1,11.94-14.27c-1.83,1.25-3.59,2.55-5.32,3.89l1.71-.56,0,0c-5.32,4.77-9.71,8.15-13.32,11a108.73,108.73,0,0,0-12.92,16.4Zm-11.68,23.74a126.55,126.55,0,0,0-5.37,20.1,149.45,149.45,0,0,1,8.5-18.85,6.58,6.58,0,0,1-3.13-1.25Zm70.85,148.39a108.64,108.64,0,0,0,27.41,1.22c-.1-.25-.22-.48-.31-.73a4.88,4.88,0,0,1-.08-.51c-7,.43-14,.58-21.15.37-2-.05-3.94-.17-5.87-.35Zm39.24-1.13c.1.29.23.57.34.86a157.2,157.2,0,0,0,16.24-3.73q-8.16,1.83-16.58,2.87Zm2.81,6.67c.75,1.59,1.63,3.09,2.47,4.62a6,6,0,0,1-.27-3.52,6.13,6.13,0,0,1,.74-1.76c-1,.23-2,.46-2.94.66Zm8.62,14.41a5.82,5.82,0,0,1,.27-6.15c-.75,0-1.48.05-2.18,0a6,6,0,0,1-3.63-2.52,89.6,89.6,0,0,0,5.54,8.66Zm131,199.75c21.71-2.08,66-24.55,105.3-60.55-26.19,20.78-54.63,38.27-81,52.18-8.12,4.28-17,7.46-24.31,8.37Zm188.8-132.19c39,.35,62.83-1.53,85.24-19-2.58,1.47-7.86,2.86-21.76,5.65-9.85,2-18.26,4.06-26.15,5.92a188,188,0,0,1-37.33,7.4ZM829,557.88h0l0,0-.07,0Zm61-3.28a115.78,115.78,0,0,0,10.14-9.49c-7.8,5.14-8.51,7.66-10.14,9.49Zm47.47-91.41c.57,3.58,1.07,6.94,1.49,10.1-.07-2.91-.19-6.19-.24-10-.41,0-.83-.05-1.25-.07Zm-1-13c26.9,3.33,50.82-3.63,65-23.81-13.74,11.78-34.64,20.47-65,23.81ZM1010.63,392h0c-1.9,9.23-4.9,16.2-8.9,22-12,14.9-32.93,26.31-66.5,30.21a3,3,0,0,0,.32-.11c5.49-5.13,12.85-12.78,10.79-21-4.24,7.82-6,10.58-13.74,16.15a2.84,2.84,0,0,0,.9,5.21,92.39,92.39,0,0,0-13.37,2.33l-.06-.09,0,.11c-11.62,3.35-2.42,8.18,4.51,18.37,2.41,12.47,3.94,21.69,3.8,29.22-2.45,7.08-7.28,15.22-15.71,24.65a154.7,154.7,0,0,1-40.84,32.89c-2,.5-4.19,1.08-6.83,1.74-7.32,1.86-14.06,3.51-20.5,5.06,9-16.24,11.45-23.28,10.25-42.53-6.33,21.82-2,19.47-15.49,40.25a2.81,2.81,0,0,0,.45,3.43c-2.32.55-4.63,1.1-6.9,1.62,7.77-8.06,9.66-36.34,8.49-38.77-2.62,6-7.63,31.73-12.26,35.14a2.84,2.84,0,0,0-2.42,3.16,2.76,2.76,0,0,0,.9,1.7l-7.63,1.73c6.24-9.86,10.3-36.4,9.55-44.3-2.35,7.91-10.82,39.41-14.87,42.32l0,0,0,0h0a2.82,2.82,0,0,0-1.41,3.48l-8.93,1.94c10.79-14.2,10.29-25.86,11.58-43.2-8,20-2.31,24.17-15.9,39.55a2.86,2.86,0,0,0,.08,4,3.2,3.2,0,0,0,.63.4L789,571.11c.34-.54.67-1.09,1-1.63a2.79,2.79,0,0,0,2.72-.69c6.37-7.82,10.45-19.18,12.15-30.13,1.67-4.54,3.16-9.13,4.43-13.8a41.34,41.34,0,0,0-3.54,4.67c.05-1.66.06-3.3,0-4.87-.8,2.87-1.66,6-2.59,9.18-5.85,9.77-11.12,18.52-16.26,26.64a136.07,136.07,0,0,0,7.2-47.5c-1.72,20.59-7.79,40.21-16.72,58.53-6.09-.25-12.23-.66-18.44-1.31l17.5,3.23q-2.73,5.46-5.8,10.77c-10.08,13.34-21.64,26-38,40.63-15.23,13.61-102.11,71.17-120,70.87a38.71,38.71,0,0,1,4.35-8.46c22.9-34.58,14-14,33.75-57.5,21-46.28,19.18-37,24.59-88.67A145.37,145.37,0,0,0,692,529.82c13-10.3,49.61-37.28,49.49-58.22-7,21.35-36.51,41.65-52.92,53.64a138.75,138.75,0,0,1-15.38,9.7,8.36,8.36,0,0,0-12.52.22q.71-7.39,1.42-15.52a6,6,0,1,0-12,0c-.73,9.52-1.45,18.19-2.2,26.23C614.41,557,576.8,557.6,544.46,548c3.46-2.28,5.73-3.68,7.3-4.65a6,6,0,0,0,5.63,7.39,16.74,16.74,0,0,0,10.09-5.06,6,6,0,0,0,5.74,5.06,19.78,19.78,0,0,0,9.79-4.44,6.34,6.34,0,0,0-.23,1.57,6,6,0,0,0,6,6c8.93-1.64,21.3-16.48,18.09-21.37-4.42,1-14.71,9.82-18.59,9.56l.5-.16a6.19,6.19,0,0,0-2,.35,24.1,24.1,0,0,0,4.27-10.17c-7.1,1.2-14.17,8.23-17.52,6.7a6,6,0,0,0-1.76.25,40.75,40.75,0,0,0,1.75-4.81l-.13.08c.12-.53.08-.21,0-1-.54-.53-.26-.37-.77-.59-.88.55-13.08,7.28-14.84,6a5.88,5.88,0,0,0-1,.07c1.11-1.62,2.68-4.12,5.83-8.64-15.1,4.49-8.39,2.45-21.55,6.51,3.17-3.46,5.27-8.36,7.21-13.16-6.41-3.93-13.39,9.59-16.3,6.29a5.94,5.94,0,0,0-1.91-.19c3.14-3.14,5.4-7.26,7.18-12.34-5.22,1.37-14.56,6.46-18.28,6.67,3-2.2,5.22-5.23,7.06-10-7.9.5-12.16,3.18-18.06,3.17a6,6,0,0,0-.48,12c2-.62,3.72-1.24,5.35-1.89a5.94,5.94,0,0,0,5.29,8.75,27.57,27.57,0,0,0,6.67-2.44c0,.16-.13.3-.18.48a6,6,0,0,0,4.18,7.36,14.57,14.57,0,0,0,7.85-1.3,6,6,0,0,0-.28,4.54,8.19,8.19,0,0,0,.39.85c-21.3-7.6-39.79-19.83-52.55-36.57a5.93,5.93,0,0,0,4.18,1.72c.85-.19,1.67-.42,2.51-.63a5.6,5.6,0,0,0-.33.8,6,6,0,0,0,4,7.47c10.57,1.25,20.44-6.72,25-15.71-5.28.06-15.46,4.38-19.74,4.65,8-3.12,14.86-7.93,18.29-16.72-3.83.07-9.49,3.8-18,6.21,11.33-5.06,22.86-13.33,27.95-20.13-8.29,1.34-30.15,12.15-40.74,13.18,14.58-4.45,30.11-11.39,46.53-21.23,9.4-5.64,21.92-14.8,25.29-26.22l.09-.1-.08.07a22.39,22.39,0,0,0,.54-2.29c-.66,1.22-1.37,2.37-2.1,3.49a166.44,166.44,0,0,1-14.45,10.21c5.2-10.22,3.23-5,6-15.83-7.38,8.18-3.7,3.85-11,13a2.86,2.86,0,0,0,1,3.89,2.77,2.77,0,0,0,1.61.32c-3.91,2.38-8,4.64-12.14,6.77,9-15.18,5.58-7.48,11-25.17-10.06,15.29-4.82,7.76-15.72,22.57a2.86,2.86,0,0,0-.26,4,2.75,2.75,0,0,0,.87.66q-4.5,2.16-9.16,4.09c6-6.45,11.69-22.08,12.61-26-1.1,1.44-14.88,21.14-17.56,23.1a2.85,2.85,0,0,0-2.29,3,2.81,2.81,0,0,0,1.45,2.23q-3.94,1.5-8,2.83c5.85-6.21,15.17-17.32,10.77-20.28h0c-1,.47-6.4,11.17-18.43,19.95a2.85,2.85,0,0,0-.9,2.93c-1.56.42-3.12.84-4.68,1.23A36.72,36.72,0,0,0,499,458c-5.71,3.93-6.73,10.27-16.4,16.88a2.82,2.82,0,0,0-1.18,3.69c-3.82.78-7.65,1.43-11.46,1.92,10.84-7.32,13.51-8.62,19.54-22.09-10.68,11.25-11.52,11.46-25,18.92a2.82,2.82,0,0,0-1.06,3.58,4.83,4.83,0,0,0-.84.36c-2.56.2-5.12.34-7.66.39,5.3-3.28,9.25-9.11,11.25-14.76-5.39,3.56-11.53,11.66-17.93,11.6a2.83,2.83,0,0,0-2.91,2.78c0,.06,0,.11,0,.17-2.1-.11-4.18-.29-6.24-.52a42.78,42.78,0,0,0,16.37-14.42c-8.36,4.76-15.45,9.38-24.62,12.58a2.76,2.76,0,0,0-1.34.32q-3.14-.65-6.21-1.52c4.58-1.74,8.32-5.12,11.61-9-6.23.89-11.26,4.77-15.49,4.49a2.83,2.83,0,0,0-3.08,2.27c-1-.39-2-.81-3-1.22,5.32-1.71,8.28-3.83,12.51-9.49-6.94,2.3-9.57,4.38-17,5.06a2.81,2.81,0,0,0-2.26,1.21q-2.65-1.41-5.2-3c4.63-1.75,5.34-2.65,9.45-8.76v0c-8.13,3.12-6,3.36-14.86,4.74-.07,0-.11.07-.18.08-11.53-8.93-21-21.58-27.1-38.82-15.09-42.34-4.1-64.31,12.57-88.73.71-.49,1.45-1,2.27-1.62-.4,0-.76,0-1.14,0,2.61-3.79,5.33-7.65,8.12-11.65a3.41,3.41,0,0,0,.94-.59v0a2.19,2.19,0,0,0-.45-.09c2.66-3.85,5.37-7.82,8-12,.2-.31.4-.6.59-.91L404,309c-1.34-.31-2.43-.57-3.39-.81,1.53-2.22,3.07-4.23,4.59-6.07a40.08,40.08,0,0,0,5.52-.83c-1.2-.49-2.42-.95-3.65-1.37,1.2-1.38,2.36-2.64,3.48-3.82,1.34-.07,3.39-.23,8-.46l-.21,0c.43-.05.2,0,.65-.25-.16-.7-2.47-1.61-5.34-2.49,1-1,1.95-2,2.8-2.92,2.73.33,2.25.26,9.46,1.06-4.29-3.08-5.34-4.06-6.5-4.68,3.25-4.85,2-8.73-8.58-15.72a6.42,6.42,0,0,0-2.15-.84,5.83,5.83,0,0,0-2.59-.36c.72-3.13,1.4-6.13,2.06-9,21-10.09,10.22-5.15,37.54-16.81-27.29,6.53-19.31,3.67-36.11,10.63.78-3.38,1.52-6.59,2.25-9.67,9.05-5.77,15.84-7.7,26.34-11.24-10.57-.44-16.88.77-24.7,4.42q1.15-4.69,2.3-8.94c8.68-4.25,16.36-5.35,26-8.14-9.84-1.08-16.42-.7-24.2,1.92,1-3.38,2-6.58,3.11-9.62,18.09-4.92,9.22-2.35,30.19-8.9-20.5,1.5-14.11.57-28,3.12a103,103,0,0,1,5.95-12.21c21.75-3.71,11.45-1.75,33.49-6.33-21.05-.52-13.35-.79-29.95.58,2-3,4.21-6,6.68-9,9.53-1.65,14.11-2.52,24.45-1.87-2.77-4-12-4.21-19.54-3.84,2-2.24,4.21-4.52,6.55-6.88a2.72,2.72,0,0,0,1.39.05c8.45-1,9.1,1.16,18.72-.79-6.23-2.35-9.61-3.78-14.84-4.4,2.78-2.66,5.76-5.42,9-8.32,4.1.22,2.61.14,11.37.46-4.67-2.62-6-3.56-7.28-4.11,1.46-1.28,2.95-2.59,4.5-3.93,1.59.31,3.78,1.35,3.77.13-.77-.75-1.19-1.37-1.66-1.89,15.51-12.15,64.57-15.38,93.29-13.59q10.56,3.23,21.76,7.74c1-.95,2.06-1.87,3.07-2.81l2.52.83a6.59,6.59,0,0,0,10.76,7.48l.25-.33c5.39,2.34,3.21,1.48,13.15,3.95-7.54-6-6.2-5.16-10.26-7.74q3.66-4.77,7-8.93c5,3.73,13.29,9.34,15.1,7.18-.74-1.07-7.73-7.15-11.88-11.11q3.11-3.75,6.13-7.15c20,14.77,19.56,10.08,17.21,8.78l-.08.45c-1.4-1.37-9.28-8.94-13.59-13.08,2.44-2.61,4.91-5.11,7.44-7.54,11.56,10.31,17.77,11.33,15.33,9.49a3.65,3.65,0,0,1-.44.26l0,0c0-.06-7.57-9.26-11-13.37,2.35-2.14,4.8-4.26,7.36-6.4,5.06,3.81,13.9,10.25,12.77,7.71l-.39-.43a3.85,3.85,0,0,1-.62.53l0,0c.07-.18.15-.12.2-.23a99.67,99.67,0,0,0-8.19-10.62c1.57-1.28,3.21-2.57,4.89-3.88,5.51,4.23,3.08,2.6,13.61,7.12l0,0c-7.45-7.66-6-6.16-9.77-10.07,2-1.49,4-3,6.15-4.6,8.44,3.84,4.33,2.26,13.49,5.2C675,83,677,84.76,671.81,81l4-2.88c1.21-.87,2.52-1.69,3.86-2.47a2.66,2.66,0,0,0,.6.51c7.5,4.16,3.5,2.19,12.07,5.83-4.88-7.11-3-5.08-7.36-9a73.8,73.8,0,0,1,10.84-3.82,2.81,2.81,0,0,0-.23,2.34c.63.94,8.1,10.51,10.19,7.35-1.34-3.09-3.16-4.55-4.83-9.26a2.79,2.79,0,0,0-1.19-1.42c3.33-.75,6.81-1.35,10.39-1.81a2.77,2.77,0,0,0,.45,2.3c3.68,3.94,4.93,6.67,9.81,3.47-4.68-3.36-2.09-.06-5-6.34a157.11,157.11,0,0,1,16.37-.51,2.79,2.79,0,0,0,0,2.66c2.4,2.9,3.84,5.66,7.25,2.61-.63-.7-2-1.69-1.61-2.07-.08-1.64,0-.7-.58-3q5.6.28,11.26.91a2.88,2.88,0,0,0,.33,1.69c2.45,2.28,3.91,4.19,6.41.92h0A15.6,15.6,0,0,1,753,67.13c.2-.11.3-.06.56,0v0c3.59.51,7.17,1.13,10.71,1.85a3.71,3.71,0,0,0,.29.76c2.54,1.44,2.3,3.4,4.79.87-.07-.26-.1-.4-.13-.56q3.11.72,6.18,1.54a2.8,2.8,0,0,0,0,2.09c2,2.35,2.72,2.79,5.39,1.28h0a17.56,17.56,0,0,0-.38-1.91c4.83,1.46,9.5,3.13,14,5a2.77,2.77,0,0,0-.51,2.45c2.82,3.92,1,2.44,5.51,4.37h0a29.52,29.52,0,0,0,0-4.61c9.46,4.4,17.73,9.68,24,15.77,5,4.86,11.65,13.77,17.35,23.12-3,.83-6,1.71-9,2.69a6,6,0,1,0,4.53,11.08c3.43-1.16,6.91-2.18,10.42-3.11l.72,1.48a6.58,6.58,0,0,0,6.87,10.53c51.31-7.8,100.47-11.77,130.8,37.33a47,47,0,0,1,5.37,12.5c-.81-1.49-2.1-3.71-4.79-8.64a2.85,2.85,0,0,0-4.57,3.4c7.85,10.2,5.4,7.55,10.88,13.14a64.2,64.2,0,0,1,.12,12.94c-2.55-5.45-9.07-19.2-9.64-20.55a2.85,2.85,0,0,0-5.27,2.15c7.26,13,12.15,18.67,14.71,20.68a97.11,97.11,0,0,1-4,18.13c-2.34-5.62-4.76-13.79-6.69-19a2.84,2.84,0,1,0-5.09,2.54c5.64,11.1,9,16.51,11,18.87-1.47,4.28-3.18,8.52-5.07,12.68-2.39-8-6.56-21.81-6.87-22.88a2.85,2.85,0,1,0-5.65.68c.42,1.15,7.26,16.36,11.48,24.41-1.8,3.77-3.75,7.46-5.79,11-1.87-7.68-6.68-21.35-7.44-23.61a2.85,2.85,0,0,0-5.1,2.55c3.35,7.59,7,16.33,10.93,23.83-1.74,2.93-3.55,5.76-5.37,8.49-2.54-9.37-1.29-5-9.41-22.63a2.85,2.85,0,1,0-4.58,3.38c9.88,16.4,7,11.8,12.81,21A167.94,167.94,0,0,1,954.9,290c-1.67,1.93-2.73,3.89-4.23,6,2.11-.18,4-3,5.53-4.34,2-1.8,4-3.74,6-5.79a13.69,13.69,0,0,0-2.79,3.89c-5.08,10.48.22,9.59,9.27,2.08.23,1-.31,2.15-1.85,3.29a11.29,11.29,0,0,1,7.61-.15c-.92,1-1.85,1.91-2.79,2.86a2.85,2.85,0,0,0-.21,4c.09.09.21.13.29.21a6.6,6.6,0,0,0,1.91,4.91c30.69,27.76,46.06,40.85,36.94,85.09ZM929.8,450.87c-2.11.17-4.24.33-6.44.45.68,1,1.32,2,1.93,3.06a6.38,6.38,0,0,1,2.61-1.72,6.6,6.6,0,0,1,1.9-1.79Zm-395,12.92c8.66-5,16-10.65,21.56-18.54a125.23,125.23,0,0,1-21.56,18.54ZM957.41,285.12c6.44-2.67-7.61-24.45-8.72-26.19a2.85,2.85,0,1,0-4.7,3.22c7.75,9.64,10.15,10.81,12.84,22.34,0,.24.13.44.58.63Zm40.82,124a2.85,2.85,0,0,0,3.72-1.54c1.58-5.92,1.7-6,2-7.9a2.75,2.75,0,0,0,1.34.87,2.86,2.86,0,0,0,3.48-2c.53-8.57.63-4.25-.37-13h0c-3.79,7-2.79,4.51-4.51,9.72-5.08,5.3-2.89,2.43-7.2,10.15a2.85,2.85,0,0,0,1.54,3.72Zm-13,13.48a2.85,2.85,0,0,0,3.66-1.67c3.32-11.4,2.26-5.66,3.26-17.21-6,9.71-3.12,4.64-8.6,15.22a2.84,2.84,0,0,0,1.68,3.66ZM967.5,429.5a2.85,2.85,0,0,0,4.33,3.7c6.23-10.62,6.87-13.89,8.51-26h0c-5.7,8.95-6.27,13.52-12.84,22.27Zm-18.56,9.66a2.85,2.85,0,0,0,4,.26c10.18-17.67,6.21-8.39,12-27.83-10.29,16.49-5,8.66-15.72,23.56a2.85,2.85,0,0,0-.26,4Zm-30.14-.38a2.85,2.85,0,1,0,2.88,4.91c7.81-6,9.56-10.24,10-20.25-4.38,7.11-5.65,11.21-12.91,15.34ZM917.86,425a77.92,77.92,0,0,1-11.5,10.65,2.85,2.85,0,0,0,4,4c5.65-6.65,6.35-6.05,7.49-14.66Zm4.08,77c2.92-4,4.23-6.84,3.44-11.91-4,3.09-3.54,4.5-6.45,7.07a2.85,2.85,0,0,0,3,4.84Zm-11,6.51a2.83,2.83,0,0,0,3.75-1.46c2.25-8.44,1.57-4.23,2.14-12.61-5.46,6.31-3,2.89-7.35,10.32a2.84,2.84,0,0,0,1.46,3.75Zm-11.57,6a2.85,2.85,0,0,0,4.86,3c4-8.94,5.26-11.37,3.5-21.05-3.07,8.24-3.51,10.48-8.36,18.09Zm.65-21.45c-.34.34-.21.15-.4.55h0c-3.08,11.72-4.67,25.57-12,35.11a2.85,2.85,0,1,0,4.24,3.81c5.5-8.35,11.7-34.39,8.16-39.46Zm-10.67,3c-1.31,7.21-7.42,36.37-13,40.94a2.85,2.85,0,0,0,1,5.58C888.6,540.25,890.39,504,889.4,496Zm-11.86,11.07h0c-6.73,20.64,1.27,14.45-13.52,38.09a2.85,2.85,0,0,0,4.91,2.9c8-15.15,11.19-23.54,8.62-41Zm-24.19,43.09a2.85,2.85,0,0,0,4.09,4c8.32-11.93,9.41-25.93,9.62-40.14-3.54,11.27-6.38,27.08-13.71,36.17ZM634.69,537.63c4.55-2.56,1.82-1.21,8.35-3.66,2.84,7.54,2.64,3.76.85,11.32a6,6,0,0,1-9.2-7.66ZM607,542.23h0c.11-.35.89-.46,1.24-.51A3.25,3.25,0,0,1,607,542.23Z" transform="translate(-344 -50.5)"/></svg>