<svg id="Layer_1" data-name="Layer 1" xmlns="http://www.w3.org/2000/svg" viewBox="0 0 701.84 598"><defs><style>.cls-1{fill:#231f20;fill-rule:evenodd;}</style></defs><title>quote6</title><path class="cls-1" d="M1029.16,551.05c1.39-20.88-5-37.13-11.26-56.84a6.86,6.86,0,0,0-8.79-3.82c-36.73-26.48-56.74-24.63-85.71-36.47,1.83.66,3.74,1.31,5.77,1.94-4.21-2.05-7.91-3.95-11.18-5.75-.07-.21-.15-.42-.22-.62l1.13.38c-.38-.32-.85-.69-1.35-1.09,0-.14-.08-.28-.13-.42a2.89,2.89,0,0,0,.73-.82,3.08,3.08,0,0,0-1.15-4.2c-.49-.33-.88-.7-1.34-1-27.17-98.62,40.39-155.61-56.1-280.79a6.83,6.83,0,0,0-8.53-2.14,99.25,99.25,0,0,0-13.74-12.28C787.38,110.37,519.35,81.88,455.91,83c-83.51,1.52-111.32,2.67-117.07,80.59a6.85,6.85,0,0,0,13.7,0c1.13-17.3,3.37-30.08,7.35-39.56a9,9,0,0,0-.29,2.14c-3,39.42-9.1,70.94-10,111.54-1.15,51.75-11.35,128.93-4.5,175.87,5.16,35.33,5.48,24.32,6.69,61.88,0,1.09.14,2.17.2,3.25-17.83-94.73-9.42-229.44-9-284.66a6.85,6.85,0,1,0-13.7,0c-.21,73.57-12.86,265.55,32,352.83a6.83,6.83,0,0,0-4.68,7.85c22.48,94.75,84.83,108.44,181.19,118.64,17.71,1.87,89.88,4.14,162.88,3.7,1.2,3.71,2.14,5.18,2.52,2.6a5.09,5.09,0,0,0-.3-2.62c18.68-.12,37.35-.43,55.17-1,1.13,3.46,1.93,4.82,2.18,2.69,0-.39,0-.36-.18-.75l-.23.29c-.17-.74-.34-1.51-.51-2.27,57.7-1.79,105.94-6,114-14.52,19.94-20.87,15.38-32.61,14.87-43.06,1.69,2.86,3,5,3.63,5.82-.14.41-.23.87.26,1.19,2.49,1.65.25-4.76-3.46-13.29,2.59-11.4,17.39-23.17,83.84-46.13,87.18-30.13,6.08-.5,53.58-18-24.84,5.92-45.11,11-61.72,15.49-3.79-14-10.29-30.88-15.21-45.14l5.77-1.58c5.59,17.11,9,24.95,16.64,42.83-3.67-16.29-6.52-28.59-10.84-44.28,0,0,0-.09,0-.14l3.35-.92c11.62,26.36,6,13.73,18.44,41.06-7.21-29.15-3.27-16.06-12.77-42.7,1.6-.46,3.21-1,4.82-1.45,5.77,17,17.18,39.07,19.6,43l0,0a.15.15,0,0,0-.14.12h0l.12-.12h0c.45.71.58.8.3.1l-.2-.24-.06,0c-3.22-13.3-10-29-14.1-44.67,1.35-.44,2.7-.88,4.06-1.35,10.67,25.93,4.68,13,19.52,41.26-9.54-30.47-4.81-16.22-14.16-43.18,1-.39,2.08-.74,3.14-1.14,3.85,10.08,19.83,51.25,20.73,42a.7.7,0,0,0-.1-.36C1002.13,516.49,1007.17,531,998,503c0,0,0-.07,0-.11.42-.17.82-.32,1.24-.5v.05c12.06,30.89,5.32,16,20.1,44.58-9.28-30.42-4.57-15-14.14-46.18a3.14,3.14,0,0,0-.44-.9l.64-.28c7.72,16.35,14.95,37.4,23.81,51.36ZM842.55,218.66c-2.15-1-2.89-.91-4.42-2.17a4.05,4.05,0,0,1,7.74-2.41c-1.06,3.82.08,3-3.3,4.58ZM829.73,192.9c-.44,5.92.06,10.38-1.23,16.19-5-4.57-5.68-9.81-6.87-16.45a4.05,4.05,0,0,1,8.1.26Zm-11.93,5.5c-6.17-14.58-3.5-7-7.89-22.79a4,4,0,1,1,7.92-1.68c1.21,16.7,1.27,8.54,0,24.47Zm-16.31-3.93c-8.48-14.19-4.53-7-11.89-21.51a4.05,4.05,0,1,1,6.9-4.25c5.12,17.19,3.52,8.59,5,25.76Zm-16.88-5.64c-8.3-14.17-4.4-6.81-11.65-22.13a4.05,4.05,0,0,1,7.53-3c4.31,16.81,3,8.43,4.12,25.12Zm-15.75-6.75c-9.91-14.59-5.29-6.92-13.8-23a4,4,0,1,1,7.34-3.42c5.64,17.73,3.54,8.9,6.46,26.46Zm-19.7-2.25c-10.1-14.75-5.58-6.81-13.36-23.89a4.05,4.05,0,1,1,7.59-2.85c4.67,18.24,2.79,9.31,5.77,26.74Zm-23-31.77c2.29,14.13,1.2,6.92,3.28,21.65-9.47-12.77-5.62-5.76-11.36-21.12a4,4,0,1,1,8.08-.53Zm-12.48,16.58c-9.85-14.48-5.58-7-12.87-22.45a4,4,0,1,1,7.74-2.36c4.17,16,2.43,7.72,5.13,24.81Zm-16.32-4.5c.68,8.6-14.27-21.73-14.27-21.73a4.05,4.05,0,1,1,7.15-3.81c.37,1.21,6.5,25,5.74,25.56,0,.3,1.11,0,1.38,0Zm-20.25,4.5c-11.94-18.66-6.66-8.78-15.69-29.74a4.05,4.05,0,0,1,7.74-2.41c5.81,21.61,3.17,10.89,7.95,32.15Zm-25-8.7.83,1.39a2.76,2.76,0,0,1-.83-1.39c-2.37-4-9.2-15.56-11.79-21a4,4,0,1,1,7.24-3.63c.68,2.31,2.65,19.51,4.55,24.62Zm-17.74-.3c-9.17-16.38-4.83-8.08-13-24.9a4.05,4.05,0,1,1,6.92-4.22c5.94,19.7,4,10,6.1,29.12Zm-18.58-2.82h0c-1.93,1-12.5-18.41-13.08-19.39a4,4,0,1,1,7.06-4c.6,1.6,8.05,21.83,6,23.36Zm-18-4.5c-8.15-11.26-4.37-5.16-11.16-18.41a4.05,4.05,0,0,1,7.69-2.57c3.53,14.12,2.43,7.12,3.47,21Zm-16.89-2.24c-6.73-8.22-3.74-4-9.08-12.53a4.05,4.05,0,0,1,6.92-4.22c3,11.32,2.43,5.73,2.18,16.74Zm-20.24.56c.85,4.48-5.35,3.39-8.56-21.38a4.05,4.05,0,0,1,8.1,0c-.13,3.06.21,20.52-.67,21.41l0,.06c.56,0,.19,0,1.09-.09Zm-21.84-24.76c-1.73,17.33-.74,8.89-2.92,25.32-5.41-16.18-3.62-7.76-5.18-25.32a4.05,4.05,0,0,1,8.1,0Zm-19.8,27c.8,2-3.9,6.21-8-27.86a4,4,0,1,1,8.08-.55c-.22,9.35-.69,18.93-.47,28.28-.12.07-.42-.06-.4.18l.77-.05Zm-17.34-26.57c.62,17.35.46,8.68.46,26-7.54-16.3-4.64-7.73-8.56-25.75a4.05,4.05,0,0,1,8.1-.25Zm-19.14-.69c1.69,15.81,1,7.66,2.16,24.44-8.64-15.14-5.22-7.16-10.24-23.95a4,4,0,0,1,8.08-.49ZM468.74,144l0,0c0-.12.14-.16.23-.22l-.21.24Zm.59-.58c-2.72-4.55-9.67-17.76-12.63-25.78a4.05,4.05,0,0,1,7.61-2.8c.51,2.34,5.37,25.55,5.34,28.58l.4.47c.74,1.71.38,1.36-.6-.27a1,1,0,0,0-.35,0l.23-.2Zm-14.45-4.67c-9.06-14-4.81-6.8-12.76-21.57a4.05,4.05,0,0,1,7.52-3c5,16,3.24,7.8,5.24,24.58Zm-17.44-.56c-7.76-8.11-4.14-3.53-10.6-13.93a4.05,4.05,0,0,1,7.7-2.53c3,11,2.11,5.46,2.9,16.46Zm-19.13-1.69c-3.46,1.38-6.65-2-9.38-4.26a4,4,0,0,1,6.38-5c1.32,2.9,3,6,3,9.25ZM701.78,679.29h0v0Zm190.78-54.58h0l-.09-.07a.21.21,0,0,1,.12.05Zm108.81-126h0a2.93,2.93,0,0,0-.53.27l-4.25.22c-1.72.29-3.37.6-5.05.9,7.38-3.17,10.53-6.19,10.67-9.06,1.12.79,2.25,1.59,3.39,2.43a6.81,6.81,0,0,0-.59,5.28l-1.78.1a3,3,0,0,0-1.86-.14ZM775,667.57h0c-3.22-10.39-6.92-28.59-9.44-41.13l2.31-.11c2.64,12.3,8,34.56,10.61,36.74h0c-1.29-13.07-3.55-25.13-5.06-37l1.28-.08c3.8,11.1,11.31,32.44,15.07,41q-7.21.33-14.77.59ZM616.1,666.35h0c-3.42-6.68-10.86-29.68-15.33-41,2.59.08,5.18.13,7.77.19a3,3,0,0,0,.22,2.12c2.85,5.41,12.46,29.06,17.8,39.06q-5.32-.16-10.46-.36Zm-77.66-4.45h0c-3.71-13.63-7.58-27.48-11.09-41.15,2,.21,4,.39,6,.59,2.11,5.62,12.19,30.73,16.57,41.6-4.64-.35-8.35-.68-10.9-1l-.54-.06Zm-14.67-1.77h0l0-.06,0,0-.36,0C519,648,514.86,632,511.44,618.91c3.2.41,6.45.79,9.7,1.16,5.28,18.42,8.36,24.43,16.45,41.73q-7.05-.82-13.82-1.67Zm-68.43-13h0c-3.62-13.22-10.39-33.17-13.4-42.2,2.06.62,4.22,1.17,6.32,1.76,13.86,29.34,8,17.49,21.89,44.46-5.12-1.21-10-2.55-14.81-4Zm-44.22-52.33h0c12.31,30.45,6.83,18.91,19.46,42.53a111.91,111.91,0,0,1-19.46-12.41c-2.76-12-5.68-23.69-8.49-35.81,2.77,1.48,5.6,2.91,8.56,4.27a3.09,3.09,0,0,0-.07,1.42Zm7,1.69h0c1.76.72,3.6,1.4,5.4,2.1a2.59,2.59,0,0,0,.07.73c1.76,5.24,10.58,28.82,16.2,42.26-2.62-1.08-5.15-2.24-7.64-3.46-8.83-25.79-5.1-14.71-14-41.63Zm12.37,4.72h0c1.46.51,3,1,4.51,1.47,5.26,15.27,10.61,28.79,16.47,43.24-3.28-1.08-6.45-2.26-9.55-3.49-3.4-11.74-9.13-32.73-11.43-41.22Zm24.72,7.38h0c2.77.7,5.62,1.35,8.47,2,7.69,16.36,15.08,26.89,21.44,43.72q-7-1.32-13.6-2.84C461.72,623,466,634,455.22,608.57ZM471,612.18h0c2.71.57,5.44,1.13,8.22,1.65a3,3,0,0,0,0,1.12c.11.22,10.37,25.77,17.53,41.36-3.14-.51-6.24-1-9.28-1.59-.93-9.54-11.42-31.24-16.5-42.54Zm29.29,44.69h0c-7.29-23.81-3.83-13.59-14.48-41.86l4.61.79a2.84,2.84,0,0,0,.05,1.58c5.72,13.67,10.81,28,18.51,40.77q-4.41-.61-8.69-1.28Zm-3.49-40h0c2.78.44,5.61.83,8.44,1.22,3.22,8.55,12.44,32.83,16.82,41.85-4.07-.52-8-1-12-1.6-3.77-13.95-8.71-27.8-13.28-41.47ZM551.22,663h0c-3.35-22.33-5.32-21.67-11.33-41.07,1.88.17,3.79.3,5.69.45a2.85,2.85,0,0,0,.15.75c5.88,13.65,11.06,28.25,19.28,40.78-5.18-.31-9.81-.61-13.79-.91ZM366.13,432.44h0c-11.68-76.55-.82-119.67,1.24-195.14,1.08-39.72,7.46-72.11,10.53-111.1v-.4a42.48,42.48,0,0,1,11.33-10.1c56.21-14.52,138.62-4.56,196-.23,13.24,1,31.59,2,52.51,3.67,68.65,11.62,134.1,28.65,172.76,48.18,40.73,20.57,52.9,94.71,57.29,134.55,3.47,31.55-1.26,100.74,2.72,115.72,12.06,45.32,70,58.43,110.11,72.49C926,504.57,852.89,525.9,850.12,590.55c-1.74,40.64-268,11.22-298.53,7.17-45.84-6.1-128.12-11.73-157.08-52-39.36-54.66-19.27-53.6-28.38-113.33ZM895.3,331.63h0a3.33,3.33,0,0,0-.32-.24c0-.18,0-.35,0-.53l.3.77Zm6.5,36.4h0c0,1.11,0,2.21.05,3.33-1.08-2.7-2.41-5.43-3.94-8.83a3,3,0,0,0-1.51-1.12c0-.88-.08-1.79-.11-2.74a3.07,3.07,0,0,0-2.14-2.89c0-2.36-.09-4.37-.13-6.13,0-.91.08-1.83.12-2.72,2.4,6.91,5.29,14.53,7.66,21.1Zm5.59,78.21h0l.58.37-1-.52.38.15Zm-11-150.95h0c.21.71.41,1.44.62,2.13a2.57,2.57,0,0,0-.62-.61v-1.52Zm23.51,160.27h0l0-.08c17.42,7.88,33.83,10.72,52.89,19-15.2-4.58-31.79-8.32-37.68-11.08-5.62-2.64-10.61-5.24-15.17-7.8Zm-23.72-25.81h0a33.48,33.48,0,0,1-1.62-5.54,52.43,52.43,0,0,0,4.18,8.47c-.94-1-1.79-2-2.56-2.93Zm-2-45.55h0c.28.84.58,1.64.91,2.43a3,3,0,0,0-.9-.15c0-.76,0-1.52,0-2.28Zm8-.8h0a2,2,0,0,0,.13.25c.3,4.94.76,10,1.42,15.21-3-11.67-5.15-12.82-6.48-25.21,1.5,2.87,2.4,5.05,4.93,9.75Zm-5.67-48.51h0c1.36,3.53,2,4.79,5.71,12.67-.11,2.65-.22,5.32-.29,8-2.33-9.3-4.68-17.93-5.42-20.7Zm.6-14.75h0a3,3,0,0,0-1.39-2.5c.1-1.92.19-3.8.27-5.69,2.28,5.87,5,12.43,7.18,16.9-.16,3.1-.33,6.23-.49,9.37-2.67-9-5.57-18.08-5.57-18.08Zm6.5-.66h0c-1.91-6.67-4.17-14-5.51-18.66a74,74,0,0,0,5.69,13.1c-.05,1.85-.12,3.7-.18,5.56ZM891.79,242h0c-.19-1.21-.38-2.44-.58-3.69.44,1.08.87,2.17,1.29,3.24a3.06,3.06,0,0,0-.71.45Zm-5,181.75h0a.93.93,0,0,0,0,.23,17.88,17.88,0,0,0,.76,2.39c.27.84.57,1.65.88,2.45-7.28-11.3-8.89-23.56-8.83-38.45.84,5.22,1.82,10.67,3,16.39.25,1.24,1.21,6.17,3,8.51a1.53,1.53,0,0,0-.07.29,53.69,53.69,0,0,0,1.33,8.19Zm-157-293.15h0c52.28,9.81,100.38,26.71,115.53,57.44.88,1.81,1.69,3.53,2.53,5.28-8.77-15-19.82-27.14-33.77-34C792.65,148.7,763.27,139,729.8,130.56ZM700.54,626.41h.4a3,3,0,0,0-.33.73c0-.25,0-.48-.07-.74ZM552.15,623h0l4.5.32c2.27,5.56,15.61,38.05,18.4,37.73l.06-.07c-.16-2.84-8.72-27.94-11.88-37.25,2.71.16,5.39.34,8.1.49a2.71,2.71,0,0,0-.16.75c2.26,6.72,11.65,28.51,16.88,40.25-8.45-.4-16.13-.81-22.89-1.21-3.4-13.93-8.36-27.46-13-41Zm36.76,42.26h0c-6.87-22.55-3.68-11.65-11.57-40.2a3.59,3.59,0,0,0-.11-.57l5,.24c2.4,7.31,10.06,30.14,15.23,40.92l-8.53-.39Zm-.42-40.27h0l5.56.19v0c1.42,2.78,16.36,34.8,21.22,41.13-5.31-.19-10.46-.4-15.42-.61-3.06-10.32-9.06-32.27-11.36-40.76Zm26.1.71h0c3.17.06,6.34.1,9.52.14,13.06,28.75,6.68,16.21,20.88,41.49-5.74-.16-11.39-.33-16.89-.51-3.24-9.23-6.44-24.7-13.51-41.12Zm16.12.2h0c2.81,0,5.61,0,8.42,0,13.16,28,6.73,14.49,19.84,41.74l-12.58-.31c-3.22-9.54-12.66-33.7-15.68-41.47Zm15,0h5.61a3.39,3.39,0,0,0-.08.44c5.53,14.35,11.8,28.9,20.63,41.58-4.26-.09-8.49-.17-12.69-.27-7.74-28.54-3.6-15.92-13.47-41.74Zm59.13,31.17h0c-3.38-20.79-2.93-16.32-4-27.53,8.95,26.41,5,14.58,12.91,38.82-3.92,0-7.86,0-11.79-.06-1-8.31-2.59-19.18-4-27.91,1,2.81,2.81,6.69,6.82,16.68Zm1.46-30.47h0l1,0c1.62,8.15,2.47,12.56,3.07,15.59-.85-3.25-2.1-7.91-4-15.53,0,0-.05,0-.06-.08Zm73.89-1h0c2-.13,3.94-.27,5.86-.43,5.18,14.52,14.6,37.37,16.15,41.12-3.72.23-7.55.43-11.46.62-2.13-8.14-7.21-27.62-10.55-41.31Zm22.06,40.68h0c-3-13.58-6.91-27.83-10.45-41.62,2.62-.24,5.17-.52,7.68-.81,4.27,10.6,12.48,30.84,17.41,41.4-4.68.39-9.57.73-14.64,1ZM819.66,665h0c-3.36-10.3-10.82-31.58-14.44-41.88,3.41-.46,6.72-1,9.89-1.5,9.69,25.32,4.12,12.62,18.16,40.12-8.6-29.18-4.71-16.24-12.26-41l7.16-.19s0,0,0,.07,13.4,32.74,19.33,40.84c-7.84,1.42-17.24,2.58-27.84,3.51Zm14.87-44.69h0a60.6,60.6,0,0,0,7.35-.93c10,24.8,4.66,13.76,19.08,38.93a104.82,104.82,0,0,1-11.9,2.89c-5-10.49-11.12-30.26-14.53-40.89Zm32.37-18.2h0c3.77,9.06,10.64,25.46,14.38,32.44a98.28,98.28,0,0,1-7.44,14.32c-3.14-24.57-.65-12.83-9.32-40.42a6,6,0,0,0-.83-1.51,37.83,37.83,0,0,0,3.21-4.83Zm-3.19-14h0c.48-8.18.29-17.39,7.24-27.8-4.63,10-5.75,19.6-7.24,27.8Zm35.8-51.88h0c1.18-.58,2.33-1.09,3.49-1.65,3.82,8.22,16.79,36.25,20,41.58q-5.31,1.93-9.57,3.76c-2.13-15.55-7.72-26.91-14.15-41.52a3,3,0,0,0-.6-1.68l.82-.49Zm9-4.15h0c1.87-.81,3.74-1.61,5.59-2.35,11.83,19.55,10.75,16.35,18.23,39.68a14.79,14.79,0,0,0,1.53,3.06q-5.55,1.79-10.21,3.47c-.38-7.44-11.78-35.42-15.14-43.86Zm26,38.16h0c-6.8-27.41-2-18.13-14.74-42.67,1.31-.48,2.61-1,3.92-1.41,7,15.22,14.3,27.15,20.79,43-3.3,1-6.41,1.95-9.34,2.88a10,10,0,0,1-.63-1.81ZM912.65,440h0c-11.51-9.85-15.93-23-17.56-37.09,3.88,10.92,7.74,17.87,14.38,31.14-2.63-15.3-7.79-25.69-11.53-41.43,1.71,3.28,3.92,7.49,6.94,14A250.25,250.25,0,0,0,912.65,440Zm-8.74-131.42h0c-1.42-7-3.18-12.89-4.41-20.95,1.19,4.22,2.51,8.9,4,14.56-.29-16.12-3.47-28.32-5.46-44,4.88,17.85,6.05,34.18,5.89,50.37ZM847.31,167h0a6.81,6.81,0,0,0,1.14,2.52c5,6.19,9.53,12.15,13.69,17.94C895.7,246.78,885.56,342.26,888,412.65a2.93,2.93,0,0,0-1.87,1.15,21.75,21.75,0,0,1-.88-3.92c-16-96.58,21.15-115.88-30.47-226.45-7.58-16.21-22.59-29-41.92-39.3,8.34,3.12,15,6.34,19.64,9.63A97.54,97.54,0,0,1,847.31,167ZM372.52,107.46h0a9,9,0,0,0,11,9.69,38.11,38.11,0,0,0-6.06,6.2,9.14,9.14,0,0,0-16.12-2.46,36,36,0,0,1,11.19-13.43Zm50.69,478.28h0c24.17,9.31,69.71,18.93,122.66,26.55-61.51-5.48-116.63-17.14-150.16-40.39-7-4.85-13.11-11.66-18.48-20a105,105,0,0,0,46,33.88Zm-41.47-10.67h0c1.17,4.67,3.71,14.64,6.34,23.6a139,139,0,0,1-14.14-32,83.51,83.51,0,0,0,7.8,8.38ZM394,607.28h0c-1.38-7.68-3.57-18.65-5.1-26.43l.48.36c2,1.39,4.24,2.71,6.42,4,4.14,14.66,6.51,25.06,12.43,37.29A99,99,0,0,1,394,607.28Zm279.32,60.65h0c-5.22-14-10.92-27.63-15.92-41.77a3,3,0,0,0-.07-.32l3.49,0a3.2,3.2,0,0,0-.11,1.48c10.75,26.77,4.64,13.55,18.44,39.64-8.3-28-4.16-14.37-12.39-40.85a3.05,3.05,0,0,0-.13-.32l2.27,0C672.37,640.33,675,653,680.29,667l0,.28.11-.07.22.55c1.39.33.9-1.1.51-2-1.47-13.32-4-26.9-6.16-40.14l5.65-.08.38,0c2.88,10.43,9.3,35.12,12.43,42.67q-10.11-.12-20.09-.3Zm21,.3h0c-1.61-16.43-3.69-27.09-7.2-42.37l3.07.14a3,3,0,0,0-.43,2s4.61,24.63,8.46,40.32l-3.9,0Zm20,.13h0c-1.14-9.65-1.53-13.93-2-17,.77,3.24,1.92,8,4,16.81-1.13-28.52-.1-16.24-3.23-41.44l6.06.12c4.87,26.43,2.42,15.59,7.88,37l-.44-.35a3.59,3.59,0,0,0,.32,1.81c1.3,2.87,1.93,2.59,2.14.41h0l0,0c.62-6.73-2.81-31.34-3.81-38.7h1.1c5.08,14.58,8.4,25.56,10.83,41.31-7.56.06-15.21.08-22.9.06Zm23.1-.06h0c2.14-16.09-.73-26.64-4.82-41.27h5c4.31,23,1.16,12,11.36,36.89-4.71-25.75-3.18-14.82-5.51-36.93l3.23,0c2,10,6,28.82,9.15,41.09q-9,.18-18.36.25Zm14.83-41.44h.29c5.09,19,1.73,9.84,10.93,28.94-3.6-20.26-2-11-4.94-29.09l1.5-.05c3.52,11.51,10.16,32.37,13.72,41-5.24.17-10.59.31-16,.41-2.31-13-4.08-28.71-5.48-41.15Zm109,31.38h0c-9.62-26.92-5.81-15.67-13.75-40.29a36.2,36.2,0,0,0,7.4-3.34c11.32,23.65,6.32,13.56,17.81,36l-1,1.63c-1.52,2.28-5.13,4.25-10.41,6Zm21.16-26.63h0c-2.93-10.87-10.73-32.44-11.84-35.33a3,3,0,0,0-.38-1.4q.9-2.46,1.63-5c4.12,7.33,10.18,18,14.63,25.66a80.55,80.55,0,0,1-4,16.08ZM874,581.32h0q.66-3.14,1.27-6.27c6.78,12.91,4.18,8.46,14.52,23.62a43.18,43.18,0,0,0-2.42,10.58c-4.7-10.52-10.93-23-13.37-27.93Zm16.27,16.26h0C883,579.13,886.65,588,877.1,566c.57-2.53,1.19-5,1.91-7.34h0c1.12,1.9,14.69,23.5,15.06,23.67,2.21-4.66-7-20.73-9.35-26a3.09,3.09,0,0,0-4-1.7,2.55,2.55,0,0,0-.38.26,34.62,34.62,0,0,1,4.42-8.28c3.22,6.6,17.59,36.82,19,37.43v0c.33-8.88-10.51-32.86-13.88-41a3.13,3.13,0,0,0-.32-.46c1.32-.93,2.74-1.86,4.22-2.79,4.81,10,16.38,34.44,19.19,40.39-13.9,6-19.8,11.33-22.67,17.41Zm73.7-33.9h0q-10.68,2.9-19.41,5.5c-2.62-20.17-8.2-26.82-15.15-44.92,1.22-.4,2.45-.77,3.67-1.16,6.12,14,11.85,28.25,19.45,41.5-2.79-14.82-8.6-29.08-13.63-43.25,1.51-.44,3-.89,4.52-1.32C949.2,534.57,955.13,551.07,964,563.68Z" transform="translate(-327.52 -83)"/></svg>