<svg id="Layer_1" data-name="Layer 1" xmlns="http://www.w3.org/2000/svg" viewBox="0 0 683.16 559"><defs><style>.cls-1{fill:#231f20;fill-rule:evenodd;}</style></defs><title>quote1</title><path class="cls-1" d="M950.94,166.2C940.22,150.76,885.86,137.46,854,131c3.51.06,7,.12,10.38.16a4.31,4.31,0,0,0,0-8.61c-99.12-1-243.63-10.69-337.25,7.22C489.29,137,388.06,149.52,363.88,178.4c-7.2,8.6-13.42,24.53-18.39,45l-1.29,2.79C310.78,301,309.76,366,330.73,442.64c7.17,26.17,17.53,46.36,30.37,61.9a70.47,70.47,0,0,0,9.76,12.92c64.42,66.06,288.9,34.94,369,43.14A51.78,51.78,0,0,1,768,586.53c6.9,18.46,5.67,40.55,8.2,56.4,3.37,31.83,9.31,53,27,13.76,64.46-143.12,38-58.55,142.79-103.76,37.19-16,48.55-53.59,49.48-95.88,15.26-96-11-242.7-44.48-290.85Zm1.2,121.13a4.31,4.31,0,0,1,4.31-4.31c2.11,1.64,1.39.32,3.42,2.45l-.42,2.73,0,.05-2.28,1.48c.07.83-.06.45.4,1.15l-1.09.75a4.31,4.31,0,0,1-4.31-4.3Zm-4.56-13.89a4.3,4.3,0,0,1,2.73-5.44c5.34.71,2.86-.28,7.33,3.19-3.06,4-1.43,2.46-4.61,5a4.31,4.31,0,0,1-5.45-2.73Zm-5.89-15.1A4.3,4.3,0,0,1,946,254c6.22,1.75,3.2.39,9,4.31-5.76,3.91-2.74,2.55-9,4.3a4.3,4.3,0,0,1-4.3-4.3Zm-3.89-14a4.3,4.3,0,0,1,4.3-4.3c6.31,1.41,3.11.42,9.57,3.1-5.72,5.15-2.5,3.37-9.57,5.5a4.3,4.3,0,0,1-4.3-4.3Zm1.27-16.87c7.26-.37,3.65-.78,10.79,1.31l0,0c-5,5.42-2.34,3.3-7.73,6.69a4.3,4.3,0,0,1-3.08-8Zm-3.84-14.54c7.43-.53,3.65-.77,11.36.92-5.44,5.84-2.28,3.29-9.57,7.5a4.3,4.3,0,1,1-1.79-8.42Zm-11.94-6a4.31,4.31,0,0,1,3.08-5.26c3.34-.24,16.81-2.16,19-.64l0,0c-.32,1-.07.59-.63,1.24l.1,0c-10.76,6.36-5.29,3.86-16.32,7.72a4.31,4.31,0,0,1-5.26-3.07Zm-3.4-9.65a4.3,4.3,0,0,1-.41-8.6c7.77.47,3.47-.21,12.76,2.79v0c-8.28,4.88-4.13,3.05-12.35,5.77Zm-24.73-17.06a4.3,4.3,0,0,1-5.34-6.75c8.14-5.22,9.24-7.4,18.81-7.38h0c-4.33,4.73-9,9.49-13.47,14.13ZM875.6,174a4.31,4.31,0,1,1-6.86-5.21c6.59-6,8.34-7.84,17.17-7.56-4.28,5.24-6.57,6.86-10.31,12.77Zm-16.48-5a4.3,4.3,0,1,1-6.18-6c5.62-3.8,6.91-5.19,13.25-3.58h0c-2.37,3.58-4.64,6-7.07,9.57Zm86,343.39h0c3.33,11.71,2,8.94-2,20.25a4.3,4.3,0,0,1-7.9-3.42c5.36-8.19,5.53-7.51,9.92-16.83Zm-21.5,17.51c6.27-10.25,2.59-5.5,11-14.22-1.07,11.86,0,6.46-2.7,16.27a4.3,4.3,0,1,1-8.35-2Zm-8.55,6.6a4.3,4.3,0,0,1-5-7c5.15-3.33,6.66-6.26,10.9-10.56,1.51,8.6-.16,10.93-5.85,17.53Zm-20.51-11.55c5.29,3.8-7.72,12.7-10.74,15.13a8.05,8.05,0,0,1-8.64-.27c-2.28-1.75-2.11-4.48.38-6.08,5.56-2.53,13.46-6.48,19-8.78ZM865.6,535.7l.1.11c1.93-.11,5.25-7.49,7.37-4.9.32,5.24,1.23,9.3-4.54,12.72a4.3,4.3,0,0,1-2.89-8.11l0,.18Zm-11.79,11.24a4.3,4.3,0,0,1-2.73-8.16c7.4-2.13,6.47-3.79,10.93-6.68,5.15,4.56-5.34,12.89-8.2,14.84Zm-261-4.85h0a4.24,4.24,0,0,0-2.75,3.36q-8,.33-16,.74c3-2.58,5.52-3.73,9.84-7.11,42.35,1.29,83.78,3.06,116.4,8.52-13.86-.55-30-.84-48.89-2.08-15.34-1-31.18-1-47.21-.57.91-.88,2.25-2.24,4.95-4.78-11.22.38-5.77-.29-16.38,1.92Zm-74.85,3.74h0a4.33,4.33,0,0,0-1.51,2.85c-6.3.13-12.56.18-18.74.12,12.31-5.26,6.64-2.61,23-11.61v0c-24.67,3.05-13,.85-35.15,6.39-2.92.94-4.28,2.93-3.54,4.79a274.5,274.5,0,0,1-37.86-4.23c3.92-1.67,7.55-4.32,8.47-8.73-3.13-1.61-6.08,1.47-11.79,1.1a4.29,4.29,0,0,0-3.85,4.71,4.2,4.2,0,0,0,.47,1.53c-2.89-.65-5.74-1.38-8.56-2.17,5.22-3.36,5.55-2.83,7-9.34l0,0c-3.71.66-7.5,1.34-11.2,2a4.28,4.28,0,0,0-2.38,5.38c-18.86-6.13-35.86-15.65-50.2-30.07-14.11-17.81-23.06-49.31-27.83-86.07,6.33,37.18,18.35,69,37,87.22,14.74,14.39,48.73,21,90.71,24.57-2,.85-5,2.22-11,4.77a4.3,4.3,0,0,0,4.87,7.1C478.21,538,475.82,539.85,482,535c23.53,1.67,49.16,2.51,75.1,3.27-9.43,2.55-5,.74-15,6.79a4.3,4.3,0,0,0-1.7,2.78q-6.65.3-13.25.53c2.53-2.77,1.72-1.95,6.14-8.82-10.76,2.75-5.65.67-15.31,6.26ZM873.36,144.25h0c2.32.56,4.68,1.15,7.06,1.75l37.49,17.29a52.2,52.2,0,0,1,13.37,10.48c-15.85,2.81-8.07,1-23.41,5.47a4.3,4.3,0,0,0,2.72,8.16c14.82-8,8-3.4,20.72-13.61,26.21,27.91,33.73,86,37.31,115.8,9.52,79.4,18.59,159.54-13.17,233.24.26-6.63,1-15.85.93-20.85l-.53-.37-.49.33-.1-.14c-5,3.62-7.33,18.27-8.49,23.43a4.24,4.24,0,0,0,5.83,4c-.53,1.16-1.12,2.3-1.68,3.46a31,31,0,0,1-11.18,2.9c-9.06.61-23.64,1.22-39.51,3.06,5.17-4.86,7-7.42,6.91-15.21-5.13,3.5-6.81,6.12-12.23,8.78a4.3,4.3,0,0,0-1.71,5.84,4.25,4.25,0,0,0,1.15,1.33c-32.16,4.32-67.32,14.19-71.73,39.49-.9,5.21-29.82,107.16-37.18,57.69A307.63,307.63,0,0,0,777.85,599c-1.26-12.82-2.62-23.85-4.36-29.57-1.9-6.25-10.16-10.21-23-12.67a54.3,54.3,0,0,0-11.58-4.65C654.45,518.67,428.6,547,385.81,505c-55.68-54.7-48.86-242.17-6.67-309.1,32.71-51.89,422.4-48.24,490.06-48a4.25,4.25,0,0,0,4.16-3.63ZM558.55,538.33h0l14.69.43c-2.45.72-4.83,2.24-8.88,4.87a4.26,4.26,0,0,0-1.32,3.12l-11.5.58c2.9-3.05,2.12-2.28,7-9Zm202.71,26.85h0c3.8,1.67,6.24,3.76,7,6.39a58.84,58.84,0,0,1,1.38,5.77,56.73,56.73,0,0,0-2.87-4.92,51.7,51.7,0,0,0-5.55-7.24Zm21.58,84.49h0c3.89,9.61,8.95,10,14.32,5.09-.51,1.66-.91,3.06-1.14,4.09-7.12.5-10.94-2.89-13.12-8.75l-.06-.43Zm46.85-71.09h0c1.09-6.54,5.46-11.74,11.92-15.91A135,135,0,0,0,829,582.09c.3-1.31.54-2.5.72-3.51Zm94.51-34h0c-20.56,5.36-40,6.16-55.14,7.67,18-4.24,38.83-6.14,55.14-7.67Zm49-55.69h0c14.19-55.1,9.63-293.57-54.73-326.75l-37.09-15.86c14.37,3.64,29.35,7.94,41.17,12.4a89.23,89.23,0,0,1,27,21C956,190.9,961.81,205.33,967,222c8.88,50.17,18.3,158.6,21.53,189.69.65,6.33,1.18,12.34,1.61,18.15-2.85,40.83-11.18,75.11-26.45,92.84,3.45-8.09,5.68-18.76,9.56-33.8Zm18-94.08h0c-3.75-29-8.91-56.51-10.77-77.42-2.31-26-3.84-48.81-6.19-68.64,10.55,44,16.9,97.36,17,146.06ZM529.05,137.45h0c82.16-15.52,206.09-9.4,301.4-7a4.5,4.5,0,0,0-.23,1.16,4.3,4.3,0,0,0,4.31,4.3c1.33.23,3.25.58,5.65,1-2.09-.14-4.2-.28-6.35-.4-30.65-1.79-65.2-.68-96.14-.16,28.44.48,70.42-1.44,110.75,2.81C742,138.88,405.88,139,372.75,192.09c-15.29,24.47-26,63.91-30.92,107.24,2.7-35.57,8.1-68,15.41-90.47,29.84-54.38,60.79-47,129.11-55.48,100-12.37,180.62-14,278.84-20.57C665.45,135.6,586,138.39,486,150.17c-19.66,2.32-36.29,3.42-50.75,5.05,35.48-8.62,75-14.21,93.84-17.77Zm-159.38,45.8h0a32.91,32.91,0,0,1,4.27-4.1,90.63,90.63,0,0,0-6.7,7.41,36.4,36.4,0,0,1,2.43-3.31ZM335.61,441.47h0c-19.4-69.93-20.3-129.55,5.46-196.76-12.13,68.35-12.34,168.66,7.21,230.25a185.27,185.27,0,0,1-12.67-33.49ZM534.37,553.78h0c39-1.41,79.2-4.6,116.57-2,11.57.79,22.83,1,33.58,1.26-43.91.15-98.39,2.49-150.15.77Zm254,119h0c-1.48-1.73-2.72-6-3.82-11.85a16.71,16.71,0,0,0,10.19,2.88c-2.28,4.66-4.37,7.89-6.37,9Zm78-110.82h0c-13,1.09-23.77,9.43-32.8,21.08,6.67-12.28,13.06-21.44,18-23.2,16.08-5.67,47.82-2.51,82-13.67a101.44,101.44,0,0,0,9.9-3.77,30.39,30.39,0,0,0,6.87-1.67c18.91-8.42,31.63-29.42,39.43-57.54C982.67,539.75,947.92,555.15,866.39,562Z" transform="translate(-316.7 -119)"/></svg>