<svg id="Layer_1" data-name="Layer 1" xmlns="http://www.w3.org/2000/svg" viewBox="0 0 498.83 636.28"><defs><style>.cls-1{fill:#231f20;fill-rule:evenodd;}</style></defs><title>quote11</title><path class="cls-1" d="M641,613.21a4.76,4.76,0,0,0-5.6,3.75c.54,8.58-.5,4.39,3.35,12.51,4.81-7,2.86-3.4,6-10.65a4.77,4.77,0,0,0-3.75-5.61Zm320.7-473.7c3.66,2.21,6,4.05,5.16,5.13a35.28,35.28,0,0,1-4.61-.59c7.23,61.28,3.11,141.19-1.41,199.05l4,2.75-4.17-1c-2,25.41-4.05,46.37-5.21,59.43,2.47,1.9,4,3.26,3.42,3.47a36.66,36.66,0,0,1-3.65-.84c-.13,1.54-.26,3-.36,4.25a4.7,4.7,0,0,1-4.24,4.22L949.37,424c-.28,2.29-.54,4.53-.8,6.78.35.37.67.72,1.07,1.13l-1.16-.37c-.53,4.44-1,8.83-1.52,13.12.44.47.86.94,1.35,1.49-.53-.19-1-.32-1.46-.49-1,8.57-1.85,16.79-2.69,24.73.66.69,1.37,1.42,2.17,2.22L944,471.8c-.4,3.81-.79,7.57-1.18,11.25l1.84,1.79-2-.5q-1.87,18.39-3.51,34.5c1.91,2.34,2.87,4.15,1.84,4.72a12.74,12.74,0,0,1-2.24-.87C936.3,546.63,934,566.89,931,584c0,.43,0,.66-.14.75-.93,5.26-1.94,10.21-3,14.89,1.12,4.82,1.17,7.6-1.24,5-16.91,64.77-55.08,72-190.54,72.06-49.83,0-111.88,16.45-123.46-34.53a4.55,4.55,0,0,1-1.66-1.91c-4.31-19.39-2.52-25.43-4.59-43-6.73-3.44-55.2,1.55-89-.94-22.78,2.38-39.59,1.05-49.13-25.75a4.76,4.76,0,0,1,4.34-5.16h0c3.09-8,28.95-25,95.21-58.53,14.5-7.34,29.13-14.7,44-21.39C608,402.41,592.23,117.15,631.45,99c33.82-15.69,244.27-80.19,290.46-46.21,2.63-.58,4.27,0,3.48,3.13.17.19.38.37.54.57a30.85,30.85,0,0,1,2.85,1.6c.26,0,.41.06.43.3,15.87,10.5,25.44,36.45,30.86,70,1.07.89,2.24,1.88,3.56,3l-.13-.07c.35.46.21.18.37.86-.32.15-1.58-.19-3.36-.83.42,2.72.81,5.47,1.17,8.28Zm-5.56-3.12c-.28-2.45-.59-4.87-.92-7.24-4.44-1.85-9.91-4.29-15-6.59.17,1.78.33,3.57.48,5.4,4.4,2.69,10.29,5.68,15.4,8.43Zm-2.51,190.39c.8-9.26,1.56-18.93,2.27-28.86-10.23-2.87-10.87-2.84-15.34-4.89-.18,3.24-.38,6.46-.56,9.71,4.53,2.81,3.7,2.59,12.63,11.67-9-2.74-10.75-3.16-13.12-4-.11,1.86-.24,3.72-.36,5.6,6,3.1,5,2.71,14.48,10.81ZM936,504.88c.39-3.26.81-6.59,1.23-10-8.79-2.11-5.42-.9-14.93-6-.12,1-.25,2-.37,2.94,8.67,5.53,6,3.28,14.07,13ZM894,648.13c1.57-3.18,2-17.48,2-30.43-.31.48-.61,1-.94,1.43a4.56,4.56,0,0,1,0,3.15c-3.88,16.09-7.84,26.07-11.11,32.17a66.5,66.5,0,0,0,9.13-5.39.92.92,0,0,1,0-.71l.22-.68c.7.33.69.3.8.54a.06.06,0,0,0,0-.08Zm-223.37-1.64,2.64-.18a4.86,4.86,0,0,1,1.07-1.87h-4.23c.19.76.35,1.4.52,2Zm-36.34,5c.86,3.78,1.94,7.48,3.17,11.45a44.46,44.46,0,0,0,9.51,4.17c-2.39-3.06-5.13-10.15-6.86-15a57.58,57.58,0,0,1-5.82-.58Zm-31.8-63.77c3.65-.08,5.81.51,7.26,2.3a14.57,14.57,0,0,1,4.13,2.65c-.7-4.94-1.1-8.24-1.13-8.5a4.76,4.76,0,0,1,3-4.4,26.87,26.87,0,0,0-.65-5.26,22.1,22.1,0,0,0-3.61-3.17c-.42,7.51,0,4.23-4.36,15.81-4.62-12.87-2.92-6.75-5.42-18.29a4.36,4.36,0,0,1,0-2.24l-.79-.24c-.57,11.33.25,6-3.89,19.78-4.24-14.26-2.69-7.77-5.16-21.09h-.25c-.62,6.14-1.44,14.34-3.19,20.56a103.81,103.81,0,0,1,14.09,2.09Zm-15.41,1.55,0-.09H587l.09.09Zm-84.36-2.91,3.43-.12a91.79,91.79,0,0,1-5.38-14.89l-.51,0c.71,3.67,2,10.66,2.46,15ZM510,572.47c.34,4.43.7,9.17.7,13.55l6.61-.26c-2.67-4.36-5.86-10.57-7.31-13.29Zm12.07,13.1,4.71-.19a60.49,60.49,0,0,1-6.39-15.79l-1.94.19c1.31,4.3,3.17,11.13,3.62,15.79Zm7.25-16.86c.37,8.82,2.35,9.11,1.15,16.54,1.67-.07,3.34-.13,5-.18-2.32-4.35-4.52-14-5-15.84a4.42,4.42,0,0,1,0-.63l-1.12.11Zm10.48,0c.07,3.81.12,12.13-1.17,16.22,2.94-.09,5.9-.16,8.87-.23-5.3-11.27-3.22-7-7.7-16Zm8.53-1.77c2,9.15,1.71,5-.58,17.75,2.35,0,4.71-.09,7.05-.11-3.23-9.59-2.22-5.68-3.92-17.84l-2.55.2Zm11.53-.52c-1.11,12.38-.31,8.33-3,18.14,5.83-.05,11.56,0,17,.16-1-4.88-1.67-13.77-2-19l-1,0-1.71,0c1.11,6.75-.08,11.47-3,18.61-5.71-8.58-1.91-9.8-6.34-17.91,0,0,0-.06,0-.09Zm21.06-.94c-.7,5.23-1.69,13.79-3.24,19.36,2.39.11,4.7.24,6.95.41-1-5.44-1.74-14.89-2.12-19.83l-1.59.06Zm-89.88,6.34-1,0c1.69,7.58,1,4.66,3.57,14.64l4.46-.08a118.36,118.36,0,0,1-7-14.6Zm94.67,17.3c-9.27.3-19,1.53-26.65,2.56,11.18-.58,19.91-1.47,26.74-2.28,0-.12-.05-.2,0-.26h-.09v0Zm1.48,0s0,.1-.05.14l1.38-.17-1.33,0Zm27.09,6.4a13.05,13.05,0,0,0-3-2.38c1.13,3.5,1.72,9,3.06,17.4.06-3.61.19-7.51.41-11.75-.18-1.13-.34-2.23-.5-3.27Zm4.25,24.29c.38,11,2.06,17.84,5.76,22-.19-1.11-.4-2.21-.56-3.37a116.75,116.75,0,0,1-5.2-18.68Zm14.17,21.35c.17,2,.41,3.9.71,5.75a36.78,36.78,0,0,0,5.22.75c-.14-.42-.23-.72-.23-.72a4.69,4.69,0,0,1,.71-3.94,28.86,28.86,0,0,1-6.41-1.84Zm16.87,2.92-2.22-.14a3.81,3.81,0,0,1,.23.45c.09,1,.17,2.16.25,3.45,1,0,2-.05,3-.1-.61-1.7-1.06-3-1.22-3.41,0-.08,0-.17,0-.25Zm-1.48,8c.37,5.63.91,12.11,2.18,15.37a2,2,0,0,1-.32.41,79.31,79.31,0,0,0,10.23,1.9,151.13,151.13,0,0,1-7.78-17.8c-1.48.06-2.92.1-4.31.12Zm12.75-.52c1.31,6.22,2.75,13.65,3.06,18.58,3.13.27,6.36.43,9.66.49-7.67-12.38-5.49-8.22-10.55-19.19l-2.17.12Zm-.93-4.39,1.09-.07L661,647a4.66,4.66,0,0,1,.08-2.57l-1.68,0,.6,2.86Zm21.27-2.8a4.85,4.85,0,0,1,.82,1.3l4.08-.23-.14-.37a3.94,3.94,0,0,1,0-.69Zm32.85.21h-2.28a.71.71,0,0,0,0,.14l2.31,0a.66.66,0,0,1,0-.15Zm66.51-1.19-.41,0c0,1.85,0,3.39,0,4.69l1,0c-.2-1.47-.39-3.05-.58-4.75Zm59.89-5.78-2.31.37c-.68,2.87-1.39,5.46-2.13,7.91,1.34-.23,2.66-.47,4-.73a50,50,0,0,0,.47-7.55Zm29-6.93c-2.3.8-4.72,1.57-7.28,2.28-.17,1.59-.39,3.54-.73,5.74a79.53,79.53,0,0,0,7.3-3.56c.27-1.4.49-2.91.71-4.46Zm32.25-42.57c-.35,1-.7,2.08-1.07,3.13a3,3,0,0,1,.41.08c.25-1,.44-2.15.66-3.21Zm-5.8,17.92c0-.64,0-1.2,0-1.8-1.2,3.07-2.33,5.81-3.33,8.09a64.58,64.58,0,0,0,3.35-6.29Zm-17.16,22.27a58.33,58.33,0,0,0,4.79-4.39,44.38,44.38,0,0,1-5.47,3.24,4.59,4.59,0,0,1,.68,1.15Zm-27.32,14.08c.51-2.62.93-5.07,1.14-7.08-1,.21-1.89.43-2.87.63a4.83,4.83,0,0,1,.3,1.26c-.46,2.3-.88,4.24-1.3,5.94.91-.26,1.84-.47,2.73-.75Zm-23.28,4.62c.14-1.88.32-4.3.56-7.65l-1.58.2a4.73,4.73,0,0,1-.36,2c-.87,2.51-1.49,4.35-2,5.82l3.37-.38Zm-11.56,1c.22-1.62.57-3.84,1.06-7.4l-2.87.29a5.57,5.57,0,0,1,.14.71c-.17,2-.34,4.22-.55,6.51l2.22-.11Zm-11.19-6.25-.8.07a.86.86,0,0,0,0,.16c-.91,3.08-1.47,5.06-1.88,6.48l2.76-.05c0-2.47,0-4.77-.09-6.66Zm-50.46,2.5-1.88,0c0,.7.05,1.48.08,2.3l2.45.15c-.35-1.15-.57-1.9-.57-1.9-.06-.2,0-.39-.08-.58Zm-11.1.2c-.64,0-1.29,0-1.91,0a5.12,5.12,0,0,1,.39,1.43l1.89.12c-.15-.61-.27-1.14-.37-1.58Zm-10.45.13,0,0h0v0Zm-9.31.24a2,2,0,0,0,0-.24H724a1.7,1.7,0,0,1,.09.24Zm-20.93-.37-7.59-.08c0,.2.08.38.11.58l4.85-.19,2.67,0c0-.09,0-.18,0-.27Zm-15.24,5.56-4.65.22c2.9,12.67,2.24,8,3.21,20.25,3.93-.13,7.9-.33,11.89-.55-8.06-12.39-5.93-8-10.45-19.92Zm8.68-.34c2,10,1.32,6.27,3,20.2l11.14-.67c-2-3-4.64-8.72-6.76-19.71-1.13,0-2.29,0-3.41,0l-4,.13Zm15.79-.17c.67,5.69,1.68,14.66,2,19.49,4.42-.24,8.79-.45,13.06-.57-6.07-10-4-6.47-11.07-18.85-1.34,0-2.67,0-4-.07ZM729,658.8c.38,1.9.61,4.36,1.29,9.67,1.59,0,3.17,0,4.73,0-3.74-6-5.08-7.8-6-9.64Zm6.24-4c.54,3.26.45,3.85,1.25,13.6l4.94,0c-4.77-8.42-4.41-7.14-6.19-13.64Zm7.62-3.93c.88,9.84.69,6.55.77,17.6l6.9,0c-1.64-4.29-3.65-11.71-5.09-17.47l-2.58-.16Zm10.56.67c.31,5.94.57,12.85-.25,17l10,0a161.08,161.08,0,0,1-6-16.76c-1.25-.08-2.49-.15-3.73-.24Zm12.88,9.07a78.51,78.51,0,0,1,.1,7.93H771a26.81,26.81,0,0,1-4.69-7.92Zm6.33-6.82c-.31,4.92-.63,9.83-1.12,14.74l5.66,0c-1.61-2.19-3.29-8.81-4.54-14.7Zm6.27,14.29a2,2,0,0,1,.11.4q14-.12,26.23-.55a140.59,140.59,0,0,1,.13-14.37c-1.45,0-2.9,0-4.35,0-.61,1.39-1.58,3.45-3.41,7.62-1-3.93-1.56-6.14-1.94-7.65h-.43c-.36,5.22-1,10.78-2.26,13.28l-.19.14c-1.58-.27-3-4.57-4.13-9.39a56.39,56.39,0,0,1-1,6.87c-.29,0-.51-.15-.69.18.14.15.57.17.73.2.74,1.38-2.78,5.11-5.72-11.68l-1.74-.07c0,4.09-.13,3.73-1.21,15Zm34.93-14.75a52.72,52.72,0,0,1-3.61,14.41q8.58-.37,16.28-.95c.84-9.31,1.06-11.52,1.29-14.43-1.6.16-3.23.29-4.86.42-.8,2-1.75,3.95-5.47,12.39-.58-6.91-1-9.92-1.12-12-.83,0-1.67.09-2.51.12Zm13.42,13.41c7.62-.59,14.65-1.34,21.09-2.3-.7-2.64.57-9.29,1.93-16-1.15.3-2.32.58-3.48.85-1.53,3.72-3.57,6.86-7.14,12.6h0c-1.06-5.36-1-8.31-.56-11.06-1.62.28-3.23.57-4.88.79a95.94,95.94,0,0,1-6.93,15.15Zm33.06-21.5c-1.48,7-3.89,14.39-7.71,18.51,2.87-.49,5.62-1,8.26-1.62,2.35-7.28,4.56-13,6.33-19.76-2.23,1.05-4.53,2-6.88,2.87Zm17.21-8.76c-3,10.55-5.86,16.69-12.07,24.55a104.94,104.94,0,0,0,12.89-4.16c0-1.4.2-3.37.2-4.48a.8.8,0,0,1,1.59,0c1.47-6.35,2.92-14.25,4.06-21a68.77,68.77,0,0,1-6.67,5.1Zm40.45-24c-1-.76-2-2.78-3.11-5.51.07,8.51-1.38,16.86-5.21,23.9a93.85,93.85,0,0,0,8.32-18.39Zm-.7-22.65c.78,7,1.58,14.75,1.79,19.23q1.71-5.49,3.19-11.67c-1.63-2.28-3.35-4.86-5-7.56Zm-6.3-20.67a4.68,4.68,0,0,1,4.11-1.74c-1.14-1.37-2.23-2.69-3.22-3.91q-.45,2.88-.89,5.65Zm5-33.34c-.08.57-.16,1.13-.24,1.71a4.71,4.71,0,0,1,2.67,2.19c1.07,1.8,7.7,10.7,11,17.18.52-3.84,1.06-7.79,1.59-11.89-4.23-2.21-10.31-6.12-15-9.19Zm1.46-10.25c3.61,3.39,10.64,9.09,14.18,14.66q.51-4,1-8.19c-9-3.22-6.67-2.15-15.16-6.87,0,.14,0,.27-.05.4ZM924.3,414q.27-2.88.56-5.78c-.41-.22-.87-.45-1.31-.67-.24,2.67-.49,5.32-.74,7.92A4.65,4.65,0,0,1,924.3,414Zm29-296.8c-.35-2-.73-3.88-1.12-5.77-1.75-.82-7.77-3.78-14-6.83l.06.41c5.63,4.62,10.48,7.17,15,12.19ZM936.84,95.06a116.82,116.82,0,0,1,14.25,11.3q-1.33-5.79-2.92-11.09c-4.38-3-8.65-6.16-12.9-9.35.56,3,1.08,6,1.57,9.14ZM936.3,75c3.14,3.46,5.71,6,7.79,8.72a80.2,80.2,0,0,0-6.63-13A25.82,25.82,0,0,1,936.3,75Zm-12.1-3.69-.26.63.36-.25c0-.12-.07-.26-.1-.38Zm-19.52-10c-.42.18-.82.29-1.23.44.47.32.95.6,1.4.92-.07-.45-.13-.9-.17-1.36Zm-2.27-8.45.61-.17-.7-.16c0,.12.08.21.09.33Zm10.92,14a10.36,10.36,0,0,1-2.61,1.06A51.66,51.66,0,0,1,917,75.59a19.31,19.31,0,0,1,1.49-6.15c-4.43,1.65-5.61.27-5.12-2.64Zm12.49,10.91c-2.55,1.29-5,2-6.7,1.59a66.07,66.07,0,0,1,4.15,8.87,4.75,4.75,0,0,1,3.65.24l1.32.85c-.75-4-1.56-7.87-2.42-11.55ZM932.45,119l-3.2-1.5c.18,1.76.34,3.57.5,5.4a4.62,4.62,0,0,1,3.07-.35c-.12-1.2-.24-2.38-.37-3.55Zm-1.75,16.07a4.64,4.64,0,0,1,.23-.72,5.12,5.12,0,0,1,1.31-1.46q-.94-.54-1.77-1.08c.08,1.08.16,2.15.23,3.26Zm.41,153.59q-.17,4.17-.34,8.34l2.56,1.63c.16-2.92.31-5.82.46-8.73l-2.68-1.24Zm.47-10.27c.39.26,1.38.84,2.7,1.62.07-1.36.13-2.74.19-4.1l-2.87-1.08c0,1.18-.07,2.36-.11,3.54,0,0,.06,0,.09,0ZM934,265.7l.91.51.18-4.86c-.9-.4-1.91-.83-3-1.31,0,1.66-.09,3.33-.13,5a4.66,4.66,0,0,1,2.07.66Zm-1.71-15,3.12,1.7c.08-2.45.15-4.88.22-7.31l-3.18-1.21c0,2.26-.11,4.54-.16,6.82Zm4-47.14q0-3.12,0-6.19c-1-.35-2.18-.73-3.46-1.15,0,1.76,0,3.54,0,5.33l3.45,2Zm0,9.37-3.4-1.33,0,5.26a4.66,4.66,0,0,1,3.4.57c0-1.5,0-3,0-4.5Zm-3.58,20.84c.54.32,1.68.93,3.26,1.78l.15-7.7c-1-.47-2.15-1-3.33-1.64,0,2.51-.06,5-.08,7.56Zm10.69-18.24c0,2,0,4.08-.09,6.13,6,2.92,12,4.22,16.13,6.33.32-14.39.36-28.7,0-42.59a44.5,44.5,0,0,1-16.08-2c0,2.76.07,5.53.09,8.33,6.65,3.8,4.2,2.3,14.55,10.21-10.63-1.13-10.84-.83-14.52-2.08q0,3.91,0,7.86c7,4.14,14.17,8.81,13.89,10.75v0c-1.55.93-7.65-.79-14-3Zm16-31.2c-.13-5-.32-10-.55-14.88-11-1.95-12.62-2.1-15.9-3q.14,4.29.23,8.67c6.4,3.34,13.68,7.28,16.22,9.18Zm-23.56-13c-.08-2.35-.15-4.67-.24-7l-3.44-1c.06,2.05.13,4.11.19,6.21l3.49,1.76Zm.22,9.44c-1.08-.42-2.27-.87-3.48-1.32,0,2.5.1,5,.13,7.56a4.74,4.74,0,0,1,3.47.52c0-2.27-.06-4.52-.12-6.76ZM925.81,380.68c-.47,6.22-1,12.29-1.49,18.21a4.72,4.72,0,0,1,1.45-.16c.11-1.17.21-2.33.32-3.5a4.17,4.17,0,0,1,.49-5.46q.39-4.15.75-8.32l-1.52-.77Zm7.88,3.77c-.15,1.59-.29,3.17-.44,4.76,2.18,1.38,7.85,5,13.38,8.79.26-2.64.55-5.48.87-8.5a95.71,95.71,0,0,1-13.81-5.05Zm-1.35,14.33c-.12,1.24-.25,2.48-.37,3.72,10.56,8.23,6.63,4.85,16.24,13.84.07-.43.15-.84.22-1.26a4.7,4.7,0,0,1-3-4.79c.18-1.89.39-4,.61-6.39-4.8-1.7-9.87-3.65-13.67-5.12ZM948,385q.63-6,1.32-12.74c-9.2-2.5-8.53-2.2-14.13-4.36-.21,2.46-.43,4.92-.64,7.36,3.84,2.57,9.54,6.48,13.45,9.74Zm-19.8-13.36c.17-2.08.35-4.16.52-6.24l-1.71-.65c-.15,2.31-.32,4.64-.49,6.93a4.52,4.52,0,0,1,1.68,0Zm.19-16.52,1.1.66c.14-1.7.27-3.39.4-5.09l-1.88-.85c-.11,1.76-.23,3.5-.34,5.24a4.35,4.35,0,0,1,.72,0Zm.19-14.54,2,1.32c.13-1.75.26-3.48.37-5.22l-2.07-.63-.27,4.53ZM931,326.8l.54.24c.12-1.82.25-3.65.36-5.47l-2.28-.76c-.1,1.91-.2,3.84-.3,5.74a4.64,4.64,0,0,1,1.68.25Zm-.91-15.5,2.39,1.25.3-4.88-2.47-1c-.07,1.55-.14,3.09-.22,4.64ZM941,284c5,3,10.8,6.54,15.18,9.57.25-3.62.48-7.27.72-10.95-3.76-.49-9.94-2.37-15.61-4.29-.1,1.89-.19,3.78-.29,5.67Zm16.1-4.6c.22-3.52.42-7,.61-10.6C946.85,266,946,266,942,264.33c-.08,1.85-.17,3.7-.24,5.56,5.27,2.91,11.86,6.7,15.41,9.49ZM942.27,256.1c6.1,3.31,5.62,3.18,15.59,10.13.58-11.06,1-22.26,1.35-33.44-6.7-1.47-10.64-1-16.18-2.42q-.09,4.47-.22,9c7.8,4.39,16.79,9.84,15.45,11.16h0c-.45-.11-.27,0-.53-.13,0,.18.13.2.22.32-2.16.92-8.83-.94-15.34-3.17-.1,2.84-.19,5.69-.3,8.54Zm16.46-87.71c-.17-3.19-.35-6.34-.56-9.46-4.33-1-10.29-2.69-15.75-4.3.06,1.34.13,2.68.18,4,5.33,2.33,5,2.46,16.13,9.72Zm-23.57-13q-.07-1.52-.15-3l-3.4-1c0,.84.08,1.67.12,2.53l3.43,1.51ZM933,141.93s.57.26,1.4.63c0-.35-.05-.71-.07-1.08l-1.66-.65a4.64,4.64,0,0,1-1.76-1.92c0,.86.1,1.76.15,2.63a4.91,4.91,0,0,1,1.94.39ZM947.8,118.2c1.73,1.22,3.28,2.53,6.57,5.32-.2-1.23-.41-2.42-.61-3.62-2.17-.57-4.15-1.13-6-1.7ZM934.2,66.12a41.91,41.91,0,0,0-5.53-5.73l0,.1a19.35,19.35,0,0,1,1.32,3.18c.36,1.2.71,2.45,1,3.7a13.53,13.53,0,0,1,3.21-1.25Zm-40.71-15a177.11,177.11,0,0,0-26.61-.25,77.22,77.22,0,0,1,26.38,5.25,23.69,23.69,0,0,1-.35-2.84,4.67,4.67,0,0,1,.58-2.16Zm-254.92,54c-1.44.61-2.71,1.16-3.78,1.66a9.13,9.13,0,0,0-2.21,1.61c1.93-1.15,3.92-2.24,6-3.27ZM816.1,57.16C763.73,66.24,704.2,82.77,667,94.93c25.35-6.66,54.56-10.19,80-17.65,20.51-6,44.89-14.39,69-20.12ZM627.23,117.43h0a4.49,4.49,0,0,0,.47.75,4.78,4.78,0,0,0,6.74.11c26-18.62,65.61-18,101.24-28.68,36.51-11,168.69-64,183.64,4,3.51,16,5.71,36.63,7,60A4.66,4.66,0,0,0,924,157.1a4.74,4.74,0,0,0,2.68,4.7c.11,2.5.22,5,.31,7.56a4.7,4.7,0,0,0-.22,8l.48.17q.32,11.44.41,23.41a4.68,4.68,0,0,0,0,8.5c0,8.13,0,16.4-.13,24.74a4.58,4.58,0,0,0-1.53,1.83,4.71,4.71,0,0,0,1.44,5.58c0,3.09-.1,6.19-.16,9.3a4.63,4.63,0,0,0-.16,7c-.07,3.48-.17,7-.26,10.45a4.76,4.76,0,0,0-.07,2.59c-.07,2.62-.15,5.25-.23,7.87a4.58,4.58,0,0,0-1.45,1.66,4.68,4.68,0,0,0,1.22,5.68q-.17,5-.35,10a4.63,4.63,0,0,0-.32,8.56c-.07,1.82-.14,3.63-.22,5.45a4.68,4.68,0,0,0-3.42,2.67,4.77,4.77,0,0,0,2.45,6.27l.6.2c-.27,6.25-.54,12.45-.83,18.56a4.74,4.74,0,0,0-4,8.61l3.48,1.54c-.14,2.95-.29,5.87-.44,8.78a4.63,4.63,0,0,0-.87,1.73,4.69,4.69,0,0,0,.61,3.76c-.71,13.87-1.42,27.06-2.07,39.37a4.7,4.7,0,0,0-.15,2.85c-.72,13.54-1.37,25.91-1.87,36.64v8.63c1.15-9.11,2.27-19.24,3.35-30.1a4.71,4.71,0,0,0,1.17,1.7q-.37,3.79-.77,7.54c0,.06-.11.08-.15.14a4.77,4.77,0,0,0-.38,5q-1,9.27-2,18.32a4.7,4.7,0,0,0-3.74,2,4.76,4.76,0,0,0,1.32,6.61l1.38.63c-.28,2.48-.56,4.93-.85,7.37a4.84,4.84,0,0,0-.95,1.38,4.66,4.66,0,0,0,.31,4.18q-.84,7-1.67,13.87a4.7,4.7,0,0,0-1.13,9.13c-.2,1.53-.39,3.08-.58,4.6-.06.07-.14.11-.2.17a4.76,4.76,0,0,0-.5,5.29q-.45,3.48-.9,6.9a4.79,4.79,0,0,0-1.5,1.38,4.7,4.7,0,0,0,.54,5.89c-.14,1-.27,2.05-.41,3.06a5,5,0,0,0-1.18.94,4.71,4.71,0,0,0,.21,6.21q-1.43,10.25-2.8,19.65a4.69,4.69,0,0,0-.85,5.71c-1,6.61-1.95,12.85-2.89,18.68l-.3.88a4.72,4.72,0,0,0-2.15,6c-1.13,3.06-2.28,6.14-3.44,9.13a4.68,4.68,0,0,0-2.27,4c0,.43,0,1,0,1.72A187.11,187.11,0,0,1,888,615.3c-2.23,4-7.13,7.34-13.88,10.15a4.6,4.6,0,0,0-3,1.19c-3,1.1-6.33,2.09-9.91,3a4.61,4.61,0,0,0-8.33,1.89c-2.22.44-4.5.87-6.86,1.27a4.38,4.38,0,0,0-1-.16,4.58,4.58,0,0,0-2.18.68c-1.69.26-3.4.51-5.14.76a4.68,4.68,0,0,0-3-2.32,4.75,4.75,0,0,0-5.63,3.42q-2.15.25-4.32.48a3.7,3.7,0,0,0-.46-.31,4.76,4.76,0,0,0-5.12.87c-2.93.28-5.89.52-8.87.74l-.15,0a3.23,3.23,0,0,0-.33.06c-2.39.19-4.81.36-7.23.51a4.52,4.52,0,0,0-5.82.33c-6.94.39-13.91.67-20.8.88a4,4,0,0,0-.84-.12,4.15,4.15,0,0,0-.63.16c-4.37.13-8.7.23-12.94.3a4.76,4.76,0,0,0-3.62-.2,3.78,3.78,0,0,0-.43.26l-6.58.06a4.33,4.33,0,0,0-5.39,0c-14.17,0-26.74-.14-36.13-.33a4.26,4.26,0,0,0-.73-.4,4.72,4.72,0,0,0-3.66.32l-9.61-.21c-17.46-.28-30.37.25-40,.19a4.49,4.49,0,0,0-2.16-.09s-.08,0-.14,0c-23.74-.47-25.29-5.93-25.82-42.22-.82-55.5-56.6-40.58-102.21-34-.1,0-.18-.07-.29-.08a4.75,4.75,0,0,0-2.13.42q-4.25.6-8.34,1.05a4.6,4.6,0,0,0-2.8.28c-1.84.18-3.65.32-5.43.43a4.45,4.45,0,0,0-1.37-.19,4.62,4.62,0,0,0-1.24.32,69.21,69.21,0,0,1-16.89-1C502,551,596.44,504.12,612.28,496.28c.08,2.05.14,3.91.2,5.45a4.76,4.76,0,1,0,9.52,0c-.13-4.1-.42-10.65-.79-19.15,7.64-3.52,15.18-6.86,22.5-10-7.6,2.71-15.11,5.69-22.55,8.87-3.51-77.45-14.7-310.1,6.07-364ZM478.3,571.21c2,4.49,5.43,12.35,8.6,15.24,1.41.07,3.14.1,5.06.1-8.67-7.53-5.72-3.83-11.3-15-.85-.1-1.63-.21-2.36-.34Zm145.87,76.61a34,34,0,0,0,3.6,6.35,47.57,47.57,0,0,1-1.9-5.34,19,19,0,0,1-1.7-1Zm50.72,22.9c3.24,0,6.52,0,9.86-.08-7-10.11-4.19-5.41-10.71-19.79l-2.21.13c2.33,8.84,1.59,5.63,3.06,19.74Zm222.92-25.48a59,59,0,0,0,8.24-9,28.75,28.75,0,0,1-2.24,2.46c-1.66-2.78,1.8-5.06,2.37-7.64h0l0,.08c-1.92-7.56,5.06-15-.33-35.43-.21.74-.43,1.47-.65,2.2-2,27.91-4.88,41.24-7.32,47.29Zm29.29-42.67h0l0,0Zm-7.83-29.66s2.62,7.21,5.07,14.84q.74-3.69,1.44-7.6c-1.89-2.12-4.19-4.81-6.53-7.6,0,.11,0,.23,0,.36ZM915,552.59c5.74,9.68,9.42,16.44,11.84,21.26q.9-5.55,1.77-11.53c-4-2.85-10.28-9.08-14.54-13.55-.11.81-.23,1.6-.36,2.4a4.64,4.64,0,0,1,1.29,1.42Zm18-23.79q.51-4.17,1-8.51c-4.73-2.57-10.67-6.07-14.77-8.53-.17,1.24-.33,2.46-.5,3.69,10.81,9.19,8.52,6.69,14.23,13.35Zm-12.17-27.14c.34.3,8.08,6.68,14,12.5q.46-3.78.94-7.69c-11-4.24-8.59-3-14.93-6.34-.07.48-.12,1-.19,1.43.07.05.14.05.21.1Zm16.71-9.72c.36-2.83.72-5.7,1.1-8.62-7.8-2-5.62-1.3-15.06-5.18,0,.46-.11.91-.16,1.36a4.62,4.62,0,0,1,2.69.73c8.94,8.41,6.76,5.91,11.43,11.71Zm1.6-12.51q.57-4.38,1.16-8.89c-8.46-2.89-6.88-2.27-15.07-6.11-.17,1.4-.33,2.8-.49,4.18,11,7.46,9.35,5.78,14.4,10.82Zm-12.85-24.1c10.47,7.32,8.73,5.58,14.49,11.6.43-3.23.88-6.5,1.34-9.83-11.1-3.65-8.43-2-15.19-7.36-.21,1.88-.43,3.73-.64,5.59Zm16,.29c.49-3.59,1-7.22,1.54-10.93-9.4-3-6.8-1.91-15.63-6.55-.06.48-.11,1-.17,1.44a4.65,4.65,0,0,1,2.91,2.35,173.66,173.66,0,0,1,11.35,13.69Zm2-13.91q.78-5.41,1.61-11c-10.37-3.29-7.59-2.19-16.22-6.16-.13,1.19-.25,2.36-.37,3.54,11.64,9.6,8.72,6.59,15,13.61ZM930.72,415c11.28,8.22,8,5.22,15.59,13.34.21-1.44.42-2.84.64-4.29.38-2.5.74-4.72,1.09-6.77-11.82-2.75-9.57-1.78-17-5.77-.11,1.16-.23,2.33-.35,3.49Zm18.85-45.47c.83-8.21,1.71-17.18,2.6-26.72-6-1.42-6.16-1.51-14.65-4.11-.19,2.52-.39,5-.58,7.57,2.32,1.73,3.7,3.26,12,10.82-7.18-2.21-10.43-3.12-12.59-3.8-.17,2.09-.33,4.17-.51,6.24,7.73,4.46,6.25,3.43,13.7,10ZM938.16,330.1c9.57,4.4,10.2,4.46,14.5,7.39q.4-4.5.81-9.13c-10.2-3.07-11.09-3.3-14.87-4.56-.14,2.1-.29,4.21-.44,6.3Zm19.68-175.79q-.45-5.87-1-11.51c-3.17-.86-6.54-1.94-9.88-3.18,1.19,1.14,2.64,2.8,7,7.33-8.82-1.63-9.56-1.52-12-2.44L942,146c5.12,2.43,11.36,5.53,15.85,8.27ZM874.37,85.49c1.57-2.9.4-1.38.81-5.72l-1.88-2.19a18.06,18.06,0,0,1-3.93-.21,4.77,4.77,0,1,0,5,8.12ZM846.2,90.12a4.78,4.78,0,0,0,6.56-1.55c4.32-8.74,6.2-10,11.17-18v0c-11.5,3.06-11.61,3.87-19.27,13.06a4.76,4.76,0,0,0,1.55,6.56Zm-20.69,7.7A4.76,4.76,0,0,0,832,96c6.38-12.73,3.85-6.3,7.77-19.23-11.31,8-5.86,3.26-16.07,14.54a4.77,4.77,0,0,0,1.81,6.49Zm-19,2.72a4.75,4.75,0,0,0,6.72-.39c2-3.7,7.72-15.82,7.7-20.71C818,77,807.62,92.07,806.09,93.82a4.75,4.75,0,0,0,.4,6.72Zm-19.2,7.56a4.78,4.78,0,0,0,6.67-1c10.5-18.58,6-8.92,13.38-29h0c-14.77,15.09-7.77,7.32-21,23.31a4.76,4.76,0,0,0,1,6.67ZM773.14,114a4.76,4.76,0,0,0,5.18-4.3c10-18.65,4.87-8.91,15.45-29.23-18.74,16.24-10.32,6.9-24.94,28.35a4.77,4.77,0,0,0,4.31,5.18Zm-32.85,2.39a4.77,4.77,0,0,0,6.67-1c10.74-12.3,17.34-13.29,25.3-26-15.44,7.54-19.51,8.55-33,20.33a4.75,4.75,0,0,0,1,6.66Zm-17.24,6a4.75,4.75,0,0,0,6.43-2c1.62-3.16,13.9-25.08,14.31-28-1.66-4.43-22.6,23.39-22.75,23.61a4.77,4.77,0,0,0,2,6.43Zm-18.38,9a4.78,4.78,0,0,0,5.71-3.58c4.42-13.24,8.5-12.08,9.92-25.89-9.54,9.47-12.67,11.5-19.21,23.75a4.77,4.77,0,0,0,3.58,5.72Zm-24.95,4.79a4.76,4.76,0,0,0,6.66,1c7.33-10.73,11.47-21.24,17-33-14.21,9.25-12.51,12.68-22.68,25.28a4.77,4.77,0,0,0-1,6.66Zm-10.83,6.57a4.77,4.77,0,0,0,4.88-4.65c5.09-18.11,2.29-8.68,8.47-28.24-14.75,16.58-8.68,7.28-18,28a4.77,4.77,0,0,0,4.66,4.87Zm-18.83,2a4.77,4.77,0,0,0,6.52-1.73c6.82-16.65,4.08-8.44,8.45-24.56-12.12,11.71-6.48,5.17-16.7,19.77a4.78,4.78,0,0,0,1.73,6.52Zm-12.54,3.54c4.63-9.83,6.59-16.9,11.29-26.52-9.35,1.85-13.09,12.66-19.15,21.13a4.77,4.77,0,0,0,7.86,5.39ZM789.36,631a4.79,4.79,0,0,0,6.23,2.58c7.41-5.86,4-2.37,10.09-10.69-10.06.4-5.5-.4-13.73,1.88a4.78,4.78,0,0,0-2.59,6.23Zm-15.77,2.48a4.78,4.78,0,0,0,6.61,1.32c5.06-6.06,3-2.67,6-10.25-8.07.56-4.34-.3-11.25,2.31a4.78,4.78,0,0,0-1.32,6.62ZM757.89,636a4.77,4.77,0,0,0,6.68.88c6.43-8.26,4.23-3.68,6.7-13.71-8.75,3.87-4.6,1.79-12.5,6.15a4.75,4.75,0,0,0-.88,6.68Zm.48-16.14c-5.4,2.41-8.14,4.66-15,7.45a4.76,4.76,0,1,0,4.75,8.26c5.21-4.21,11.51-8.53,10.21-15.71Zm-8.91-3.79-.06,0c-4-.72-14.55,7.58-18.5,10.22a4.76,4.76,0,0,0,5.61,7.7c1.06-1.19,14.76-15.54,13-17.9Zm-31.31,10a4.76,4.76,0,0,0,7,6.52c4.11-6.74,4.72-9,7.12-16.5-10.39,3.59-6.33,3.22-14.07,10Zm-16.63-.36a4.76,4.76,0,0,0,7.45,5.93c5.34-7,10.95-12.6,16.13-19.52-10.37,1.27-15.85,6.71-23.58,13.59Zm-16.59,1a4.76,4.76,0,1,0,8.21,4.83c7.42-10.09,4.17-4.81,9.79-15.81-12.17,5-6,1.59-18,11Zm-13.91.82a4.77,4.77,0,1,0,8.56,4.19c3.65-8.91,1.86-4.2,5.31-14.17-10.67,4.81-6.07,1.46-13.87,10Zm-13.56-2.77c4.41-1.11,9-7.93,15.68-10.52-.49,7.85-6.22,15.5-12.76,19.59a4.68,4.68,0,0,1-6.19-4.74c-.08.37-.16.76-.25,1.21A4.77,4.77,0,0,1,644.7,628c6.12-8.37,2.51-5.16,10.41-10.09,0,7.6.36,5.32-.67,10.07A4.65,4.65,0,0,1,657.46,624.77Z" transform="translate(-468.17 -43)"/></svg>