<svg id="Layer_1" data-name="Layer 1" xmlns="http://www.w3.org/2000/svg" viewBox="0 0 1004.68 525.03"><defs><style>.cls-1{fill:#231f20;fill-rule:evenodd;}</style></defs><title>quote9</title><path class="cls-1" d="M1194.89,406.5a5.72,5.72,0,0,0-1.26-2.48c1.29-56.2-33.59-103.82-101.8-116,.49-1.55-.7-3.8-2.86-4.79-6.7-35-15.74-51.42-40.81-79.35a4,4,0,0,0-5.78-.7c-47.58-47.48-132.11-11-165,30.28-17.86-46.88-21.53-50.47-56.56-81.27-2.12-1.56-4.87-.82-6.24,1.64-1.52-1.4-3-2.78-4.58-4.13-55.87-48.62-195.14-6.87-232,74-6.13-10.7-12.14-19-18.44-25.61,1-5.53-1.22-7.45-5.95-5.65-15.76-13.45-34.06-17.88-61.13-21.84a4.36,4.36,0,0,0-3.33,1.92c-1.55-.22-3.08-.47-4.68-.63C403,163.89,340,221,313,309.56a37.22,37.22,0,0,0-9.68-4.61c-62.29-21.12-94.57,7.27-103.43,51.44a3.85,3.85,0,0,0-.19.47c-15.57,61.16-6.58,108.05,19.77,164.93,6.87,14.81,16.91,31,29.8,39.43a6.55,6.55,0,0,0-.45,2.45c.06,3.06,2.16,5.5,4.72,5.44,95.85,4.25,207,1.91,308.1.06-.13.58-.11.71.1.23l.1-.22h0c17.49-.33,34.71-.63,51.46-.88,54.56-.84,93.19-3.66,137.8-7.65-.14,1.2.13,1.74,1.06,1.25a2.33,2.33,0,0,0,.65-1h0c.14-.17.24-.31.37-.48q9.09-.81,18.62-1.69c-.12,1.71.5,2.27,2.3.9a4.27,4.27,0,0,0,.86-1.17l-.12.16.12-.19,6.23-.57c-.65,1.67,0,2.46,2.05.37l.36.32.41-1,7.32-.67c-1,4.88-.77,6.94,2.22,2.09l.29-.57-.06.09c.56-1.09.85-1.58,1-1.93l1.46-.13,2.83,3.21c1.64-.42,3.51-2,5.45-4.08l1.68-.22c-2.84,8.82-2.92,13.16,7.86-.82l1.39-.07c-1.47,5.65-1.48,9.56,3.08,5.76a16.16,16.16,0,0,0,2.18-3.29,4.15,4.15,0,0,0,1.57,1.35c2.49,5.63,2.46,13.52,1.28,21.56-2.12,7.64-4.45,15.81-6.55,24.29l-.21.85a50.38,50.38,0,0,1-3.33,7.39c.12,0,1.26-2,2.85-5.46-2.58,10.31-4.75,18.57-5.87,24.4a4.29,4.29,0,0,0-2.14,1.22,6.35,6.35,0,0,0-.33,7.83c13.7,16.62,22.68,16.3,33.35,7.94a6.08,6.08,0,0,0,1.62.64c.34-.38.24-1-.15-1.85,1.5-1.26,3-2.65,4.63-4.19.06,0,.09-.08.12-.11,9.25-8.9,20.37-21.9,36.67-34.44a195,195,0,0,1,46.39-26.52c1.35,4.75,2.34,2.23,2.16-.84,30.7-12,63.11-16.13,96.53-17.32.38,3.25.79,4,1,0q3.9-.13,7.82-.22c.31,2.32.88,2.92,1.89.17a.8.8,0,0,0,.07-.2q8.93-.16,17.92-.13c.37,2,.91,1.25,1.34,0q4.83,0,9.7.06l.46.3c.06.81.17.93.35.11l.14-.4c8,.08,16,.21,24.06.33.94,4.44,2.51,2.67,2.46,0l7.53.1c4.28,14.12,9.55,7.83,5.94,1.38a13.55,13.55,0,0,0-.68,2.17,24.63,24.63,0,0,1-1-3.51l7,.07c1.74,3,2.93,2.35,3.08,0q7.11,0,14.25,0c3.38,5.68,5.78,7.78,7.1,8.29a.53.53,0,0,0,0,.12l0-.11c1.27.46,1.53-.57.7-1.3-1.16-2.6-2.2-4.91-3.15-7.07,2.12,0,4.22-.07,6.33-.12l1.49,1.89c-.2-.7-.36-1.28-.55-1.91,2.28-.06,4.55-.12,6.82-.2l-7-.38-.78-2.76c1.57-2,3.15-3.95,4.69-5.95l.18.37.15,1.27-.55-.75c-.67.79-.43.35-.76,1.27l1.33-.42,0-.1c.87,1.11.67.51-.15-1.27,0-.19,0-.34-.07-.52q7.17-9.35,13.66-19.19c.54,1,.72,1,.34-.52,24.16-36.84,39.79-78.85,32.53-128.11Zm-136.56-107a4.15,4.15,0,0,1,8.2-1.33,36,36,0,0,1-1.73,3.68l-2.36.45h0c-3.39-2.52-1.91-.28-4.09-2.79Zm-6.11-20.56a4.16,4.16,0,0,1,8.31,0c-1,3.9-1.2,5.66-3.58,8.94-3.91-2.57-3.58-4.08-4.73-8.94Zm-2.13-11.25a4.15,4.15,0,0,1,8,2.33c-2.66,3.19-1.9,2.28-4.56,4.31-3,.44-3.28-4.71-3.41-6.64Zm-4.2-15.75a4.15,4.15,0,0,1,8.29.39c-2.41,6.6-3.77,6.83-6.17,11.34-3.88,1.23-2.09-10.27-2.12-11.73Zm-4.22-.67c-3.44-.36.59-10.72,1-12.37a4.16,4.16,0,1,1,7.81,2.84,37.54,37.54,0,0,1-8.81,9.53Zm-13.26-6.63c-3,0,4.13-14.86,4.28-15.23a4.15,4.15,0,1,1,7.59,3.36c-2.73,3.59-7.59,9.74-11.87,11.87Zm-4.23-18c-9.52,11.49-4.54,6.29-14.8,15.73,3.67-13.54,1.17-6.84,7.69-20a4.15,4.15,0,0,1,7.11,4.28ZM999.58,236c-.36,1.55-8.1,6.92,5.52-19.73a4.15,4.15,0,1,1,7.42,3.71c-.83,1.08-11.58,14.53-13.07,16l.13,0Zm-.46-.15h0a3.34,3.34,0,0,1-.71-.29c.26-.2.52.05.71.29Zm-12.22-.14c-.24,3-11.48,12.31,5.73-26.8a4.15,4.15,0,1,1,7.56,3.44c-4.61,7.6-9.73,15.5-13.88,23.39l.59,0Zm-2.14.56h0a2.58,2.58,0,0,1-.38.1v0a1.55,1.55,0,0,1,.39-.06ZM971.12,234c-1.57,4.51-10.87,11.37,8.67-29.06a4.15,4.15,0,1,1,7.87,2.62c-5.38,8.84-11.26,17.6-16.54,26.44Zm-35.25.79c-2.88,1.28-4.65-17.51-4.73-18.16a4.15,4.15,0,1,1,8.3,0c-.37,2.86-1.67,15.71-3.57,18.16ZM919.44,257.6c-8.57-1-9.83-17.68-10.49-23.64a4.15,4.15,0,1,1,8.3,0c-1,14.88-.53,12,2.19,23.64Zm-10.38,7.5c-6.34-3.33-8.89-7.16-9.91-14.09a4.15,4.15,0,1,1,8.29.51c-1,5.86,1.93,6.31,1.62,13.58Zm-74.95-28.37a4.15,4.15,0,0,1,4.15,4.15c-2.22,6.6-.55,3.76-4.72,8.65-3.29-5.33-2.08-2.45-3.58-8.65a4.15,4.15,0,0,1,4.15-4.15Zm-9.47-19.06a4.16,4.16,0,0,1,1.55,5.66c-3.93,5.67-1.78,2.69-6.49,8.9-2.62-8.58-2.39-4.24-.72-13a4.15,4.15,0,0,1,5.66-1.56ZM811.09,200a4.15,4.15,0,0,1,2.78,5.17c-4.13,7.39-1.67,3.93-7.43,10.34h0c-1.54-8.66-1.44-4.42-.51-12.72a4.17,4.17,0,0,1,5.17-2.79Zm-7.87-14.34a4.15,4.15,0,0,1,2.51,5.31c-6.93,11.28-3.24,6.24-10.82,15.32.41-12-.51-5.91,3-18.12a4.13,4.13,0,0,1,5.3-2.51Zm-14-11.2a4.15,4.15,0,0,1,4.06,4.24c-2,6.24-5,13.1-10.49,17.21-2.06-3.84,1.71-11.28,2.19-17.39a4.15,4.15,0,0,1,4.24-4.06ZM770.69,167a4.16,4.16,0,0,1,4.16,4.16c-1.66,13.28-.28,6.74-4.16,19.6-3.88-12.86-2.5-6.32-4.15-19.6a4.15,4.15,0,0,1,4.15-4.16Zm-14.09-9.21a4.15,4.15,0,0,1,3.81,4.47c-2.82,10-3.69,12.63-10.48,20.43-.92-7.76,1.6-12,2.21-21.09a4.15,4.15,0,0,1,4.46-3.81Zm-19.35.57a4.15,4.15,0,0,1,4.15,4.15c-.51,2.41-4,17.83-6.73,19.58l.05.38c.08.09.17.16.23.22,0,.6-.12.44-.23-.22-.1-.1-.18-.22-.15-.31l.1-.07c-.53-4-1.57-18.8-1.57-19.58a4.15,4.15,0,0,1,4.15-4.15Zm-15,1.73a4.15,4.15,0,0,1,4.15,4.15c-2.47,13.89-.61,7.38-5.3,19.6h0c-3-12.66-2-6.13-3-19.6a4.15,4.15,0,0,1,4.15-4.15Zm-15,1.73a4.15,4.15,0,0,1,4.15,4.15c-2,13.83-.45,7.1-4.72,20.18-3.48-13.28-2.29-6.55-3.58-20.18a4.14,4.14,0,0,1,4.15-4.15Zm-13.84,3.46a4.15,4.15,0,0,1,4.15,4.15c-1.66,14.16-.27,7.25-4.15,20.76-3.88-13.51-2.48-6.6-4.15-20.76a4.15,4.15,0,0,1,4.15-4.15Zm-11.18,5.29a4.14,4.14,0,0,1,3.12,5c-2.87,12-2.17,13.59-2.32,24.45-7.51-5.63-6.32-18-5.77-26.29a4.15,4.15,0,0,1,5-3.12ZM668.4,199.16a6.8,6.8,0,0,0,1.39-.37c1,2.13-1.89,9.54-11.45-14.9a4.15,4.15,0,0,1,7.92-2.49c.88,5.45,2.11,12,2.78,17.43-.24.15-.4,0-.64.27v.06ZM649,218.67c.65-.7.25-.39,1.23-.85l.39.83,0-.36c-1.26-3.62-5.84-16.14-7.44-26.24a4.16,4.16,0,1,1,8.31-.35c-.26,18.18,0,9.45-.87,26.59.4,1.17.47,1.41,0,.36v0Zm-11.19,13.94.08-2.87c-7.69-12.88-4.1-5.7-10.76-26.73a4.16,4.16,0,0,1,8.17-1.52c3.31,21.36,3.07,13.27,2.59,28.25l.81,1.35h0c.8,1,.52.45.89,1.53l-.9-1.52c-.8,1-.52.44-.89,1.52ZM621.19,214c.64,2,7.43,23.08,9.7,30.28,3.75,6.6.2,12.55-17.44-27.26a4.15,4.15,0,0,1,7.74-3ZM620,254.87l.2-.15c2,2.19-1.21,8.86-14.9-17.13a4.16,4.16,0,0,1,7.88-2.65c1.12,3.51,6.27,17.18,6.82,19.93Zm-.73.59h0l0,0c.1-.36.34-.37.57-.4a4.4,4.4,0,0,0-.52.43Zm-4.73,17.79-.11-.08c-.26.54-.72,1.17-.52,1.84-.37-1.23-.7-2.32-1-3.27l-17-15.9a4.15,4.15,0,1,1,6.94-4.55c8.9,15.21,6.83,9.64,10,20.45l1.61,1.51c1,.62.6.24,1.28,1.18l-1.28-1.18Zm-71.31-13.46a4.15,4.15,0,0,1,4.15,4.15l-.67,1.29-.55-.27-.5.25L545,268l0,0-2.9.45c-2.65-2.14-1.52-1.31-3-4.51a4.15,4.15,0,0,1,4.15-4.15Zm-.23-5.6c-3,.94-.66-.47-5,1.1h0c-3.43-1.85-2.27-3.43-.91-7a4.15,4.15,0,0,1,5.88,5.86Zm-14.09-20.35A4.16,4.16,0,0,1,533,238.1c-1.45,6.38-4.71,4.24-7.61,6.81-4.82-1.13.39-5.65-.18-7.43-.31,0-.32.11-.51.42a4.18,4.18,0,0,1,4.25-4.06ZM521,217.7a4.15,4.15,0,0,1,4.15,4.15c-1.21,4.92-3.19,8.31-8.48,8.94-2.28-2.43,1.56-3.62.18-8.94A4.15,4.15,0,0,1,521,217.7ZM509.17,210a4.17,4.17,0,0,1,3.26,4.89c-2.29,4.35-5.3,9.86-10.7,11.29h0c-2-1,2-8.94,2.57-12.92a4.15,4.15,0,0,1,4.88-3.26Zm-15.42-5.26a4.15,4.15,0,0,1,4.34,3.95c-1.17,4.09-3.73,11.43-8.47,13.16-2.22-1.48.41-8.64.17-12.78a4.15,4.15,0,0,1,4-4.33Zm-13.07-2.89a4.15,4.15,0,0,1,4.15,4.15c-1.49,7.77-1.34,8.49-6.74,14.13-1.55-6.32-.75-7.73-1.56-14.13a4.15,4.15,0,0,1,4.15-4.15Zm-14.26-1.15a4.13,4.13,0,0,1,4,4.3c-2.55,11.31-1,5.95-4.5,16.12l-.28,0c-.4,2.27-1.47,3.86-2.33-.29l-.75-.1c.2-.41.38-.76.54-1a115.4,115.4,0,0,1-1-15,4.15,4.15,0,0,1,4.3-4Zm-12.55-2a4.15,4.15,0,0,1,4.15,4.15,107.18,107.18,0,0,1-3.34,16.83c0,.5,0,1,.08,1.18l.12,0,0,.14,0,0s0-.06-.06-.14l-.53.1c-1.65,4.36-2.71,2.65-2.32.45l-.24.05c-1.59-12-.92-5.78-1.95-18.61a4.15,4.15,0,0,1,4.15-4.15Zm-12.22.92a4.14,4.14,0,0,1,4.78,3.4c-.14,2.21-1.1,13.3-2.28,15.13h0c-.39-.26-.91-.54-1.27,0l0,.07.92-.06c.48.7-.9,8.54-5.53-13.73a4.14,4.14,0,0,1,3.4-4.78ZM430,203.29a4.14,4.14,0,0,1,4.06,4.23c-.44,3.54-.62,12-3.29,14.61h0l-.1.09c-2.67-.76-4.6-12.9-4.93-14.87a4.15,4.15,0,0,1,4.24-4.07Zm-14,3.51a4.15,4.15,0,0,1,4.75,3.44,78.3,78.3,0,0,1-1.65,14.08c.29.3.08.12.72.42l.11.69c-3.55,4.55-7.38-13.87-7.38-13.87A4.16,4.16,0,0,1,416,206.8Zm-8.16,26.39c.93.68,1,1-.06,1.7-3.62-.82-7.66-15.8-8.52-18.64a4.15,4.15,0,1,1,8.26-.89c.41,5.44,1.26,12.46.91,17.88a1.34,1.34,0,0,1-.59-.05Zm-.93.54h0l0,0c.15-.44,0-.19.63-.59l.15,0c-.61.43-.39.22-.74.59ZM389.71,218a4.13,4.13,0,0,1,4.57,3.68c1.86,11.82,4.13,8.84,3.09,22.64-4.9-7.79-8.29-13-11.34-21.75a4.14,4.14,0,0,1,3.68-4.57Zm-12.82,9.46a4.15,4.15,0,0,1,5.34,2.44c4.39,14.9,2.74,7.5,5,22.2-9.49-11.74-5.15-5.35-12.83-19.3a4.15,4.15,0,0,1,2.44-5.34Zm1.54,27.9c-1.34,1.37-7.3-9.75-7.63-10.29a2.38,2.38,0,0,1,4-2.52c.68,1.76,3.85,10.57,3.6,12.81Zm-10.2-11.64c3.09,6,7.26,13.43,9.93,19.48,2.16,3.7.83,8.54-16.8-14.82a4.15,4.15,0,1,1,6.87-4.66Zm8.13,20.79h0a.71.71,0,0,1,.08-.7l-.08.7Zm-5.8,9.79.55.54c2.2,4.34-18.49-11.54-18.49-11.54a4.15,4.15,0,1,1,4.74-6.82c1.44,1.63,12.76,15.41,12.73,17.9-.18.09-.47.2-.43.43l.06,0c.43-.29.15-.11.84-.54ZM349.44,284a4.16,4.16,0,0,1,3-7.74c10.71,9.1,6.37,4.2,13.48,14.25-11.17-3.44-5.66-1.3-16.51-6.51Zm-8.5,10.92a4.14,4.14,0,0,1,5.6-1.74c7.18,4.39,12.6,6.87,20,10.58-10.25,2.6-14,.47-23.84-3.23a4.15,4.15,0,0,1-1.74-5.61Zm-34.22,39a4.16,4.16,0,0,1,5.42,2.27c0,3.41-.2,2.81-1.83,6.19-5.37-.58-2.18,0-5.86-3a4.17,4.17,0,0,1,2.27-5.42Zm-10-1.46a4.15,4.15,0,0,1,4.15,4.15c-1.32,2.83-1.58,3.15-3.87,4.62-2.38.44-3.63-2.92-4.43-4.62a4.15,4.15,0,0,1,4.15-4.15Zm-19.44.69a4.15,4.15,0,0,1,8.3,0c-1.9,6-.45,3.24-4.44,8.36-3.52-5.38-2.3-2.57-3.86-8.36Zm-10.47-3.43a4.16,4.16,0,0,1,5.09,2.93,54.12,54.12,0,0,1-1.42,10.59c-.89,2.79-6.61-8.44-6.61-8.44a4.15,4.15,0,0,1,2.94-5.08ZM262,344.08c-.53.29-.81-.12-1,.4.11.16.37.15.58.18,1.21,1-1.69,4.58-7.25-9.91a4.15,4.15,0,0,1,8.17-1.5c0,2.66.14,8.31-.5,10.83Zm-8.49,4.62c-4.18-.65-5.59-5.54-9.45-9.35a4.15,4.15,0,0,1,6.21-5.52c2.34,4.78,4.13,9.45,3.24,14.87Zm-6.91,8.36h0c-8.54-6.61-4.76-2.85-11.4-11.22a4.15,4.15,0,1,1,7.24-4.07c3.68,9.9,2.29,4.81,4.17,15.29Zm-2.41,7.43C243,368,230,357.28,228.18,356a4.15,4.15,0,1,1,5.71-6c7.51,9.08,4.1,4.33,10.28,14.23l-.1,0,.13.23Zm-4.67,9.9c-.36.31-.09.13-.91.34l-.22.85.11.17,0,0c.07-.42,0-.14.27-.79.67-.22.78-.4,1.12.13l-.22.88c-3.75.94-11.29-5-13.78-6.95a4.15,4.15,0,1,1,6.74-4.85c1.94,2.92,5.65,7.25,6.85,10.24Zm-17,5.07a4.17,4.17,0,0,1,5.39-2.34c1.62,1.12,11,7.89,11.45,9.84a2.6,2.6,0,0,0-.84.36c1.41-.42,1.94,0,1.36,1.47-2.71,1.21-12.17-3-15-3.94a4.16,4.16,0,0,1-2.33-5.39Zm16,7.88h0a9.64,9.64,0,0,1-.15,1.19c-.51-.47-.27-.89.15-1.19Zm-13,11.18a4.16,4.16,0,0,1,2.36-8c2.63,1.57,7.38,4.48,9.22,7-.12.15-1.38,1-.55,1.49a2.89,2.89,0,0,0,.24-.75c1.34-.8,5.19,3-11.27.23Zm2.91,14.87a4.15,4.15,0,0,1,0-8.3c5,2.27,3.05.61,6.05,4.71v0c-3.82,3.06-1.78,1.91-6.05,3.56Zm4.33,11a4.16,4.16,0,1,1,0-8.31c3,1.83,1.57.57,4,4.15-2.46,3.59-1,2.33-4,4.16Zm6.81,14.37a4.15,4.15,0,0,1-3.25-7.64c4.35.29,2.23-.38,6.24,2.37h0c-1.8,4.15-.69,2.47-3,5.26ZM741.76,557.53l.06,0h0l-.23.66c-3.22.22-6.4.41-9.57.6,6.06-7.11,12.14-15.16,14.84-24.82,1.12-.05,2.23-.13,3.36-.18-2.66,7.43-7.11,20-8.4,23.72h0v0l0,0,0,0ZM504,552.6c-4.63,4.31-2.46,5.44-8.4,9.16-.3-7,1-10.23,4.22-15.89a3.13,3.13,0,0,1,4.89.86,4.77,4.77,0,0,1-.71,5.87ZM1151.37,331c-13-.36,11.47,12.42,1,.07,1.29.09,2.8.25,4.73.57,2.31,4.27,1.59,10.12,1.11,14.42a114.41,114.41,0,0,0-38.5-31.86c11.9,3.63,22.76,7.13,23.34,7.64,2.65,2.38,4.77,4.39,6.45,6.1.58.95,1.2,2,1.83,3.06Zm1,.07c-.28,0-.64-.06-.9-.07l.44-.47c.18.19.31.36.46.54Zm-.46-.54c-.67-.78-1.47-1.64-2.41-2.59-12.26-20-16-13.36-46.23-20.9l-1.31-.33c-1.26-.42-2.45-.89-3.73-1.28a3.27,3.27,0,0,0-1.35.24c-1.58-.14-3.06,0-7.36,0,1.2.25,3.18.74,5.65,1.41a5.06,5.06,0,0,0-1,2.8c-.1,2.57,1.56,4.75,3.7,4.87,34,9.91,57.48,30.31,69.76,56.28-.12,2.6-.17,2.76.61,1.23,11.74,25.74,12.53,56.83,1.78,88.62a4,4,0,0,0-3.2,4.28c.16,1.1.32,2.12.48,3.17-1.4,3.55-2.91,7.09-4.6,10.65a2.41,2.41,0,0,0-.38,0c-1.89.47-3.1,2.68-2.71,5l.2.79A197.42,197.42,0,0,1,1144,510.23c-3.21,4.38-3.42,6.16-7.65,8.18,1.5.43,2.56-.14,3.85-1.17,1-.8,1.9-1.67,2.86-2.5-2.82,4.23-5.3,8.3-8,12.14l-3.36,0a3.88,3.88,0,0,0-3.16-.41,3.55,3.55,0,0,0-.63.36c-55.49-.62-192.33,1.9-217.64,13.46-23.33,10.65-74.27,76.55-95.6,90.56,1.62-5.09,4.42-12.79,4.66-13.55h0c8.87-28.61,35.72-98-8.69-94.81-1.54.12-3.11.19-4.65.3a3.12,3.12,0,0,0-2.38-1,3.28,3.28,0,0,0-2.36,1.3c-81.88,5.48-167.4,4.93-249.85,7.55-100.65,3.21-183.63-3.3-281-5.79a5.58,5.58,0,0,0-2.47-4.35c-76.68-59.63-98.15-249.59,33.1-206,46.48,15.44,1.5-1.41,39.84-58.91a100.61,100.61,0,0,0-11.78,40.58c0,3.06,2.06,5.54,4.61,5.54s4.62-2.48,4.62-5.54c4.85-88.71,161.41-162.15,227.18-28.7,2.63,5.34,2.58.47,4.22,8.67.78-7.19-.94-4.73-2.85-9.56-34.07-85.94-115-94.17-173-62.85,45.58-28,104.81-33.23,146.52,2.89.34,2.15,1.46,2.83,3,2.65,1.25,1.17,2.47,2.39,3.67,3.62-.44,3.06.2,4.91,3.26,3.51,4.47,5.65,10.1,17.74,14.29,27.33a.9.9,0,0,0,.23.52c2.31,5.3,4.16,9.77,5.07,11.76l5.69.32c13.74-36.15,7.74-47.9,48.18-78.34,42.74-32.17,135.54-64,183.19-23.09,30.19,26,53.93,62.61,57,107.46l4.55.4c4.32-41.58,108.57-110.16,167.26-61.13-1-.56-2-1.18-3.08-1.67l.07.05c-.55-.19-.26-.15-.89-.11.87,3.06,4.14,4.46,8.59,9.29a5.91,5.91,0,0,0,1.09,2.47q2,2,3.86,3.93c3.09,4.69,6.46,11.28,9.86,20.85-9.06-12.19-22.31-22.43-41.21-34.17-29.64-18.42-90.08-3.89-115.12,24.2a5.3,5.3,0,0,0,.71,6.53,3.47,3.47,0,0,0,5.44-.86,69.2,69.2,0,0,1,15.47-12.75c3,18.18.5,10.7,5.82,23.26,2.48-13.22,1.37-5.38,2.42-23.64a4.05,4.05,0,0,0-1.79-3.32,123.22,123.22,0,0,1,22.3-9,4.19,4.19,0,0,0-1.66,2.64c-3.45,29.37,1,26.55.67,24.51l.07.07c1.2-1.78,6.67-20.51,7.45-23.17a4.14,4.14,0,0,0-3.39-4.79,2.41,2.41,0,0,0-.38,0c4.05-1.1,8.12-2,12.2-2.75-15,37.56-9.21,39.16-7.28,33.77,8.73-20.42,3.83-10.28,14.9-30.55a4.1,4.1,0,0,0-.36-4.22c15.32-1.63,29.79,0,39.76,5.87,26.47,15.64,41,27.54,49.34,46.12,2.78,10.81,5.5,24,8,40.4a6.24,6.24,0,0,0,1,3.48c-.75,9.1-2.85,32.79.78,42.13a20.49,20.49,0,0,0-.25,6.57h0a33.84,33.84,0,0,1,.75-5.39c2,3.73,5.2,4.06,10.5-2s3.64-23.08-.38-41.94c32,3.18,56.91,14,74.54,30.12a15.2,15.2,0,0,0-3.65,3Zm.27,1.95h0a1.35,1.35,0,0,0-2.09.13c.45-.55.88-1,1.29-1.51l.8,1.38Zm16.47,179.61.17-.36a2.74,2.74,0,0,0,.35.38q-3.74,8.16-7.92,16.11c-.31-8.75-.14-7.07-1.23-14.49h0q2.37-4.62,5-10.49c1.69,4.86,3,7.36,3.76,8.48a1,1,0,0,0-.21.37Zm.17-.36h0l0,0,0,0Zm-29.21,60.49a.65.65,0,0,1,0-.2c0,.12,0,.13,0,.21ZM854.05,269.37c-.22.14-.51-.7-.55-.81-17.83-52.28-2.6-25.7-38.75-78C783.48,145.32,735,152.66,689.57,161.8c-18.43,3.71-84.09,42-84.85,60.89,0,2.57-1.64,4.71-3.78,4.76s-3.92-2-4-4.55c1.32-25.78,53.08-51.67,70.73-62.07C692.92,146,771.22,143.16,795.56,164c35.38,30.24,48.22,57.91,58.44,105.18a1.6,1.6,0,0,1,0,.21ZM312.76,322c2.26,1.42,3.13,4.78,1.94,7.49s-4,3.75-6.24,2.33C262,319.9,239.6,316,217.19,355.69l2.15-3.25C213.48,411,241.17,492.57,279.55,517a20.5,20.5,0,0,0,3.48,1.73c-21.31,1.66-93.24-108.87-66.75-177.06,14.58-37.54,71.2-26.15,96.48-19.61Zm781.77,242.5h0s0,0,0-.06a2,2,0,0,1,.2-.36c0,.13-.12.26-.2.42Zm60.27-24.25h0c-.26-4.85-.89-10.72-1.3-15.42.9-1.23,1.8-2.63,2.7-4.11,1.31,3.57,2.7,7.11,3.84,9.89-1.71,3.24-3.47,6.45-5.24,9.64Zm-12.17-15.65h0a3,3,0,0,0-1.64-.55,2.86,2.86,0,0,0-1.15.28c3.27-4.44,6.33-9.13,9.56-13,1.07-1.28,2-2.58,3.07-3.86a4.75,4.75,0,0,0,0,2.31c.18.61.39,1.3.62,2-3.69,6.35-6.77,10.38-10.47,12.83Zm-57.86,29h0a1,1,0,0,1-.57.14v0a.52.52,0,0,1,.58-.09Zm5-19.89h0a2.88,2.88,0,0,0-2.87.22c-3.06.2-6.22.37-9.58.46h-.89a3.49,3.49,0,0,0-2-1.53,3.21,3.21,0,0,0-3.5,1.58c-8.06,0-17.18-.21-27-.5a2.77,2.77,0,0,0-3.94-.11l-5.26-.15a3.33,3.33,0,0,0-2.67-1.78,3.27,3.27,0,0,0-2.81,1.63c-6.94-.17-14.09-.32-21.35-.35l6.29-.4c25.88-1.72,51.88-2.78,77.86-3.82a6.17,6.17,0,0,0-1.11,3.56,6.38,6.38,0,0,0,.09,1.08l-1.32.1Zm-29,24.17h0c2.25-6.69,1.24-3.72,4-18.36,1.86,0,3.66-.09,5.41-.16-.22,4.61-.61,13.13-.75,18.93-2.87-.15-5.74-.28-8.61-.41Zm-13.13-18.15h0c-.26,8.94-.24,14.43-.08,17.71-2,0-4-.09-6-.11a177.37,177.37,0,0,0,3.47-17.59ZM940.83,569.39h0a.09.09,0,0,0,0,0c-.17-.17,2.18-22.11,2.29-23.31v0l1.64-.33a155.88,155.88,0,0,0,4.7,21.21q-4.32,1.17-8.61,2.51Zm-33.77,13.88h0c-.15-7.58-.6-18.19-.78-23.59,1-.6,1.94-1.19,2.94-1.77.68,12.43,1.73,19.39,2.73,22.89-1.64.79-3.26,1.63-4.89,2.47ZM889.62,593.5h0c-.73-6-1.65-13.51-2.1-17.13,1.26-1.33,2.58-2.69,4-4.09,1.09,9.63,2.19,15.06,3.13,18-1.68,1-3.35,2.13-5,3.23Zm-22,16.61h0c-.56-2.46-1.23-5.62-1.7-7.84q1-1.14,1.86-2.25c1,2.29,2.2,4.94,3.33,7.13-1.2,1-2.37,2-3.49,3Zm-14.91,14h0a32.45,32.45,0,0,0-2.54-4.89c1.57-1.54,3.07-3,4.48-4.49a28.6,28.6,0,0,0,2.91,4.55c-1.72,1.67-3.33,3.29-4.85,4.83ZM836.27,632h0c1.17,1.46,2.56,3.16,4,4.8a44.12,44.12,0,0,1-3.63,3.1c-1.51-1.46-3.11-2.93-4.62-4.27,1.47-1.24,2.9-2.45,4.26-3.63Zm23-22.13h0c.83-.91,1.62-1.8,2.4-2.67,1.11,1.68,2.39,3.51,3.54,5q-2,1.81-3.91,3.57c-.67-2-1.35-3.94-2-5.9ZM872.63,594h0c.49-.6,1-1.21,1.45-1.81,2.71,5.72,2.42,5.34,4.8,8.82q-2.31,1.74-4.47,3.46c-.48-3.68-1.28-7.78-1.78-10.47Zm-28.54,17.63h0c5.16-5.49,11-11.74,17.59-18.89l4.62-4.94a246.43,246.43,0,0,1-22.21,23.83ZM896.86,589h0c.13-5.31.38-16.06.52-22.26.63-.59,1.26-1.16,1.92-1.75.22-.21.49-.39.72-.59,1.24,9.76,2.34,16.43,3.29,20.88-2.16,1.19-4.31,2.44-6.45,3.72Zm17.52-9.7h0l-.27.34c0-7.51,1-17.23,1.62-25.06l.77-.34a208.4,208.4,0,0,0,3.9,22.74c-2,.86-4,1.78-6,2.7,0-.12,0-.25,0-.38Zm-.07-33.56h0c12.05-6.53,23.84-8.74,40.4-9.89-14.76,1.86-28.6,5-40.4,9.89Zm21.92,1.86h0c1.13,15.54,3.15,20.83,4.1,22q-3.69,1.16-7.37,2.46c.22-7.92.41-15.86.65-23.76.88-.23,1.73-.48,2.62-.7Zm15.06-3.07h0c1.68-.27,3.37-.54,5.09-.79-.44,12-.07,18.31.53,21.32q-3.63.84-7.25,1.81c1.5-14.21,1-7.81,1.63-22.34Zm8,19.8h0c.75-3.76,3-16.53,3.84-21.47,1.43-.17,2.87-.34,4.32-.49-1.18,11-1.16,17.27-.75,20.57-2.47.48-4.94,1-7.39,1.53,0,0,0-.09,0-.14Zm15.13-22.61h0l2.84-.23c-1.2,9.53-1.06,5,.66,18.29h0c4.31-12.84,2.42-7.08,6.15-18.77l3.36-.18c-1.63,10.57-2.1,16.32-2,19.17q-8.18,1-16.26,2.49c1.78-5.85,4.13-16.38,5.24-20.77Zm12.05,17.9h0l-.45.29v-.09a.75.75,0,0,1,.45-.2Zm8.07-19.13h0l2.72-.11c-1,8.91-1.51,14.84-1.69,18.55q-3.89.35-7.74.8c1.8-4,5.46-15.34,6.71-19.24Zm9.58-.32h0l2.62-.06c0,4.05.22,12.9.7,17.93q-4.51.27-9,.64c2.13-6.33,3.89-11.42,5.69-18.51Zm9.21-.18h0q2.08,0,4.17-.06c-.71,4.56-1.83,12.3-2.24,17.74-2,.08-3.95.15-5.91.26,2.91-9.66,1.74-5.09,4-17.94Zm11-.11h0l4,0c-.14,5.82,0,12.33.34,17.5q-5.24,0-10.47.2c1.92-5.9,4.07-11.9,6.11-17.67Zm110.15-12.2h0c-.53.09-1.07.17-1.63.24a5.22,5.22,0,0,0-.57-.58l2.5-.1-.3.44Zm-8.27.57h0c-2.71,0-5.76-.09-9.22-.24,3.24-.13,6.47-.28,9.7-.42a5.31,5.31,0,0,0-.48.66Zm35.35-177.61h0a49.47,49.47,0,0,0,5.08-4.38c.17.94.23,1.78.38,3.57.36,4.23.54,7.73.65,10.71a115,115,0,0,0-6.11-9.9Zm21.48,123.14h0c-.34-3-.68-5.9-1-8.86l.09-.2a44.78,44.78,0,0,0,3.55-10.61c.25.78.54,1.65.85,2.61a168.39,168.39,0,0,1-3.46,17.06Zm-6.93,21.86h0c-.59-4-1-9.09-1.39-14.17l3.87-8.81c.92,2.93,1.83,5.53,2.67,7.67q-2.28,7.74-5.15,15.31Zm-19.11,9h0a2.87,2.87,0,0,0-2.21-.15c2.62-3.39,5.12-6.8,7.46-10.23,0,0,0,.1,0,.15-2,3.8-3.71,7.21-5.3,10.23Zm28.1-77.26h0a3,3,0,0,0-1.25-.29,3,3,0,0,0-.73.19c0-.26,0-.52,0-.79a4.61,4.61,0,0,0,.51.22,3,3,0,0,0,1.59-.22c0,.29-.08.59-.14.89ZM1183,413.93h0c-.09-1.64-.21-3.27-.37-4.9a20.68,20.68,0,0,0,2.21-1.38c-.57,2-1.22,4.19-1.84,6.28Zm-1.24-12.05h0c-.2-1.32-.45-2.62-.69-3.93a4.75,4.75,0,0,0,2.85-1.93c-.66,1.94-1.45,4-2.16,5.86Zm.22,38.24h0c0,.19.07.37.09.55-.1.35-.2.71-.29,1.07.08-.53.13-1.07.2-1.62Zm-10.74,49.41h0a49.67,49.67,0,0,0,3.26,10.37q-2.28,5.67-4.82,11.24c0-1.93-.66-8.43-1.43-14.84q1.42-3.21,3-6.77Zm10.91-120.39h0v-.27a1.8,1.8,0,0,1,.08.21l-.08.06Zm-8.87-20.06h0c1,1.6,1.81,3.25,2.66,4.89-.89,1.13-1.88,2.51-3,4.13a57.31,57.31,0,0,0,.35-9Zm4,10.56h0c.21,14.17-4.58,26.85,4.58,18.29-.35,4.7-1.82,8-2.85,10.83a124.21,124.21,0,0,0-7.62-21c0-.23.12-.57.23-1.13a56,56,0,0,1,5.66-6.95Zm10.52,84.92h0c0-.93,0-1.94-.07-3.42.1-.36.21-.71.31-1.05,0,1.49-.14,3-.24,4.47ZM1168,341.18h0c-1.53.36-3.43,1.46-5.85,3.67a99.86,99.86,0,0,0-.57-11.37,94.87,94.87,0,0,1,6.42,7.7ZM1079.86,271h0c-.07-.67-.15-1.35-.23-2,.48,1.37,1,2.8,1.54,4.28l-1.31-2.29Zm-2.73,49.48h0a96.47,96.47,0,0,1-1,9.81c.24-3,.62-6.31,1-9.81Zm.83-36.13h0c.64.71,1.3,1.38,2,2-.5-.05-1-.13-1.49-.18-.16-.6-.32-1.21-.47-1.82ZM873.76,238.4h0c-.15-1.26-.35-2.65-.69-4.32l1,2-1.74-5.24c-.28-1.19-.62-2.49-1-3.84a55.05,55.05,0,0,0,5,7.8c-.93,1.2-1.79,2.41-2.62,3.62Zm-334-41.63h0a20.16,20.16,0,0,0,2.7-2.62c-.44,1.49-.83,2.87-1.13,4.09-.52-.51-1.05-1-1.57-1.47Zm32.77,22.95h0c0-.18-.09-.37-.13-.55l1.53,1.4c-.21.4-.53,1.08-1,2.12a17.71,17.71,0,0,0-.33-2.71l.09-.18-.14-.08Zm-4.58-2.8h0c.07-.64.11-1.19.15-1.76l.63.59c-.23.37-.47.75-.71,1.15l-.07,0Zm-6.27,7.44h0c0,.13,0,.23,0,.35,0-.08-.09-.16-.14-.23l.18-.12Zm8,10.73h0c.73-1.76,1.5-3.7,2.32-5.72,0,3.24.15,6.95.41,9.71-.33,1.2-.73,2.38-1,3.59-.74-1.52-1.5-3-2.26-4.46.18-1.14.35-2.2.55-3.12Zm3.18,2.4h0a52.45,52.45,0,0,1,.35-11.13l1.33-3.28a1.43,1.43,0,0,1-.9.53c.22-1.3.43-2.26.53-2.84,1.17,1.07,2.38,2.16,3.66,3.29a102.58,102.58,0,0,0-5,13.43Zm-37.36-48h0a22.87,22.87,0,0,0-.35,3.18,90.3,90.3,0,0,0-7.74-5.81,68.12,68.12,0,0,1,8.09,2.63Zm-319.83,281h0c-.73,2.15-3.08,8.13-4.72,14.14-.22-.69-.44-1.37-.64-2.05.69-4.93.44-3.26,1.72-15,.18-2.42-.08-5.08-.58-5.94s-1.05.41-1.23,2.84c-.65,11.77-.69,10.79-.72,15.46-.4-1.33-.75-2.66-1.12-4,.2-3.73.39-7.67.51-10.37,1.36-2.69,2.18-4.73,3.51-7.2q2.11,5.25,4.5,10.39a4.24,4.24,0,0,0-1.23,1.67Zm1.79,14.66h0c-.73,11-.76,10.6-.92,15.86-1-2.7-1.94-5.38-2.85-8,1.23-2.5,2.5-5.16,3.77-7.82Zm-9.41-38.52h0c.28.83.55,1.65.84,2.48-3.16,7.68-3.86,10.31-2.73,18.51-1-4-1.84-8-2.6-12,3.33-6.2,3.64-6.43,4.49-9Zm-5.74,1.85h0c-.33-2.18-.65-4.36-.91-6.54.67-1.43,1.2-2.65,1.65-3.82-.71,7.33-.93,7.69-.74,10.36ZM208,467.37h0c-.06,2-.12,4.22-.17,6.38-.38-1.38-.78-2.76-1.13-4.13.48-.8.92-1.56,1.3-2.25ZM201,420.24h0a3.56,3.56,0,0,0-1,.65c0-2,0-3.95.06-5.93q.45,2.64,1,5.28Zm16.36,82.91h0c.67-5.16.5-4.08,2-18.29a22.4,22.4,0,0,0,0-3.67c.62-1.3,1.25-2.58,1.85-3.8q2.22,4.23,4.62,8.34a5,5,0,0,0-.83,1.51c-.34,1.46-4.1,14.37-5,22.74-.9-2.29-1.76-4.56-2.61-6.83Zm4.6,11.74h0c6.1-13.77,3.77-8.25,8.91-21,.6.91,1.22,1.8,1.82,2.69a5.38,5.38,0,0,0-.46,2.22c-3.22,18-1.7,8.4-4.44,29.31-1.45-2.94-2.86-6-4.15-9.06-.59-1.41-1.12-2.78-1.68-4.18Zm54,42.8h0c5-14.32,3.09-7.73,6.45-21.61l3.21.08a182.57,182.57,0,0,0-1.06,23.29q-8.53-.35-16.95-.73c4.63-14,2.61-6.87,6.18-22a5.93,5.93,0,0,0,0-.84l1.9,0c-.93,12.85-.91,6.59.25,21.77Zm110.05-18.35h0c-4.69,12.25-3,7-6.86,22.34-4.91-.06-9.83-.1-14.72-.17,6.36-8.18,9.33-12.46,12.61-22.46l9,.29ZM353,558.61h0l0,0c-.31.54-.28.72.16,1.09l.4-.27h0a.21.21,0,0,1,0,.11c.15,0,9.28-13.6,14-20.84l2.72.09c-2,8.7-4.63,11.95-6.55,22.68-7.67-.11-15.33-.24-22.94-.39,6.63-11.24,3.65-5.85,11.71-22.9l7.89.27c-3.2,6.4-5.9,11.43-7.62,20.29a.54.54,0,0,1,.14-.16Zm-12.59,2.48h0c-3.65-.07-7.26-.16-10.88-.25,7.61-13.33,4-6.39,11.09-21.87a5,5,0,0,0,.2-1.16l4.67.16c-2.52,8.87-4.09,18-5.08,23.12Zm-11.17-.26h0c-4-.09-8-.17-12-.28,3.51-5.21,8.57-17.15,11-23.16,1.8.06,3.62.11,5.41.18-3.89,14.31-2.59,7.59-4.45,23.26Zm-14.31-.36h0l-8.83-.27c5.88-7.56,7.38-11.64,10.64-23.18l4.59.15c-2,7-5.42,18.72-6.4,23.3Zm-11.51-.35h0l-6.23-.19c3.32-6.9,6.13-16.87,7.77-23.26l4.86.14c-1.95,11-4.84,15.87-6.4,23.31Zm-9.7-.32h0l-8.09-.32c4-13.29,2.07-6.89,7-23.15l5.45.14c-1.28,8.22-3,15.54-4.4,23.33ZM264,535.69h0l3,.06c-.87,15-1,8,.51,23-3.86-.17-7.73-.35-11.56-.56,5.3-13.26,4.13-10,8-22.45Zm-11.38-15.2h0l.53.51a4.17,4.17,0,0,0-.81,1.12c.08-.51.18-1.09.28-1.63Zm-24.7,7.75h0c8.69-16.86,6.53-11,10.39-24,.5.65,1,1.29,1.51,1.93a4.79,4.79,0,0,0-.43,1.15c-3.77,23.39-2.89,11.61-2.68,35.32,6.45-20.36,3.84-11.91,9.08-29.36.39.44.78.88,1.18,1.31a4.84,4.84,0,0,0-1.75,3.78c-.72,23.33-.76,12.44-.16,32.68,5.66-16.24,4.34-10.83,6.47-24.08-.75,11.91-3.16,20.41-2.25,31.45a112.64,112.64,0,0,1-21.36-30.21Zm21.82,30.67h0c1.82-4.3,3.27-8,4.47-11.51-.11,2.22-.19,5.29-.39,10.64l-.48,0a4.22,4.22,0,0,0-3,1.49c-.2-.2-.38-.4-.58-.59Zm130.07,2.77h0c9.08-13,5.12-6.68,13.67-22.11l6.31.19a114.58,114.58,0,0,0-6.09,22.06l-13.89-.14Zm121.93-18.6h0a4.25,4.25,0,0,0,1.23-2c3,0,5.94-.05,8.94-.1-5.23,9.36-3.07,4.84-8.26,20.76,11-13.21,6-6.82,15.14-19a4.23,4.23,0,0,0,1.15-1.89l4.28-.1c-2.53,8.08-5.32,13.07-6.74,21q-22.68.12-45.62.18c7.35-5.5,11-12.11,15.3-20.76h6.49c-4.68,5.86-8.07,11.29-9.65,20.28,6.1-6.6,11.05-12.45,17.74-18.39Zm52.86,18.53h0c6.16-9.87,3.73-5.81,11.91-22.16l4.11-.14c-1.73,5.48-4.75,15.26-6.84,22.25l-9.18.05Zm-2.4,0h0l-11.13,0c8.66-14,4.34-6.93,13-21.47a3.38,3.38,0,0,0,.11-.34l5.17-.17c-2,5.86-5.16,15.34-7.19,21.93Zm-11.17,0h0l-11,.05c7.08-13.38,4.42-7.59,10-21.39l6.49-.21c-4.37,10.78-2.79,5.61-5.44,21.55Zm-12.45.06h0l-8.23,0A98.45,98.45,0,0,0,531,540.61l2-.05c-1.39,6-3.75,16.53-4.4,21.17Zm-58,.24h0l-10.26,0a171.16,171.16,0,0,0,11.35-20.82c2.68,0,5.38,0,8.08,0-3.32,7.94-7.4,15.08-9.17,20.77Zm-14.71,0h-10c8-11.78,4.64-6.25,12.55-20.93l6.24,0c-2.13,4.83-6.52,14.62-8.77,20.89Zm-11.07,0h-14.2c7.73-8.48,10.39-10.71,15.42-21.11L451,541c-4.25,11.44-2.86,7-6.28,21Zm-15.41,0h0q-6.79,0-13.59,0c12.28-12.4,6.63-5.74,17.74-21.15a1.31,1.31,0,0,1,0-.15c1.78,0,3.56.09,5.34.11-3.28,8-6,10.85-9.54,21.23Zm-14,0h0c-4,0-7.9,0-11.85-.06,4.85-6,11.55-15.12,16.26-21.55l5.66.14c-5.76,11.11-3.28,6-10.07,21.47Zm-13.63-.07h0l-7.84,0c7.62-11.73,3.82-5.73,13.22-21.18a4.47,4.47,0,0,0,.2-.65l4.28.11c-4.22,7-10,17.33-9.86,21.77ZM578,539.32h0c0-.08,0-.17.07-.26l5.14-.17c-2.82,6.43-7,16.32-9.06,22.63-2.49,0-5,0-7.48,0,4.3-7.68,9.34-18.21,11.33-22.23ZM723.06,556.1h0l1.22.7a2.16,2.16,0,0,0,.08-.29h0v.07c3.58-4.38,9.33-16.36,12.24-22.22l3.16-.14c-1.94,6-8.48,19.82-9.6,24.65-6.24.36-12.41.66-18.55.94,2.17-2.3,11.75-21,13.13-23.68a4.66,4.66,0,0,0,.37-1.31l4-.16a154.18,154.18,0,0,0-6.05,21.43Zm.14-.26h0v0Zm20.41,2.2h0c8-6.95,8.57-15.14,14.09-24.54,0,0,0-.1.06-.14l5.16-.28c-2.6,5.15-8.76,17.59-11,24.38-2.78.21-5.53.39-8.26.58Zm-33.74,1.68h0l.23.17c-3.76.15-7.51.3-11.26.43,3.23-4.64,10.12-17.71,12.64-22.06a4.8,4.8,0,0,0,.59-2.92l5.47-.2c-2.75,7.44-6.51,17.62-7.67,24.58Zm.37-.51h0l-.19.11.12-.17.07.06Zm-12.64.53h0a2.86,2.86,0,0,0-.55.32.72.72,0,0,1,.46,0l-.06.27q-6.83.23-13.72.4c5-7.22,14.31-21.52,15.23-23a4.69,4.69,0,0,0,.48-2.07l5.49-.18a235.08,235.08,0,0,0-7.33,24.18Zm-17.53,1.12h0l-9.79.2c3.62-4.59,13.92-18.66,16.73-21.72a4.37,4.37,0,0,0,1.51-3.26l3.15-.1c-3,5.69-9.39,17.89-11.6,24.88Zm-11.59.23h0c-4.6.08-9.27.14-14,.19,2.64-3.63,14.25-21.49,15.28-23.07a4.64,4.64,0,0,0,.54-1.61l10-.27c-4.73,6.94-10.63,16.84-11.89,24.76ZM652.82,561h0V561a.61.61,0,0,1,.51-.12l-.52.18Zm-.28.26h0c-3.49,0-7,.06-10.62.09,6.2-5.9,13.13-16.39,15.65-24.45l4.85-.13c-7.16,15-9.49,21.83-9.88,24.49Zm-13.22.1h0l-11.91,0c6.86-8.49,9.59-11.56,16.12-24.15l7-.17c-2.31,8.49-10.17,19.33-11.24,24.28Zm-15.74.05H613.49c8.81-11.44,4.64-5.86,16.56-22.65a5,5,0,0,0,.52-1.18l5-.13c-3.52,7.1-9.09,17.53-12,24Zm-11.87,0h0c-3.52,0-7.09,0-10.64,0,5.47-6.4,12.23-18,15.21-23.5l6-.15c-7.57,14-5.29,8.83-10.6,23.64Zm-13.84,0H589.1c6-7.59,8.94-12.15,13.23-23.12,2-.05,4-.12,6-.16-3.07,6.68-8.12,17.38-10.51,23.27Zm-11.2,0h0l-8.83,0c4.54-7,9.54-16.38,13.22-22.85,1.34,0,2.69-.06,4-.11-2.89,9.57-5.9,13.69-8.42,22.94ZM770.58,534h0a5.26,5.26,0,0,0,.21-1.29c1-.06,2-.1,2.92-.15-4.61,15.41-2.12,8-8,23.62l.13.11a.75.75,0,0,1-.06.13q-5.13.42-10.14.8c7.68-9.87,3.82-4.59,14.89-23.22ZM769,556.1h0c2.44-3.26,6.2-9.76,11.56-21.71a4.94,4.94,0,0,0,.09-2.29c.45,0,.89-.07,1.34-.09-2.41,5.16-7.87,17.17-9.68,23.82l-3.31.27Zm8.39-2.44h0c3.94-6.74,8.08-13.4,12-20.27a4.47,4.47,0,0,0,.35-1.93l1-.07C786,546.31,788.3,540,782,555c-1.76.17-3.5.32-5.23.47.17-.4.39-.95.76-1.81l-.14,0Zm8.73.86h0c2.81-4.1,6.73-11.12,11.86-22.62a4.7,4.7,0,0,0,.17-1l.57-.05c-1.87,5.87-5,16-6.75,23.08-2.4.23-4.42.47-5.85.63Zm22.7-24.42h0c-4.43,10.44-8.74,15.9-11.91,23.34l-.71,0a140.94,140.94,0,0,0,9.6-23.18c1-.08,2-.13,3-.21Zm20.53,25.7h0a10.24,10.24,0,0,0-2.12-1.09c.39-.63.76-1.29,1.12-2,1.48-1.16,1.64-2.12,1.8-4.54l-.17-.12c.12-.8.21-1.51.32-2.24a59,59,0,0,1-.95,10Zm-6-3.7h0c.94-1.78,1.91-3.7,2.84-5.57-.11.82-.2,1.59-.27,2.28a42.57,42.57,0,0,1-1.78,4.09c-.25-.27-.51-.55-.79-.8ZM826,536.74h0c.33-1.16.54-2,.68-2.7.19.21.39.41.56.63-.39.62-.81,1.31-1.24,2.07Zm-4.22.81h0a2.54,2.54,0,0,1,0-.78l-.66,1.59c-1.43,1.74-3.13,3.78-5.1,6,3.1-7.31,4.5-11.61,4.71-13.79a12.78,12.78,0,0,1,4.89,2.45c-.85.86-2.12,2.43-3.83,4.53Zm-6-5.82h0l.26-.61a5.34,5.34,0,0,0,.07-1.26c.54,0,1,.09,1.55.14-.57.47-1.2,1.06-1.88,1.73ZM791.51,557h0l.08-.07h0l-.07.08Zm15.63-4.47h0l-.1.3h-.15c.08-.11.16-.2.25-.31Zm8.22.31h0c.31-.39.57-.74.88-1.16l-.35,1.19c-.17,0-.35,0-.53,0Zm10.86,3.41h0c.13-.18.26-.4.39-.6a11.22,11.22,0,0,1,2.55,1.26c-.39,2.13-.86,4.37-1.39,6.69a21.81,21.81,0,0,0-1.55-7.35ZM948.12,233.7h0c-.57.06-.35.08-.73,0,.18-.24.47-.19.73,0ZM824.33,641.93h0l2.29-1.86,4.68,2.73a8.93,8.93,0,0,1-7-.87Zm19.25-8.37h0c-.91-1.95-1.82-4-2.59-5.72,1.6-1.44,3.14-2.84,4.6-4.2,2.25,2.44,2.68,3,3.95,3.77-2.18,2.25-4.15,4.31-6,6.15Zm38.18-34.64h0c-.48-4.51-.48-3.61-2.86-12.69,1.07-1.31,2.17-2.62,3.32-3.94A115.33,115.33,0,0,0,886,595.91c-1.41,1-2.83,2-4.24,3Zm40.44-22.73h0c0-7.82.44-16.82.68-24.55,1.29-.48,2.61-.95,4-1.39.68,10.47,1.42,18,2.15,23.22q-3.42,1.29-6.8,2.72Zm109.13-18.89h0c1.91-8,1.27-5.24,3.56-17.51h3.47c-.21,3.88-.59,11.55-.57,17.52q-3.24,0-6.46,0Zm19,.24h0c1.53-4.72,3.77-15,4.33-17.82l3.28,0c-.33,8.53-.41,14.28-.33,18.1l-7.28-.25Zm21.32.89h0c3.08-9.15,1.9-5.32,5.31-19.39l.47,0,6.48-.68c-5.61,11.76,4,24.55,1.93,15.79,1.31-4.53,2.32-11.62,4.81-13.12a4.48,4.48,0,0,0,1.4-3.54l1.34-.15a4.09,4.09,0,0,0,.84.47c-.92,10.61-1,17.59-.69,22-7.31-.49-14.61-1-21.89-1.35Zm24.94,1.55h0c.6-5.66,2.31-14.11,3.67-20.45a135.39,135.39,0,0,0,2.85,20.9l-6.52-.45Zm11.09.78h0c-1.1-7.61-.66-16.92-.52-22.3,0-.14,0-.26-.06-.4h1.19c2,11.67,4,19,5.68,23.14l-6.29-.44Zm10.49.74h0a17.75,17.75,0,0,0-.67-2.65l-.19.53c-.9-6.1-1.44-12.31-1.9-18.48,6.39,26.3,12,21.5,9.71,18.38-.23-2.67-2.09-12.08-2.88-17.87a160.86,160.86,0,0,0,9.46,21l-13.53-.91Zm6-1.39h0a.5.5,0,0,1,.48-.47,4.12,4.12,0,0,1-.44.49l0,0Zm18.93,3h0l-6.31-.38a162.84,162.84,0,0,1-8.33-23.05c7.23,14.86,4.4,10.52,13.76,22.32l-.47.79.55-.69.8,1Zm.37-3.21h0c-3.82-13.45-2.53-9.21-7.26-23.41a36,36,0,0,0,3.79-1c2.62,7,5.74,13.55,7.59,17.46q-2.05,3.51-4.12,7Zm1.88-27h0a25.11,25.11,0,0,0,2.7-2c1.93,7.11,3.48,11.17,4.63,13.2q-2.25,4-4.55,7.88C1146.58,539.88,1147.14,543.59,1145.29,532.89Z" transform="translate(-192 -128.97)"/></svg>