<svg id="Layer_1" data-name="Layer 1" xmlns="http://www.w3.org/2000/svg" viewBox="0 0 780 500.77"><defs><style>.cls-1{fill:#231f20;fill-rule:evenodd;}</style></defs><title>quote3</title><path class="cls-1" d="M1060.34,279.72c-1.88-23.23-9.08-42.71-20.41-59.07-4.28-9-8.84-16-13.5-20.27-8.75-8-20.08-14.9-33.43-20.88-86.94-48.9-239-43.15-344.74-41.6-117.28,1.71-203.34,9.75-261,36.63-74.31,17.86-95.16,56.26-90.71,154.89q-.52,16.71.48,35.37C297.42,414.25,299.6,491,326.28,513c7.66,33.81,30.41,21.93,183.83,23.16,98.65.79,96.73,86.59,190.31,100.28,87.49,12.8,28.62-76.28,52.47-91.68C775,530.44,821,530.93,876.1,526.41c66.2-.15,137.81-2.53,164-22.55,62.62-47.82,25.32-161.36,20.22-224.14ZM903.73,155.59h0c-113.2-17.8-267.92-11.32-366.05-8.09,33.1-2.48,69.83-3.7,110.5-4.15,73.47-.81,173.49-4.23,255.55,12.24Zm-421.44-2.16h0a4.28,4.28,0,0,0-.11.8c0,3,3.22,5.44,7.18,5.44,116.44-1.95,446-27,527.39,46.81,30.79,27.94,58.39,195.48,15.56,261.67,21.24-61.13,9.19-208-12.45-245-44.51-76.2-319-67.92-405.58-66.49-52.09.85-55.26,1.21-87.72,4.53a8.32,8.32,0,0,0-5.29-1.78c-44,2.56-80.09,5.45-109.53,10.3,20.49-7.08,44-12.34,70.55-16.24Zm523.09,338h0a372.58,372.58,0,0,1-68.69,19.35c-92.77,5.2-219.29-30.91-221.13,52.65-1.65,74.49-16,24.88-120.8-41.42-61.13-38.68-236.21,15.53-246.27-52.45C336.68,389.7,308.07,326,335.32,256.8c.63-1.52,1.26-3.05,1.93-4.61,6.48-15.11,15.62-30.5,28.29-46.39a4.4,4.4,0,0,0,0-6.37,100.22,100.22,0,0,1,7.1-8.15c31.87-11.06,79.11-17.13,148.63-21,4,0,7.18-2.44,7.18-5.44a4.43,4.43,0,0,0-1-2.69c117.31-5.27,379.68-3.76,457.46,34.62,66.17,32.65,55.63,251.58,34.66,280.75a62,62,0,0,1-13.46,13.6c-.25.1-.49.23-.76.33ZM452.18,523.3h0c-70.87-3.87-104.91-7.78-121.33-20.93-1.11-8.11-2-18.39-3.67-31.33a122.23,122.23,0,0,0,14.45,16.34c6,9.41,15.58,15.8,27.7,20.1a171.1,171.1,0,0,0,16.33,8c-3.85-2.08-7.49-4.18-11-6.29,59.49,17.31,169.25-7.45,212.88,20,12.78,8,25.07,17,36.69,25.89-65.84-47.35-24.69-23.77-172-31.81Zm-128.9-77.14h0c-3.59-19.41-6.62-35.92-8.71-50.9-.14-3.47-.3-7-.51-10.7-.76-13.67-1.56-26.44-2.26-38.41,0-.42,0-.85.07-1.27,4.39,39,16.51,79.31,23.64,125.72a46.15,46.15,0,0,0,2.76,10.24,119.48,119.48,0,0,1-11.69-14.33c-.87-6.2-1.93-12.95-3.3-20.35ZM729.62,623.23h0c-6.57-2.89-16.78-8.85-26.83-15.08,14.61,2.58,23.24-8.71,23.8-44.82.15-10.29,2.48-18.45,6.56-24.94-.11,13.66-.24,61.37-3.53,84.84ZM756.77,521h0c28.05-9.67,72.26-4.94,118-2.45-47-.58-91.77-2.4-118,2.45ZM366.25,193.66h0c-1.17,1.31-2.34,2.66-3.51,4.12a9,9,0,0,0-4.29-.51c.27-.21.52-.44.79-.64,2.23-1,4.58-2,7-3ZM335.53,212h0a132.86,132.86,0,0,0-16.28,22.89A67.84,67.84,0,0,1,335.53,212Zm-24,52.91h0c8.24-25.18,21.22-45.22,39.19-61.2-29.75,39.15-39.9,74.73-40.45,110.42-.65-18.75-.51-35.06,1.26-49.22Zm3.84,172.75h0c.53,3.05,1.08,6.15,1.64,9.34.26,1.54.52,3,.77,4.51-.82-1.68-1.6-3.37-2.34-5.09,0-2.79-.05-5.74-.07-8.76Zm.16,14.12h0c1,2.11,2.14,4.19,3.29,6.25,2.23,14.45,3.48,26.31,4.61,36-6.11-9.81-7.52-23.29-7.9-42.29Zm19,66.09h0c19.24,8.92,48.75,12.22,81.21,13.35-57.7,1.46-74.58,2.05-81.21-13.35ZM702.2,629.48h0c-83.26-11.94-87.45-83.83-165.79-97.31,24.64,1.06,44.41,3.79,54.24,10.57,2.13,1.48,92.42,72,131.83,87.12-5.3.84-11.89.82-20.28-.38Zm44-90.39h0a17.91,17.91,0,0,0-2.52,2,31.39,31.39,0,0,1,.62-4.93c1.2-5.31,14.52-7.77,35-8.89-13.15,2.52-24.36,6.15-33.07,11.84Zm297.9-51h0c-15.77,17.39-47.77,25.17-85.48,28.46,16.79-2.73,32.34-7.5,45.76-15.36,2.2-.81,4.4-1.6,6.59-2.46,34-13.3,49.8-56.14,54.11-105.58C1067.26,430.6,1063.77,466.36,1044.09,488.06Z" transform="translate(-296 -136.87)"/></svg>