<?xml version="1.0" encoding="UTF-8" standalone="no"?>
<!DOCTYPE svg PUBLIC "-//W3C//DTD SVG 1.1//EN" "http://www.w3.org/Graphics/SVG/1.1/DTD/svg11.dtd">
<svg version="1.1" xmlns="http://www.w3.org/2000/svg" xmlns:xlink="http://www.w3.org/1999/xlink" preserveAspectRatio="xMidYMid meet" viewBox="0 0 640 640" width="1100" height="1100"><defs><path d="M234.96 260.8C234.96 210.67 276.55 169.98 327.78 169.98C379.01 169.98 420.6 210.67 420.6 260.8C420.6 310.93 379.01 351.63 327.78 351.63C276.55 351.63 234.96 310.93 234.96 260.8Z" id="b4U7Y2ocj"></path><path d="M234.96 260.8C234.96 210.67 276.55 169.98 327.78 169.98C379.01 169.98 420.6 210.67 420.6 260.8C420.6 310.93 379.01 351.63 327.78 351.63C276.55 351.63 234.96 310.93 234.96 260.8Z" id="aV3iCZiBR"></path><path d="M234.96 260.8C234.96 210.67 276.55 169.98 327.78 169.98C379.01 169.98 420.6 210.67 420.6 260.8C420.6 310.93 379.01 351.63 327.78 351.63C276.55 351.63 234.96 310.93 234.96 260.8Z" id="aDBraYF5f"></path><path d="M234.96 260.8C234.96 210.67 276.55 169.98 327.78 169.98C379.01 169.98 420.6 210.67 420.6 260.8C420.6 310.93 379.01 351.63 327.78 351.63C276.55 351.63 234.96 310.93 234.96 260.8Z" id="c1Vsxcvp9M"></path><path d="M388.95 238.66L376.73 226.43L294.83 308.34L307.06 320.56L228.4 361.61L269.44 282.95L281.67 295.17L363.57 213.27L351.34 201.05L430 160L388.95 238.66Z" id="a1CcRzTWzQ"></path><path d="M388.95 238.66L376.73 226.43L294.83 308.34L307.06 320.56L228.4 361.61L269.44 282.95L281.67 295.17L363.57 213.27L351.34 201.05L430 160L388.95 238.66Z" id="f2sqbdJeh"></path><path d="M388.95 282.95L376.73 295.17L294.83 213.27L307.06 201.05L228.4 160L269.44 238.66L281.67 226.43L363.57 308.34L351.34 320.56L430 361.61L388.95 282.95Z" id="bbnLXqQJL"></path><path d="M388.95 282.95L376.73 295.17L294.83 213.27L307.06 201.05L228.4 160L269.44 238.66L281.67 226.43L363.57 308.34L351.34 320.56L430 361.61L388.95 282.95Z" id="aHSfHiY16"></path><path d="M319.2 260.8C319.2 255.28 323.68 250.8 329.2 250.8C334.72 250.8 339.2 255.28 339.2 260.8C339.2 266.32 334.72 270.8 329.2 270.8C323.68 270.8 319.2 266.32 319.2 260.8Z" id="a4Z2Y6lKM"></path><path d="M319.2 260.8C319.2 255.28 323.68 250.8 329.2 250.8C334.72 250.8 339.2 255.28 339.2 260.8C339.2 266.32 334.72 270.8 329.2 270.8C323.68 270.8 319.2 266.32 319.2 260.8Z" id="d3DhLcvqAi"></path><path d="M319.2 260.8C319.2 255.28 323.68 250.8 329.2 250.8C334.72 250.8 339.2 255.28 339.2 260.8C339.2 266.32 334.72 270.8 329.2 270.8C323.68 270.8 319.2 266.32 319.2 260.8Z" id="a3lpSKR7iv"></path></defs><g><g><g><use xlink:href="#b4U7Y2ocj" opacity="1" fill="#000000" fill-opacity="1"></use><g><use xlink:href="#b4U7Y2ocj" opacity="1" fill-opacity="0" stroke="#000000" stroke-width="1" stroke-opacity="0"></use></g></g><g><use xlink:href="#aV3iCZiBR" opacity="1" fill="#000000" fill-opacity="0"></use><g><use xlink:href="#aV3iCZiBR" opacity="1" fill-opacity="0" stroke="#000000" stroke-width="1" stroke-opacity="0"></use></g></g><g><use xlink:href="#aDBraYF5f" opacity="1" fill="#000000" fill-opacity="0"></use><g><use xlink:href="#aDBraYF5f" opacity="1" fill-opacity="0" stroke="#000000" stroke-width="1" stroke-opacity="0"></use></g></g><g><use xlink:href="#c1Vsxcvp9M" opacity="1" fill="#000000" fill-opacity="0"></use><g><use xlink:href="#c1Vsxcvp9M" opacity="1" fill-opacity="0" stroke="#ff3300" stroke-width="25" stroke-opacity="1"></use></g></g><g><use xlink:href="#a1CcRzTWzQ" opacity="1" fill="#ffba00" fill-opacity="1"></use><g><use xlink:href="#a1CcRzTWzQ" opacity="1" fill-opacity="0" stroke="#000000" stroke-width="1" stroke-opacity="0"></use></g></g><g><use xlink:href="#f2sqbdJeh" opacity="1" fill="#000000" fill-opacity="0"></use><g><use xlink:href="#f2sqbdJeh" opacity="1" fill-opacity="0" stroke="#000000" stroke-width="1" stroke-opacity="0"></use></g></g><g><use xlink:href="#bbnLXqQJL" opacity="1" fill="#ffba00" fill-opacity="1"></use><g><use xlink:href="#bbnLXqQJL" opacity="1" fill-opacity="0" stroke="#000000" stroke-width="1" stroke-opacity="0"></use></g></g><g><use xlink:href="#aHSfHiY16" opacity="1" fill="#000000" fill-opacity="0"></use><g><use xlink:href="#aHSfHiY16" opacity="1" fill-opacity="0" stroke="#000000" stroke-width="1" stroke-opacity="0"></use></g></g><g><use xlink:href="#a4Z2Y6lKM" opacity="1" fill="#008dff" fill-opacity="1"></use><g><use xlink:href="#a4Z2Y6lKM" opacity="1" fill-opacity="0" stroke="#000000" stroke-width="1" stroke-opacity="0"></use></g></g><g><use xlink:href="#d3DhLcvqAi" opacity="1" fill="#000000" fill-opacity="0"></use><g><use xlink:href="#d3DhLcvqAi" opacity="1" fill-opacity="0" stroke="#000000" stroke-width="1" stroke-opacity="0"></use></g></g><g><use xlink:href="#a3lpSKR7iv" opacity="1" fill="#000000" fill-opacity="0"></use><g><use xlink:href="#a3lpSKR7iv" opacity="1" fill-opacity="0" stroke="#000000" stroke-width="1" stroke-opacity="0"></use></g></g></g></g></svg>